<?xml version="1.0" encoding="utf-8"?>
<!-- Generator: Adobe Illustrator 15.1.0, SVG Export Plug-In . SVG Version: 6.00 Build 0)  -->
<!DOCTYPE svg PUBLIC "-//W3C//DTD SVG 1.1//EN" "http://www.w3.org/Graphics/SVG/1.1/DTD/svg11.dtd">
<svg version="1.1" id="レイヤー_1" xmlns="http://www.w3.org/2000/svg" xmlns:xlink="http://www.w3.org/1999/xlink" x="0px"
	 y="0px" width="200px" height="27px" viewBox="0 0 200 27" enable-background="new 0 0 200 27" xml:space="preserve">
<g>
	<path fill="#FFFFFF" d="M14.874,1.812c0.686,0.28,0.833,0.7,0.442,1.259c-1.082,1.399-2.505,2.937-4.273,4.616l3.095,1.993
		c1.57-1.398,2.947-2.833,4.126-4.301c0.391-0.488,0.932-0.664,1.621-0.524c0.686,0.28,0.785,0.734,0.295,1.364
		c-2.063,2.378-4.715,4.792-7.958,7.239c2.848-0.069,5.158-0.21,6.926-0.419c-0.198-0.489-0.541-1.118-1.031-1.889
		c-0.198-0.419-0.051-0.734,0.442-0.944c0.589-0.14,1.08,0.036,1.474,0.524c1.275,1.678,2.063,3.078,2.358,4.196
		c0.097,0.63-0.198,0.98-0.884,1.05c-0.688,0.07-1.13-0.14-1.326-0.63l-0.442-1.049l-4.716,0.42v10.28c0,0.56-0.345,0.84-1.031,0.84
		c-0.688,0-1.032-0.28-1.032-0.84v-10.28L7.8,14.925c-0.688,0.071-1.032-0.173-1.032-0.734c0-0.488,0.343-0.734,1.032-0.734h2.063
		l2.8-2.413c-1.179-1.049-2.899-2.132-5.158-3.252C6.916,7.513,6.718,7.162,6.916,6.742c0.392-0.419,0.981-0.488,1.769-0.209
		l0.737,0.314c1.179-1.049,2.406-2.552,3.684-4.511C13.596,1.777,14.185,1.602,14.874,1.812z M9.568,16.709
		c0.589,0,0.884,0.245,0.884,0.734c0,2.868-0.394,5.035-1.179,6.504c-0.295,0.488-0.737,0.698-1.326,0.63
		c-0.589-0.142-0.788-0.456-0.589-0.944c0.785-1.889,1.179-3.95,1.179-6.189C8.537,16.954,8.88,16.709,9.568,16.709z M18.115,16.604
		c0.589-0.068,1.031,0.142,1.326,0.63c1.08,2.518,1.57,4.337,1.474,5.455c0,0.63-0.394,0.944-1.179,0.944
		c-0.688-0.07-1.032-0.35-1.032-0.84c-0.099-1.747-0.493-3.53-1.179-5.35C17.427,17.023,17.623,16.745,18.115,16.604z M39.482,2.756
		c0.097,0.561-0.394,0.91-1.474,1.049l-4.126,0.63l0.294,6.504h5.453c0.785,0,1.179,0.246,1.179,0.734
		c0,0.49-0.394,0.734-1.179,0.734h-5.158c0.196,2.029,0.638,4.092,1.326,6.189c0.392,1.259,0.884,2.449,1.474,3.567
		c0.295,0.771,0.539,0.909,0.737,0.42c0.097-0.42,0.294-1.504,0.589-3.253c0.097-0.488,0.442-0.734,1.032-0.734
		c0.686,0.071,0.98,0.42,0.884,1.05c-0.294,2.239-0.64,3.776-1.031,4.615c-0.394,0.77-0.935,1.154-1.621,1.154
		c-0.788,0-1.524-0.524-2.21-1.573c-1.671-2.657-2.85-6.469-3.537-11.436H26.22v10.596c1.57-0.419,3.191-0.908,4.863-1.469
		c0.686-0.21,1.179-0.174,1.474,0.105c0.196,0.28,0.097,0.561-0.295,0.839c-2.357,1.118-5.256,2.133-8.694,3.043
		c-0.983,0.139-1.573-0.071-1.768-0.63c-0.099-0.42,0.147-0.734,0.736-0.944l1.621-0.42V5.169c0-0.839,0.539-1.364,1.621-1.574
		c4.715-0.21,8.742-0.698,12.083-1.469C38.745,1.987,39.284,2.197,39.482,2.756z M26.957,4.854c-0.493,0-0.737,0.21-0.737,0.629
		v5.455h5.6l-0.295-6.294L26.957,4.854z"/>
	<path fill="#FFFFFF" d="M102.55,11.673c0.885,0.63,1.326,1.364,1.326,2.203c0,0.84-0.441,1.574-1.326,2.203
		c-0.982,0.7-2.063,1.049-3.241,1.049c-1.179,0-2.261-0.349-3.242-1.049c-0.884-0.629-1.326-1.363-1.326-2.203
		c0-0.839,0.442-1.573,1.326-2.203c0.981-0.698,2.063-1.049,3.242-1.049C100.487,10.624,101.567,10.975,102.55,11.673z"/>
	<path fill="#FFFFFF" d="M170.776,1.602c0.785,0.141,1.031,0.561,0.737,1.259c-0.295,0.7-0.641,1.329-1.032,1.888h20.188
		c0.785,0,1.179,0.246,1.179,0.734c0,0.49-0.394,0.734-1.179,0.734h-13.704v4.091h10.167c0.59,0,1.129,0.176,1.621,0.525
		c0.49,0.351,0.737,0.734,0.737,1.154v8.708c0,1.609-1.327,2.413-3.979,2.413c-1.768,0-3.635-0.244-5.6-0.734
		c-0.688-0.279-0.935-0.63-0.736-1.05c0.195-0.419,0.687-0.559,1.474-0.419c1.57,0.351,2.995,0.524,4.273,0.524
		c1.275,0,1.915-0.35,1.915-1.049v-7.764c0-0.559-0.394-0.839-1.179-0.839h-8.693v13.009c0,0.698-0.442,1.049-1.326,1.049
		c-0.885,0-1.326-0.351-1.326-1.049V11.778h-8.105c-0.787,0-1.179,0.28-1.179,0.839v9.441c0,0.7-0.441,1.05-1.326,1.05
		c-0.884,0-1.326-0.35-1.326-1.05v-8.707c-0.787,0.561-1.572,1.015-2.357,1.364c-0.884,0.28-1.524,0.175-1.916-0.315
		c-0.197-0.349,0-0.698,0.59-1.049c3.339-1.608,6.139-3.986,8.399-7.134h-7.663c-0.787,0-1.179-0.244-1.179-0.734
		c0-0.488,0.392-0.734,1.179-0.734h8.547c0.49-0.769,0.933-1.608,1.326-2.518C169.598,1.743,170.088,1.533,170.776,1.602z
		 M167.24,9.365c-0.394,0.351-0.737,0.666-1.032,0.944h8.105V6.218h-4.568C168.566,7.828,167.73,8.876,167.24,9.365z"/>
</g>
</svg>
