<?xml version="1.0" encoding="utf-8"?>
<!-- Generator: Adobe Illustrator 15.1.0, SVG Export Plug-In . SVG Version: 6.00 Build 0)  -->
<!DOCTYPE svg PUBLIC "-//W3C//DTD SVG 1.1//EN" "http://www.w3.org/Graphics/SVG/1.1/DTD/svg11.dtd">
<svg version="1.1" id="レイヤー_3" xmlns="http://www.w3.org/2000/svg" xmlns:xlink="http://www.w3.org/1999/xlink" x="0px"
	 y="0px" width="200px" height="20px" viewBox="0 0 200 20" enable-background="new 0 0 200 20" xml:space="preserve">
<g>
	<path fill="#FFFFFF" d="M15.132,16.071c-0.561,0.465-1.378,0.697-2.451,0.697c-1.026,0-2.082-0.274-3.167-0.823
		c-0.167-0.06-0.274-0.161-0.322-0.304c-0.048-0.132-0.048-0.274,0-0.43c0.072-0.143,0.167-0.238,0.286-0.286
		c0.155-0.048,0.322-0.03,0.501,0.054c0.93,0.477,1.831,0.716,2.702,0.716c0.859-0.013,1.467-0.203,1.825-0.572
		c0.346-0.382,0.597-0.829,0.751-1.343c0.358-1.062,0.537-2.415,0.537-4.062c0-1.431-0.203-2.421-0.608-2.97
		c-0.322-0.405-0.788-0.584-1.396-0.537c-1.157,0.084-2.296,0.167-3.417,0.25C9.86,8.216,9.275,9.844,8.62,11.348
		c-0.812,1.86-1.807,3.614-2.988,5.26c-0.119,0.155-0.25,0.251-0.394,0.286c-0.155,0-0.292-0.042-0.412-0.125
		c-0.107-0.096-0.167-0.221-0.179-0.376c-0.024-0.155,0.018-0.292,0.125-0.411c1.026-1.419,1.95-3.048,2.773-4.885
		c0.68-1.575,1.252-3.102,1.718-4.581c-1.277,0.06-2.547,0.114-3.811,0.161C5.226,6.689,5.059,6.671,4.952,6.623
		C4.82,6.552,4.749,6.42,4.737,6.229c0-0.19,0.042-0.34,0.125-0.447s0.215-0.155,0.394-0.143c1.372-0.06,2.797-0.125,4.276-0.197
		C9.747,4.5,9.949,3.438,10.14,2.257c0.024-0.167,0.078-0.304,0.161-0.412c0.095-0.107,0.221-0.161,0.376-0.161
		c0.179,0,0.31,0.06,0.394,0.179c0.095,0.131,0.137,0.25,0.125,0.358c-0.083,1.014-0.256,2.064-0.519,3.149
		c1.002-0.083,2.04-0.161,3.113-0.232c0.99-0.072,1.741,0.256,2.254,0.984c0.548,0.776,0.823,1.975,0.823,3.596
		c0,1.814-0.214,3.346-0.644,4.599C15.973,15.116,15.609,15.701,15.132,16.071z M16.492,2.919c1.455,1.539,2.636,3.37,3.542,5.493
		c0.072,0.191,0.083,0.346,0.036,0.465c-0.036,0.132-0.132,0.221-0.287,0.269c-0.119,0.048-0.25,0.048-0.394,0
		c-0.119-0.048-0.185-0.113-0.197-0.197c-0.812-2.075-1.992-3.906-3.542-5.493c-0.084-0.095-0.102-0.214-0.054-0.358
		c0.047-0.107,0.113-0.203,0.197-0.286c0.131-0.095,0.256-0.125,0.375-0.089C16.301,2.771,16.409,2.836,16.492,2.919z"/>
	<path fill="#FFFFFF" d="M27.138,1.524c0.048-0.155,0.131-0.274,0.25-0.358c0.131-0.072,0.274-0.083,0.43-0.036
		c0.167,0.06,0.274,0.149,0.322,0.268c0.048,0.143,0.054,0.287,0.018,0.43L25.617,9.54c0.095-0.131,0.185-0.256,0.268-0.376
		c1.038-1.467,2.058-2.2,3.06-2.2c0.942,0,1.646,0.256,2.111,0.769c0.477,0.549,0.62,1.932,0.43,4.151
		c-0.155,1.933-0.03,3.102,0.375,3.507c0.382,0.418,0.883,0.633,1.503,0.645c1.801-0.012,2.779-2.528,2.935-7.551
		c0.036-0.358,0.221-0.537,0.555-0.537c0.358,0,0.53,0.179,0.519,0.537c-0.155,5.75-1.491,8.625-4.008,8.625
		c-0.954,0-1.735-0.304-2.344-0.912c-0.632-0.62-0.835-2.058-0.608-4.313c0.131-1.897,0.065-3.012-0.197-3.346
		c-0.298-0.346-0.722-0.513-1.271-0.501c-0.668,0-1.377,0.543-2.129,1.628c-1.146,1.611-2.296,3.872-3.454,6.782
		c-0.047,0.144-0.125,0.257-0.232,0.34c-0.096,0.084-0.232,0.102-0.412,0.054c-0.167-0.06-0.286-0.148-0.358-0.268
		c-0.06-0.12-0.065-0.257-0.018-0.412l0.018-0.089L27.138,1.524z"/>
	<path fill="#FFFFFF" d="M46.318,7.446c0.513,0,0.954,0.179,1.324,0.537c0.405,0.406,0.608,0.865,0.608,1.378
		c0,0.537-0.179,0.973-0.537,1.306c-0.417,0.418-0.883,0.627-1.396,0.627c-0.561-0.012-1.02-0.203-1.377-0.574
		c-0.358-0.394-0.537-0.847-0.537-1.359c0.012-0.549,0.203-1.008,0.573-1.378C45.334,7.625,45.782,7.446,46.318,7.446z"/>
	<path fill="#FFFFFF" d="M59.613,14.729c0.859,0.74,2.117,1.109,3.775,1.109c1.372,0,2.493-0.429,3.364-1.288
		c0.978-0.966,1.467-2.457,1.467-4.473c0-2.135-0.59-4.098-1.771-5.887L66.43,4.172l-0.018-0.036
		c-0.012-0.024-0.024-0.042-0.036-0.054c-0.167-0.262-0.119-0.489,0.144-0.68c0.333-0.19,0.614-0.107,0.841,0.25
		c1.264,1.67,2.815,3.221,4.652,4.652c0.334,0.322,0.394,0.614,0.179,0.877c-0.215,0.215-0.507,0.19-0.877-0.072
		c-0.871-0.68-1.682-1.383-2.433-2.111c0.274,0.978,0.411,2.003,0.411,3.078c-0.012,2.35-0.596,4.116-1.753,5.296
		c-1.05,1.025-2.433,1.539-4.151,1.539c-2.016-0.013-3.531-0.472-4.545-1.378c-1.097-1.073-1.646-2.386-1.646-3.937
		c0-2.41,0.984-4.778,2.952-7.104c-1.336,0.37-2.815,0.555-4.437,0.555c-0.37,0-0.555-0.179-0.555-0.537s0.185-0.537,0.555-0.537
		c2.314-0.012,4.407-0.471,6.28-1.378c0.298-0.179,0.524-0.137,0.68,0.125c0.155,0.298,0.101,0.561-0.161,0.787
		c-2.827,2.66-4.24,5.356-4.24,8.088C58.271,12.851,58.718,13.895,59.613,14.729z M70.527,3.975c0.023,0.12,0.012,0.239-0.036,0.358
		c-0.047,0.107-0.143,0.197-0.286,0.269c-0.131,0.06-0.256,0.065-0.375,0.018c-0.096-0.06-0.167-0.131-0.215-0.215
		c-0.334-1.062-0.805-2.045-1.414-2.952c-0.036-0.083-0.03-0.179,0.018-0.286c0.06-0.107,0.149-0.197,0.268-0.269
		c0.131-0.083,0.25-0.101,0.358-0.054c0.119,0.036,0.203,0.096,0.25,0.179C69.716,1.906,70.193,2.89,70.527,3.975z M71.171,0.611
		c0.573,0.847,1.02,1.777,1.342,2.791c0.024,0.132,0.012,0.257-0.036,0.376c-0.048,0.096-0.143,0.179-0.286,0.25
		c-0.131,0.06-0.257,0.066-0.376,0.018c-0.096-0.036-0.161-0.107-0.197-0.215c-0.322-0.99-0.775-1.92-1.36-2.792
		c-0.036-0.083-0.03-0.185,0.018-0.304c0.06-0.107,0.149-0.197,0.268-0.269c0.131-0.072,0.25-0.089,0.358-0.054
		C71.01,0.462,71.1,0.528,71.171,0.611z"/>
	<path fill="#FFFFFF" d="M79.241,1.524c0.048-0.155,0.131-0.274,0.25-0.358c0.131-0.072,0.274-0.083,0.43-0.036
		c0.167,0.06,0.274,0.149,0.322,0.268c0.048,0.143,0.054,0.287,0.018,0.43L77.72,9.54c0.095-0.131,0.185-0.256,0.268-0.376
		c1.038-1.467,2.058-2.2,3.06-2.2c0.942,0,1.646,0.256,2.111,0.769c0.477,0.549,0.62,1.932,0.43,4.151
		c-0.155,1.933-0.03,3.102,0.375,3.507c0.382,0.418,0.883,0.633,1.503,0.645c1.801-0.012,2.779-2.528,2.935-7.551
		c0.036-0.358,0.221-0.537,0.555-0.537c0.358,0,0.53,0.179,0.519,0.537c-0.155,5.75-1.491,8.625-4.008,8.625
		c-0.954,0-1.735-0.304-2.344-0.912c-0.632-0.62-0.835-2.058-0.608-4.313c0.131-1.897,0.065-3.012-0.197-3.346
		c-0.298-0.346-0.722-0.513-1.271-0.501c-0.668,0-1.377,0.543-2.129,1.628c-1.146,1.611-2.296,3.872-3.454,6.782
		c-0.047,0.144-0.125,0.257-0.232,0.34C75.137,16.87,75,16.888,74.821,16.84c-0.167-0.06-0.286-0.148-0.358-0.268
		c-0.06-0.12-0.065-0.257-0.018-0.412l0.018-0.089L79.241,1.524z"/>
	<path fill="#FFFFFF" d="M98.421,7.446c0.513,0,0.954,0.179,1.324,0.537c0.405,0.406,0.608,0.865,0.608,1.378
		c0,0.537-0.179,0.973-0.537,1.306c-0.417,0.418-0.883,0.627-1.396,0.627c-0.561-0.012-1.02-0.203-1.377-0.574
		c-0.358-0.394-0.537-0.847-0.537-1.359c0.012-0.549,0.203-1.008,0.573-1.378C97.438,7.625,97.885,7.446,98.421,7.446z"/>
	<path fill="#FFFFFF" d="M115.24,4.708c3.232,4.533,6,8.094,8.303,10.682c0.131,0.167,0.196,0.292,0.196,0.376
		c0,0.19-0.06,0.34-0.179,0.447c-0.131,0.107-0.257,0.155-0.376,0.144c-0.143-0.024-0.292-0.114-0.447-0.269
		c-2.35-2.66-5.141-6.25-8.373-10.772c-0.274-0.489-0.608-0.739-1.002-0.751c-0.382-0.012-0.704,0.221-0.967,0.698
		c-1.431,2.553-2.762,4.777-3.989,6.674c-0.084,0.132-0.186,0.215-0.305,0.251c-0.155,0.035-0.292,0.012-0.411-0.072
		c-0.132-0.095-0.215-0.22-0.251-0.375c-0.023-0.132,0.006-0.257,0.09-0.376c1.156-1.682,2.475-3.889,3.954-6.621
		c0.465-0.823,1.062-1.235,1.789-1.235C114.036,3.51,114.692,3.91,115.24,4.708z M120.912,0.862
		c0.311-0.286,0.698-0.429,1.163-0.429c-0.012-0.012,0.006-0.012,0.054,0c0-0.012,0.006-0.018,0.019-0.018v0.018
		c0.429,0,0.829,0.143,1.198,0.429c0.37,0.322,0.555,0.733,0.555,1.234c0,0.513-0.203,0.931-0.608,1.253
		c-0.334,0.274-0.739,0.417-1.217,0.429c-0.441-0.024-0.811-0.167-1.109-0.429c-0.382-0.322-0.572-0.74-0.572-1.253
		C120.405,1.595,120.578,1.184,120.912,0.862z M121.432,2.776c0.167,0.155,0.382,0.239,0.644,0.25
		c0.311-0.024,0.561-0.107,0.752-0.25c0.215-0.167,0.322-0.394,0.322-0.68c-0.013-0.298-0.114-0.524-0.305-0.68
		c-0.238-0.167-0.489-0.244-0.751-0.232c-0.263,0-0.489,0.078-0.68,0.232c-0.18,0.167-0.269,0.394-0.269,0.68
		C121.146,2.395,121.24,2.622,121.432,2.776z"/>
	<path fill="#FFFFFF" d="M126.173,6.444c0.347-0.131,0.579-0.03,0.698,0.304c0.465,0.907,0.883,2.058,1.253,3.453
		c0.131,0.346,0.029,0.579-0.305,0.698c-0.334,0.107-0.561,0-0.68-0.322c-0.286-1.121-0.704-2.272-1.253-3.454
		C125.756,6.791,125.852,6.563,126.173,6.444z M135.942,6.641c0-0.167,0.042-0.292,0.125-0.376c0.107-0.083,0.251-0.125,0.43-0.125
		c0.167,0,0.292,0.054,0.376,0.161c0.083,0.107,0.131,0.256,0.143,0.447c0.251,6.657-3.119,9.99-10.108,10.002
		c-0.382,0-0.65-0.024-0.806-0.071c-0.131-0.048-0.196-0.161-0.196-0.341c-0.013-0.19,0.023-0.328,0.107-0.411
		c0.095-0.096,0.232-0.144,0.411-0.144C133.104,15.784,136.276,12.737,135.942,6.641z M130.234,6.051
		c0.347-0.119,0.579-0.012,0.698,0.322c0.501,0.99,0.918,2.135,1.253,3.436c0.119,0.334,0.012,0.561-0.322,0.68
		c-0.322,0.119-0.543,0.018-0.662-0.304c-0.299-1.205-0.716-2.35-1.253-3.436C129.817,6.403,129.913,6.17,130.234,6.051z"/>
	<path fill="#FFFFFF" d="M139.199,1.578c0.012-0.167,0.06-0.304,0.143-0.412c0.096-0.095,0.221-0.143,0.376-0.143
		c0.144,0,0.269,0.054,0.376,0.161c0.119,0.107,0.179,0.239,0.179,0.394v5.01c2.887,0.728,5.493,1.753,7.819,3.077
		c0.369,0.263,0.477,0.543,0.322,0.841c-0.168,0.287-0.4,0.341-0.698,0.161c-2.267-1.3-4.748-2.296-7.443-2.988v9.001
		c-0.012,0.154-0.06,0.292-0.143,0.411c-0.12,0.131-0.257,0.196-0.412,0.196c-0.179-0.012-0.311-0.077-0.394-0.196
		c-0.083-0.132-0.125-0.269-0.125-0.411V1.578z"/>
	<path fill="#FFFFFF" d="M154.658,8.09c0.119-0.06,0.238-0.083,0.357-0.072c0.144,0.036,0.257,0.114,0.34,0.233
		c0.072,0.119,0.102,0.25,0.09,0.394c-0.322,1.241-0.77,2.422-1.342,3.543c-0.585,1.169-1.324,2.368-2.219,3.596
		c-0.144,0.215-0.269,0.328-0.376,0.341c-0.131,0.035-0.257,0.018-0.376-0.054c-0.107-0.107-0.185-0.222-0.232-0.341
		c-0.06-0.179-0.029-0.34,0.09-0.482c0.931-1.348,1.67-2.564,2.219-3.65c0.536-0.966,0.936-2.022,1.198-3.167
		C154.432,8.287,154.515,8.174,154.658,8.09z M158.29,1.989c0.012-0.155,0.06-0.287,0.144-0.394
		c0.095-0.107,0.215-0.161,0.357-0.161c0.179,0.012,0.311,0.06,0.394,0.143c0.119,0.119,0.179,0.256,0.179,0.412v2.684h6.495
		c0.203,0,0.358,0.054,0.466,0.161c0.095,0.096,0.143,0.232,0.143,0.412c-0.012,0.155-0.06,0.274-0.143,0.358
		c-0.12,0.095-0.275,0.143-0.466,0.143h-6.495v11.362c-0.012,0.179-0.06,0.328-0.143,0.447c-0.107,0.132-0.239,0.197-0.394,0.197
		c-0.167,0-0.293-0.054-0.376-0.161c-0.107-0.107-0.161-0.269-0.161-0.483V5.747h-6.603c-0.19,0-0.328-0.054-0.411-0.161
		c-0.096-0.119-0.144-0.256-0.144-0.412c0-0.119,0.054-0.238,0.161-0.358c0.084-0.095,0.215-0.143,0.394-0.143h6.603V1.989z
		 M162.029,8.323c0.012-0.155,0.078-0.274,0.197-0.357c0.143-0.096,0.286-0.137,0.43-0.125c0.154,0.036,0.286,0.143,0.394,0.322
		c1.384,2.124,2.618,4.563,3.703,7.318c0.048,0.131,0.054,0.256,0.019,0.376c-0.024,0.143-0.114,0.256-0.269,0.34
		c-0.144,0.083-0.286,0.107-0.43,0.071c-0.131-0.036-0.232-0.167-0.304-0.394c-1.086-2.791-2.297-5.177-3.633-7.158
		C162.054,8.609,162.018,8.478,162.029,8.323z M165.77,3.743c0.023,0.131,0.012,0.256-0.036,0.375
		c-0.036,0.107-0.125,0.197-0.269,0.269c-0.131,0.06-0.257,0.065-0.376,0.018c-0.096-0.047-0.167-0.113-0.214-0.197
		c-0.358-1.002-0.83-1.932-1.414-2.791c-0.036-0.083-0.03-0.185,0.018-0.304c0.048-0.107,0.132-0.197,0.251-0.269
		c0.131-0.083,0.25-0.107,0.357-0.071s0.197,0.096,0.269,0.179C164.964,1.798,165.436,2.729,165.77,3.743z M166.432,0.54
		c0.572,0.847,1.02,1.778,1.342,2.792c0.023,0.131,0.012,0.256-0.036,0.375c-0.048,0.096-0.144,0.179-0.286,0.25
		c-0.132,0.06-0.257,0.066-0.376,0.018c-0.096-0.036-0.161-0.107-0.196-0.215c-0.322-0.99-0.776-1.92-1.36-2.791
		c-0.036-0.083-0.03-0.185,0.018-0.304c0.06-0.107,0.149-0.197,0.269-0.269c0.132-0.071,0.251-0.089,0.358-0.054
		C166.271,0.391,166.359,0.457,166.432,0.54z"/>
	<path fill="#FFFFFF" d="M169.545,1.578c0.012-0.167,0.06-0.304,0.143-0.412c0.096-0.095,0.221-0.143,0.376-0.143
		c0.144,0,0.269,0.054,0.376,0.161c0.119,0.107,0.179,0.239,0.179,0.394v5.01c2.887,0.728,5.493,1.753,7.819,3.077
		c0.369,0.263,0.477,0.543,0.322,0.841c-0.168,0.287-0.4,0.341-0.698,0.161c-2.267-1.3-4.748-2.296-7.443-2.988v9.001
		c-0.012,0.154-0.06,0.292-0.143,0.411c-0.12,0.131-0.257,0.196-0.412,0.196c-0.179-0.012-0.311-0.077-0.394-0.196
		c-0.083-0.132-0.125-0.269-0.125-0.411V1.578z"/>
	<path fill="#FFFFFF" d="M184.091,1.81c0.084-0.095,0.215-0.143,0.394-0.143c0.144,0,0.274,0.054,0.395,0.161
		c0.095,0.083,0.148,0.232,0.16,0.447c0.06,2.35,0,4.461-0.179,6.334c-0.143,1.348-0.436,2.654-0.877,3.919
		c-0.394,1.133-1.025,2.434-1.896,3.9c-0.107,0.179-0.232,0.286-0.375,0.322c-0.132,0.023-0.257,0.012-0.376-0.036
		c-0.132-0.083-0.215-0.185-0.251-0.304c-0.06-0.132-0.048-0.269,0.036-0.412c1.109-2.004,1.813-3.513,2.111-4.526
		c0.322-1.002,0.524-2.154,0.608-3.454c0.131-1.598,0.173-3.513,0.125-5.743C183.966,2.084,184.008,1.93,184.091,1.81z
		 M188.242,1.882c0-0.191,0.042-0.328,0.125-0.412c0.107-0.107,0.238-0.161,0.394-0.161c0.144,0,0.274,0.054,0.394,0.161
		c0.096,0.096,0.149,0.232,0.161,0.412v12.633c0,0.477,0.09,0.774,0.269,0.895c0.19,0.131,0.453,0.173,0.787,0.125
		c0.608-0.167,1.205-0.447,1.79-0.841c0.739-0.478,1.401-1.115,1.985-1.915c0.478-0.716,0.919-1.705,1.324-2.97
		c0.036-0.144,0.113-0.257,0.232-0.34c0.096-0.071,0.221-0.09,0.376-0.054c0.167,0.06,0.292,0.149,0.376,0.269
		c0.047,0.143,0.065,0.274,0.054,0.394c-0.418,1.384-0.931,2.511-1.539,3.382c-0.489,0.703-1.109,1.33-1.86,1.878
		c-0.896,0.668-1.808,1.092-2.738,1.271c-0.728,0.119-1.276,0.019-1.646-0.304c-0.322-0.322-0.483-0.919-0.483-1.789V1.882z"/>
</g>
<g>
</g>
</svg>
