<?xml version="1.0" encoding="utf-8"?>
<!-- Generator: Adobe Illustrator 15.1.0, SVG Export Plug-In . SVG Version: 6.00 Build 0)  -->
<!DOCTYPE svg PUBLIC "-//W3C//DTD SVG 1.1//EN" "http://www.w3.org/Graphics/SVG/1.1/DTD/svg11.dtd">
<svg version="1.1" id="レイヤー_1" xmlns="http://www.w3.org/2000/svg" xmlns:xlink="http://www.w3.org/1999/xlink" x="0px"
	 y="0px" width="200px" height="27px" viewBox="0 0 200 27" enable-background="new 0 0 200 27" xml:space="preserve">
<g>
	<path fill="#FFFFFF" d="M5.716,2.756c0.086-0.629,0.325-0.874,0.714-0.734c0.346,0.141,0.497,0.456,0.455,0.944
		c-0.173,1.12-0.368,2.239-0.584,3.357c1.125-0.21,1.84-0.315,2.143-0.315c0.996,0,1.796,0.49,2.403,1.469
		c0.736,1.259,1.104,3.462,1.104,6.609c0,2.798-0.217,5.211-0.65,7.238c-0.52,2.309-1.429,3.427-2.728,3.357
		c-0.52,0-1.104-0.21-1.754-0.629c-0.649-0.42-1.213-0.944-1.688-1.574c-0.217-0.278-0.26-0.593-0.13-0.944
		c0.086-0.278,0.26-0.349,0.52-0.21c1.082,0.98,2.035,1.505,2.857,1.574c0.736,0,1.321-0.698,1.754-2.099
		c0.432-1.397,0.649-3.566,0.649-6.504c0-2.728-0.195-4.511-0.584-5.351C9.765,8.037,9.18,7.582,8.444,7.582
		C7.708,7.652,6.907,7.828,6.041,8.106c-0.823,4.406-1.494,7.519-2.014,9.337c-0.563,2.239-1.169,4.301-1.818,6.189
		c-0.26,0.559-0.563,0.698-0.91,0.42c-0.303-0.42-0.368-0.908-0.195-1.469c0.692-1.748,1.342-3.741,1.949-5.98
		c0.606-2.237,1.212-4.965,1.818-8.183C3.919,8.562,2.945,8.701,1.949,8.84c-0.434,0-0.672-0.278-0.715-0.839
		c0-0.629,0.216-0.979,0.65-1.049c1.039-0.069,2.121-0.21,3.248-0.419C5.348,5.273,5.542,4.015,5.716,2.756z M12.082,4.225
		c0.216-0.279,0.476-0.279,0.779,0c0.779,1.329,1.494,3.078,2.143,5.246c0.476,1.749,0.757,3.498,0.845,5.246
		c0,0.699-0.195,1.085-0.584,1.153c-0.39,0.07-0.628-0.244-0.715-0.944c-0.087-1.468-0.347-3.147-0.779-5.035
		c-0.39-1.608-0.953-3.111-1.688-4.511C11.908,4.959,11.908,4.575,12.082,4.225z"/>
	<path fill="#FFFFFF" d="M23.448,2.756c0.172-0.419,0.432-0.559,0.779-0.419c0.346,0.28,0.455,0.7,0.325,1.259
		c-0.563,1.819-1.147,3.742-1.753,5.77c-0.52,1.539-1.062,3.322-1.624,5.351c0.866-1.328,1.645-2.309,2.338-2.938
		c0.562-0.559,1.125-0.839,1.689-0.839c0.692,0,1.234,0.351,1.624,1.049c0.346,0.629,0.52,1.505,0.52,2.623
		c0,0.98-0.108,2.554-0.325,4.721c-0.043,0.352-0.065,0.734-0.065,1.154c0,1.049,0.195,1.783,0.584,2.203
		c0.216,0.21,0.498,0.314,0.844,0.314c0.692,0,1.321-0.769,1.884-2.308c0.52-1.608,0.866-3.636,1.039-6.085
		c0.043-0.629,0.26-0.908,0.65-0.839c0.302,0.07,0.455,0.385,0.455,0.944c-0.087,1.888-0.325,3.707-0.715,5.455
		c-0.433,1.679-0.909,2.868-1.429,3.566c-0.563,0.698-1.213,1.05-1.949,1.05c-0.563,0-1.104-0.28-1.624-0.84
		c-0.563-0.839-0.844-1.923-0.844-3.252c0-0.42,0.021-0.874,0.065-1.364c0.172-1.957,0.26-3.32,0.26-4.091
		c0-1.679-0.412-2.518-1.234-2.518c-0.736,0-1.559,0.666-2.468,1.994c-0.823,1.119-1.624,2.832-2.403,5.14
		c-0.347,1.19-0.693,2.483-1.039,3.882c-0.174,0.698-0.477,0.944-0.91,0.734c-0.347-0.351-0.455-0.839-0.325-1.469l0.52-1.993
		c1.169-4.545,2.338-8.742,3.508-12.589C22.344,6.603,22.884,4.715,23.448,2.756z"/>
	<path fill="#FFFFFF" d="M42.998,11.673c0.39,0.63,0.584,1.364,0.584,2.203c0,0.84-0.195,1.574-0.584,2.203
		c-0.434,0.7-0.909,1.049-1.429,1.049c-0.52,0-0.997-0.349-1.429-1.049c-0.39-0.629-0.584-1.363-0.584-2.203
		c0-0.839,0.195-1.573,0.584-2.203c0.432-0.698,0.909-1.049,1.429-1.049C42.089,10.624,42.564,10.975,42.998,11.673z"/>
	<path fill="#FFFFFF" d="M61.054,2.861c0.433-0.349,0.757-0.21,0.975,0.419c0.39,1.259,0.714,2.239,0.974,2.938
		c0.562,1.539,1.32,3.252,2.273,5.141c0.216,0.419,0.367,0.734,0.455,0.944c0.13,0.561,0.065,1.015-0.195,1.364
		c-0.347,0.209-0.628,0.105-0.845-0.315c-0.563-1.188-1.321-3.147-2.273-5.875c0.346,1.82,0.562,3.218,0.649,4.196
		c0.13,1.12,0.195,2.345,0.195,3.672c0,3.567-0.584,6.189-1.754,7.868c-1.039,1.398-2.425,2.099-4.157,2.099
		c-1.818,0-3.183-0.734-4.092-2.203c-0.997-1.538-1.494-3.567-1.494-6.085c0-1.259,0.216-2.762,0.649-4.511
		c0.649-2.308,1.775-4.826,3.377-7.553c-0.867,0.28-1.754,0.524-2.663,0.734c-0.649,0.141-1.148,0.21-1.494,0.21
		c-0.39,0-0.585-0.315-0.585-0.944s0.195-0.944,0.585-0.944c0.735,0,1.385-0.034,1.948-0.105c0.952-0.139,1.754-0.314,2.403-0.524
		c0.39-0.139,0.671,0,0.844,0.419c0.216,0.49,0.216,0.98,0,1.469c-1.473,2.588-2.533,4.931-3.183,7.029
		c-0.477,1.749-0.714,3.393-0.714,4.931c0,1.819,0.39,3.356,1.169,4.616c0.822,1.259,1.905,1.888,3.248,1.888
		c1.602,0,2.835-0.769,3.702-2.308c0.736-1.538,1.104-3.602,1.104-6.189c0-2.238-0.109-4.126-0.325-5.666
		c-0.26-1.608-0.628-3.287-1.104-5.036C60.512,3.771,60.621,3.211,61.054,2.861z M62.938,2.231c0.172-0.14,0.346-0.069,0.52,0.209
		c0.476,0.771,0.931,1.749,1.364,2.938c0.13,0.42,0.086,0.771-0.13,1.049c-0.26,0.141-0.455,0.036-0.584-0.315
		c-0.26-0.769-0.672-1.783-1.234-3.042C62.743,2.721,62.764,2.441,62.938,2.231z M64.497,1.182c0.173-0.139,0.346-0.069,0.52,0.21
		c0.476,0.771,0.931,1.749,1.364,2.938c0.042,0.419,0,0.734-0.13,0.944c-0.217,0.21-0.412,0.141-0.584-0.209
		c-0.26-0.769-0.672-1.784-1.234-3.042C64.302,1.672,64.323,1.392,64.497,1.182z"/>
	<path fill="#FFFFFF" d="M73.33,2.756c0.172-0.419,0.432-0.559,0.779-0.419c0.346,0.28,0.455,0.7,0.325,1.259
		c-0.563,1.819-1.147,3.742-1.753,5.77c-0.52,1.539-1.062,3.322-1.624,5.351c0.866-1.328,1.645-2.309,2.338-2.938
		c0.562-0.559,1.125-0.839,1.689-0.839c0.692,0,1.234,0.351,1.624,1.049c0.346,0.629,0.52,1.505,0.52,2.623
		c0,0.98-0.108,2.554-0.325,4.721c-0.043,0.352-0.065,0.734-0.065,1.154c0,1.049,0.195,1.783,0.584,2.203
		c0.216,0.21,0.498,0.314,0.844,0.314c0.692,0,1.321-0.769,1.884-2.308c0.52-1.608,0.866-3.636,1.039-6.085
		c0.043-0.629,0.26-0.908,0.65-0.839c0.302,0.07,0.455,0.385,0.455,0.944c-0.087,1.888-0.325,3.707-0.715,5.455
		c-0.433,1.679-0.909,2.868-1.429,3.566c-0.563,0.698-1.213,1.05-1.949,1.05c-0.563,0-1.104-0.28-1.624-0.84
		c-0.563-0.839-0.844-1.923-0.844-3.252c0-0.42,0.021-0.874,0.065-1.364c0.172-1.957,0.26-3.32,0.26-4.091
		c0-1.679-0.412-2.518-1.234-2.518c-0.736,0-1.559,0.666-2.468,1.994c-0.823,1.119-1.624,2.832-2.403,5.14
		c-0.347,1.19-0.693,2.483-1.039,3.882c-0.174,0.698-0.477,0.944-0.91,0.734c-0.347-0.351-0.455-0.839-0.325-1.469l0.52-1.993
		c1.169-4.545,2.338-8.742,3.508-12.589C72.226,6.603,72.767,4.715,73.33,2.756z"/>
	<path fill="#FFFFFF" d="M92.88,11.673c0.39,0.63,0.584,1.364,0.584,2.203c0,0.84-0.195,1.574-0.584,2.203
		c-0.434,0.7-0.909,1.049-1.429,1.049c-0.52,0-0.997-0.349-1.429-1.049c-0.39-0.629-0.584-1.363-0.584-2.203
		c0-0.839,0.195-1.573,0.584-2.203c0.432-0.698,0.909-1.049,1.429-1.049C91.971,10.624,92.447,10.975,92.88,11.673z"/>
	<path fill="#FFFFFF" d="M106.455,4.854c0.563,0,1.125,0.7,1.688,2.098c1.169,2.659,2.425,5.246,3.768,7.764
		c1.082,2.029,2.144,3.917,3.183,5.665c0.26,0.629,0.26,1.153,0,1.573c-0.304,0.42-0.629,0.42-0.975,0
		c-0.736-1.328-1.711-3.182-2.923-5.561c-1.473-2.937-2.836-5.77-4.092-8.497c-0.174-0.349-0.347-0.524-0.52-0.524
		c-0.174,0-0.347,0.209-0.52,0.629c-0.737,2.449-1.364,4.337-1.884,5.665c-0.649,1.678-1.343,3.183-2.078,4.511
		c-0.348,0.49-0.672,0.524-0.975,0.104c-0.26-0.42-0.282-0.908-0.064-1.469c0.865-1.679,1.559-3.182,2.078-4.511
		c0.692-1.818,1.299-3.567,1.818-5.246C105.394,5.588,105.892,4.854,106.455,4.854z M114.444,8.316
		c-0.348,0.561-0.779,0.839-1.3,0.839c-0.52,0-0.952-0.279-1.299-0.839c-0.347-0.559-0.52-1.259-0.52-2.098s0.173-1.538,0.52-2.098
		c0.347-0.559,0.779-0.839,1.299-0.839c0.521,0,0.952,0.28,1.3,0.839c0.346,0.561,0.52,1.259,0.52,2.098S114.79,7.757,114.444,8.316
		z M114.119,4.644c-0.26-0.419-0.584-0.629-0.975-0.629c-0.39,0-0.714,0.21-0.974,0.629c-0.26,0.42-0.39,0.944-0.39,1.574
		s0.13,1.154,0.39,1.574s0.584,0.629,0.974,0.629c0.391,0,0.715-0.21,0.975-0.629s0.39-0.944,0.39-1.574
		S114.379,5.064,114.119,4.644z"/>
	<path fill="#FFFFFF" d="M119.77,9.995c0.303-0.14,0.541,0,0.715,0.419c0.52,1.4,0.952,3.042,1.299,4.931
		c0.087,0.63-0.022,1.049-0.324,1.259c-0.39,0.142-0.629-0.068-0.715-0.629c-0.26-1.398-0.649-3.006-1.169-4.826
		C119.445,10.66,119.51,10.275,119.77,9.995z M129.513,9.155c0.346,0.07,0.497,0.419,0.455,1.049
		c-0.391,5.176-1.257,8.848-2.599,11.015c-1.429,2.308-3.572,3.706-6.43,4.196c-0.348,0-0.542-0.21-0.585-0.629
		c-0.044-0.49,0.065-0.806,0.325-0.944c2.684-0.56,4.633-1.818,5.845-3.777c1.212-1.957,1.991-5.313,2.339-10.071
		C128.905,9.365,129.123,9.086,129.513,9.155z M123.473,8.945c0.26-0.139,0.476-0.034,0.649,0.315
		c0.779,1.678,1.32,3.393,1.623,5.14c0.087,0.63-0.021,1.05-0.324,1.259c-0.348,0.071-0.585-0.104-0.715-0.524
		c-0.39-1.888-0.866-3.601-1.429-5.14C123.147,9.506,123.213,9.155,123.473,8.945z"/>
	<path fill="#FFFFFF" d="M138.735,2.126c0.39,0,0.584,0.351,0.584,1.049V10.1c2.079,0.629,3.745,1.259,5.002,1.888
		c1.081,0.49,2.078,1.049,2.987,1.679c0.39,0.351,0.52,0.875,0.39,1.574c-0.174,0.561-0.477,0.734-0.909,0.524
		c-2.426-1.747-4.915-3.042-7.47-3.882v12.484c0,0.698-0.194,1.049-0.584,1.049s-0.585-0.351-0.585-1.049V3.175
		C138.15,2.477,138.346,2.126,138.735,2.126z"/>
	<path fill="#FFFFFF" d="M154.258,10.729c0.433,0.141,0.606,0.561,0.52,1.259c-0.606,3.847-1.516,7.309-2.728,10.386
		c-0.218,0.561-0.52,0.771-0.909,0.629c-0.26-0.278-0.325-0.698-0.195-1.259c1.169-3.286,2.014-6.678,2.533-10.176
		C153.608,10.938,153.868,10.66,154.258,10.729z M157.44,6.218V3.175c0-0.698,0.195-1.049,0.585-1.049s0.584,0.351,0.584,1.049
		v3.042h5.911c0.432,0,0.649,0.315,0.649,0.944s-0.218,0.944-0.649,0.944h-5.911v16.051c0,0.698-0.194,1.049-0.584,1.049
		s-0.585-0.351-0.585-1.049V8.106h-5.846c-0.433,0-0.649-0.314-0.649-0.944s0.217-0.944,0.649-0.944H157.44z M161.338,10.729
		c0.26-0.21,0.52-0.069,0.779,0.419c1.255,2.798,2.273,6.189,3.053,10.176c0.086,0.771-0.088,1.26-0.52,1.469
		c-0.434,0.142-0.737-0.139-0.909-0.839c-0.737-3.986-1.603-7.378-2.599-10.176C161.013,11.29,161.078,10.938,161.338,10.729z
		 M161.662,2.126c-0.087-0.279-0.064-0.559,0.065-0.839c0.216-0.139,0.39-0.105,0.52,0.105c0.433,0.839,0.822,1.854,1.169,3.042
		c0.13,0.419,0.086,0.77-0.13,1.049c-0.26,0.141-0.455,0-0.585-0.419C162.441,4.156,162.095,3.175,161.662,2.126z M163.481,1.707
		c-0.088-0.349-0.065-0.593,0.064-0.734c0.216-0.209,0.411-0.173,0.585,0.105c0.476,1.049,0.844,2.029,1.104,2.938
		c0.13,0.42,0.087,0.771-0.13,1.049c-0.26,0.141-0.454,0-0.584-0.42C164.217,3.666,163.871,2.687,163.481,1.707z"/>
	<path fill="#FFFFFF" d="M171.989,2.126c0.39,0,0.584,0.351,0.584,1.049V10.1c2.079,0.629,3.745,1.259,5.002,1.888
		c1.081,0.49,2.078,1.049,2.987,1.679c0.39,0.351,0.52,0.875,0.39,1.574c-0.174,0.561-0.477,0.734-0.909,0.524
		c-2.426-1.747-4.915-3.042-7.47-3.882v12.484c0,0.698-0.194,1.049-0.584,1.049s-0.585-0.351-0.585-1.049V3.175
		C171.404,2.477,171.6,2.126,171.989,2.126z"/>
	<path fill="#FFFFFF" d="M187.447,3.91c0.39,0,0.584,0.315,0.584,0.944v5.98c0,5.455-1.083,9.932-3.247,13.428
		c-0.218,0.35-0.478,0.384-0.779,0.105c-0.218-0.42-0.218-0.84,0-1.259c1.904-3.287,2.857-7.344,2.857-12.17V4.854
		C186.862,4.225,187.058,3.91,187.447,3.91z M191.149,4.33c0-0.698,0.194-1.049,0.584-1.049s0.585,0.351,0.585,1.049v16.786
		c0,0.771,0.237,1.153,0.714,1.153c0.692,0,1.516-0.769,2.469-2.308c1.039-1.679,1.774-3.846,2.208-6.504
		c0.087-0.488,0.303-0.698,0.649-0.629c0.347,0.141,0.477,0.524,0.39,1.154c-0.433,2.938-1.277,5.421-2.533,7.449
		c-1.299,2.098-2.532,3.147-3.702,3.147c-0.909,0-1.363-0.84-1.363-2.519V4.33z"/>
</g>
</svg>
