<?xml version="1.0" encoding="utf-8"?>
<!-- Generator: Adobe Illustrator 15.1.0, SVG Export Plug-In . SVG Version: 6.00 Build 0)  -->
<!DOCTYPE svg PUBLIC "-//W3C//DTD SVG 1.1//EN" "http://www.w3.org/Graphics/SVG/1.1/DTD/svg11.dtd">
<svg version="1.1" id="レイヤー_1" xmlns="http://www.w3.org/2000/svg" xmlns:xlink="http://www.w3.org/1999/xlink" x="0px"
	 y="0px" width="200px" height="27px" viewBox="0 0 200 27" enable-background="new 0 0 200 27" xml:space="preserve">
<g>
	<path fill="#FFFFFF" d="M1.279,7.101c0.272,0,0.443,0.137,0.512,0.41c0.341,1.434,0.545,3.005,0.614,4.71
		c0,0.957-0.035,1.741-0.103,2.355c-0.069,0.547-0.342,0.819-0.819,0.819c-0.41-0.067-0.614-0.375-0.614-0.922
		c0.067-0.75,0.103-1.501,0.103-2.253c-0.069-1.706-0.138-3.242-0.205-4.608C0.767,7.34,0.937,7.169,1.279,7.101z M4.556,2.902
		c0.477,0,0.717,0.273,0.717,0.819v5.939c0.682-0.682,1.229-1.467,1.639-2.355c0.205-0.614,0.546-0.886,1.024-0.819
		c0.477,0.138,0.648,0.512,0.512,1.126C7.9,9.046,6.842,10.173,5.272,10.992c0,1.503-0.102,3.62-0.307,6.349
		c1.091,1.162,2.253,2.663,3.482,4.506c0.136-0.271,0.238-0.647,0.307-1.126c0-0.477,0.17-0.717,0.512-0.717
		c0.41,0,0.614,0.273,0.614,0.819c0,1.776-0.683,3.413-2.048,4.915c-0.547,0.41-0.991,0.41-1.332,0
		c-0.273-0.342-0.205-0.752,0.205-1.229c0.341-0.343,0.614-0.684,0.819-1.024c-0.888-1.774-1.81-3.276-2.765-4.506
		c-0.479,2.253-1.162,4.132-2.048,5.633c-0.342,0.682-0.786,0.887-1.331,0.614c-0.343-0.343-0.308-0.854,0.102-1.536
		c0.615-1.091,1.16-2.561,1.639-4.403c0.477-2.185,0.717-4.403,0.717-6.657V3.721C3.839,3.175,4.077,2.902,4.556,2.902z
		 M10.291,2.492c0.477,0,0.717,0.24,0.717,0.717c0,0.205,0,0.479,0,0.819h2.663c0.41,0,0.784,0.171,1.126,0.512
		c0.341,0.343,0.512,0.717,0.512,1.126l-0.205,1.639h2.97V3.516c0-0.545,0.238-0.819,0.717-0.819c0.477,0,0.717,0.274,0.717,0.819
		v3.789h3.994c0.477,0,0.717,0.205,0.717,0.614c0,0.41-0.24,0.615-0.717,0.615H19.61c0.545,3.346,1.979,6.247,4.301,8.704
		c0.75,0.753,0.853,1.367,0.308,1.844c-0.479,0.41-1.024,0.273-1.639-0.409c-1.502-1.911-2.698-4.267-3.584-7.066
		c-0.957,3.072-2.458,5.632-4.506,7.681c-0.479,0.547-0.921,0.614-1.331,0.205c-0.343-0.341-0.274-0.751,0.205-1.229
		c2.799-3.072,4.335-6.314,4.608-9.729h-3.072c-0.342,2.048-0.99,3.96-1.946,5.734c-0.957,1.776-2.219,3.38-3.789,4.813
		c-0.41,0.273-0.752,0.273-1.024,0c-0.205-0.271-0.138-0.579,0.205-0.922c1.229-1.229,2.287-2.56,3.175-3.993l-2.253-2.151
		c-0.274,0.683-0.547,1.264-0.819,1.741c-0.273,0.547-0.614,0.717-1.024,0.512c-0.343-0.204-0.343-0.614,0-1.229
		c1.501-3.549,2.218-6.759,2.15-9.626C9.574,2.799,9.812,2.492,10.291,2.492z M9.676,10.89l2.458,2.048
		c0.272-0.614,0.546-1.365,0.819-2.253l-2.663-1.843L9.676,10.89z M10.598,7.408l2.765,1.843c0.272-1.229,0.443-2.32,0.512-3.277
		c0-0.477-0.171-0.717-0.512-0.717h-2.458L10.598,7.408z M12.749,20.209c0.41-0.067,0.682,0.204,0.819,0.819
		c0.205,1.229,0.238,2.492,0.102,3.789c-0.069,0.682-0.376,0.988-0.921,0.921c-0.479,0-0.684-0.342-0.615-1.023
		c0.136-1.16,0.17-2.39,0.103-3.687C12.236,20.551,12.406,20.277,12.749,20.209z M16.128,20.106
		c0.341-0.137,0.648,0.035,0.921,0.512c0.615,1.366,1.058,2.561,1.332,3.584c0.205,0.887-0.035,1.365-0.717,1.434
		c-0.547,0-0.854-0.273-0.922-0.818c-0.138-1.094-0.41-2.32-0.819-3.688C15.718,20.585,15.786,20.244,16.128,20.106z M20.327,20.413
		c0.272-0.271,0.648-0.204,1.126,0.205c1.229,1.162,2.048,2.424,2.458,3.789c0.272,0.819,0.136,1.296-0.41,1.434
		c-0.547,0.136-0.957-0.138-1.229-0.819c-0.479-1.364-1.093-2.524-1.844-3.481C20.086,20.994,20.053,20.618,20.327,20.413z
		 M20.736,3.414c0.272-0.205,0.579-0.169,0.921,0.103c0.615,0.614,1.058,1.298,1.332,2.048c0.205,0.614,0.067,0.99-0.41,1.126
		c-0.41,0.069-0.683-0.067-0.819-0.41c-0.273-0.682-0.614-1.365-1.024-2.048C20.531,3.892,20.531,3.619,20.736,3.414z"/>
	<path fill="#FFFFFF" d="M49.513,3.414c0-0.614,0.272-0.921,0.819-0.921c0.545,0,0.819,0.307,0.819,0.921
		c0,0.41-0.036,1.264-0.103,2.561c2.594,0,4.608,0.717,6.042,2.15c1.365,1.367,2.048,3.379,2.048,6.042
		c0,1.843-0.581,3.414-1.741,4.71c-1.229,1.162-2.56,1.741-3.994,1.741c-0.888,0-1.741-0.17-2.561-0.512
		c-0.957-0.41-1.912-1.024-2.867-1.844c-0.342-0.341-0.41-0.717-0.205-1.126c0.341-0.341,0.682-0.41,1.024-0.205
		c1.706,1.366,3.174,2.015,4.403,1.945c0.956,0,1.808-0.307,2.56-0.921c0.682-0.615,1.16-1.501,1.434-2.663
		c0.205-1.091,0.205-2.115,0-3.072c-0.205-1.296-0.717-2.32-1.536-3.072c-1.229-1.091-2.765-1.638-4.608-1.638
		c0,0.547-0.035,1.162-0.103,1.843c-0.069,0.888-0.205,1.707-0.41,2.458c-0.273,1.024-0.683,1.81-1.229,2.356
		c-0.273,0.273-0.614,0.342-1.024,0.204c-0.342-0.341-0.376-0.717-0.103-1.126c0.615-1.024,0.989-2.184,1.126-3.481
		c0.067-0.682,0.103-1.365,0.103-2.048c-0.957,0.205-1.843,0.479-2.663,0.819c-1.776,0.683-3.62,1.469-5.53,2.355
		c0.955,2.663,1.808,4.882,2.56,6.656c0.75,1.707,1.877,4.029,3.379,6.964c0.272,0.614,0.169,1.091-0.307,1.434
		c-0.615,0.272-1.093,0.136-1.434-0.409c-2.253-4.711-4.166-9.354-5.735-13.928c-0.957,0.479-1.843,0.921-2.663,1.331
		c-0.547,0.274-0.991,0.138-1.332-0.41c-0.138-0.545,0.034-0.955,0.512-1.229c0.819-0.341,1.808-0.784,2.97-1.332
		c-0.479-1.501-0.99-3.003-1.536-4.506c-0.138-0.614,0.067-1.024,0.614-1.229c0.546-0.136,0.922,0.069,1.127,0.615
		c0.477,1.638,0.921,3.107,1.331,4.403c2.115-0.819,3.958-1.536,5.53-2.15c1.16-0.41,2.218-0.717,3.175-0.922
		C49.478,4.814,49.513,3.892,49.513,3.414z"/>
	<path fill="#FFFFFF" d="M89.759,9.968v2.458c0,2.662-0.307,4.37-0.922,5.12c-0.614,0.752-1.4,1.127-2.355,1.127
		c-1.434,0-3.005-0.443-4.71-1.332c-0.479-0.341-0.581-0.75-0.307-1.229c0.205-0.341,0.545-0.409,1.024-0.205
		c0.819,0.343,1.467,0.581,1.946,0.717c0.477,0.138,1.024,0.205,1.639,0.205c0.75,0,1.229-0.238,1.434-0.717
		c0.272-0.614,0.41-1.604,0.41-2.97V10.07L76.548,10.89v7.168c0,1.981,0.374,3.38,1.126,4.199c0.75,0.819,1.979,1.229,3.687,1.229
		c2.253,0,4.506-0.103,6.759-0.307c0.887-0.067,1.877-0.205,2.97-0.41c0.682,0,1.058,0.308,1.126,0.922
		c0,0.546-0.307,0.887-0.921,1.024c-1.981,0.204-3.994,0.341-6.042,0.409h-3.892c-2.527,0-4.268-0.614-5.223-1.843
		c-0.957-1.092-1.434-2.971-1.434-5.633v-6.657l-3.379,0.205c-0.478,0-0.752-0.238-0.819-0.717c0-0.546,0.272-0.853,0.819-0.922
		l3.379-0.205V5.257c0-0.682,0.308-1.024,0.922-1.024s0.922,0.342,0.922,1.024v3.994l11.367-0.819V3.926
		c0-0.682,0.307-1.024,0.921-1.024c0.615,0,0.922,0.342,0.922,1.024v4.403l3.482-0.205c0.682-0.067,1.024,0.205,1.024,0.819
		c0,0.479-0.342,0.752-1.024,0.819L89.759,9.968z"/>
	<path fill="#FFFFFF" d="M124.885,4.438c0.136,0.547,0,1.059-0.41,1.536c-0.479,0.478-1.195,1.024-2.15,1.638
		c-1.298,0.819-2.526,1.639-3.687,2.458l-3.584,2.458c2.184-0.614,3.993-0.921,5.427-0.921c2.799,0,4.983,0.752,6.555,2.253
		c1.091,1.093,1.639,2.596,1.639,4.506c0,2.117-1.024,3.857-3.072,5.223c-2.049,1.296-4.473,1.946-7.271,1.946
		c-3.346,0-5.77-0.717-7.271-2.151c-0.752-0.886-1.127-1.74-1.127-2.56c0-0.751,0.238-1.398,0.717-1.946
		c0.819-0.886,2.014-1.331,3.585-1.331c1.569,0,3.105,0.581,4.608,1.741c1.16,0.957,2.15,2.288,2.97,3.994
		c1.229-0.205,2.389-0.784,3.481-1.741c0.955-0.887,1.434-1.979,1.434-3.277c0-1.434-0.444-2.594-1.331-3.481
		c-1.229-1.16-2.937-1.741-5.12-1.741c-2.117,0-3.994,0.307-5.633,0.922c-2.117,0.819-4.37,2.083-6.759,3.789
		c-0.547,0.273-1.024,0.171-1.434-0.308c-0.205-0.546-0.103-0.988,0.307-1.331c4.916-2.935,10.274-6.621,16.078-11.06l-2.97,0.205
		l-4.096,0.308l-3.175,0.205l-2.867,0.205c-0.684,0.069-1.024-0.239-1.024-0.922c0-0.614,0.308-0.922,0.922-0.922
		c4.847-0.205,9.421-0.443,13.723-0.717C124.099,3.482,124.61,3.823,124.885,4.438z M111.571,20.618
		c0,0.957,0.579,1.776,1.741,2.458c1.091,0.614,2.561,0.922,4.403,0.922c0.614,0,1.092-0.035,1.434-0.103
		c0.341-0.069,0.579-0.138,0.717-0.205c-0.409-1.024-1.059-2.013-1.945-2.97c-1.298-1.16-2.596-1.741-3.892-1.741
		C112.458,18.979,111.639,19.527,111.571,20.618z"/>
	<path fill="#FFFFFF" d="M145.879,13.347c0.409,0.342,0.477,0.717,0.205,1.126c-1.162,1.776-1.741,3.175-1.741,4.199
		c0,1.434,0.648,2.526,1.945,3.276c1.365,0.684,3.618,1.024,6.76,1.024c2.798,0,5.666-0.341,8.602-1.024
		c0.682-0.136,1.127,0.103,1.331,0.717c0.137,0.684-0.204,1.127-1.023,1.332c-2.458,0.477-5.428,0.717-8.909,0.717
		c-4.234,0-7.066-0.581-8.5-1.741c-1.367-1.16-2.049-2.525-2.049-4.097c0-1.569,0.682-3.344,2.049-5.325
		C144.889,13.143,145.332,13.075,145.879,13.347z M159.09,5.155c0.614,0.138,0.886,0.512,0.819,1.126
		c-0.138,0.547-0.513,0.786-1.127,0.717c-1.366-0.272-3.039-0.41-5.018-0.41c-3.347,0-6.487,0.273-9.422,0.819
		c-0.547,0.069-0.888-0.17-1.024-0.717c0-0.477,0.238-0.784,0.717-0.922c3.413-0.682,6.69-1.024,9.831-1.024
		C155.982,4.745,157.723,4.883,159.09,5.155z M159.499,2.697c0.341-0.136,0.648-0.067,0.922,0.205
		c0.75,0.888,1.434,1.878,2.048,2.97c0.205,0.479,0.103,0.819-0.307,1.024c-0.41,0.138-0.718,0.035-0.922-0.307
		c-0.479-0.886-1.127-1.877-1.946-2.97C159.09,3.278,159.156,2.971,159.499,2.697z M161.957,1.775
		c0.341-0.136,0.647-0.067,0.922,0.205c0.75,0.888,1.434,1.878,2.048,2.97c0.136,0.479,0.033,0.819-0.308,1.024
		c-0.409,0.137-0.717,0.035-0.921-0.308c-0.479-0.886-1.127-1.877-1.946-2.97C161.547,2.287,161.614,1.98,161.957,1.775z"/>
	<path fill="#FFFFFF" d="M184.692,3.516c0.546-0.067,0.988-0.067,1.331,0c0.614,0.205,1.024,0.581,1.229,1.126
		c0.137,0.273,0.205,0.683,0.205,1.229c-0.068,0.957-0.376,2.526-0.922,4.71l-0.512,1.639c2.32,0.342,4.778,1.06,7.373,2.15
		c0.205-2.525,0.308-4.539,0.308-6.042c0-0.682,0.308-1.024,0.922-1.024s0.922,0.342,0.922,1.024c0,1.981-0.138,4.234-0.41,6.759
		c1.774,0.819,2.935,1.434,3.482,1.844c0.409,0.409,0.512,0.888,0.307,1.434c-0.409,0.479-0.957,0.512-1.639,0.103
		c-0.752-0.477-1.536-0.955-2.355-1.434c-0.342,2.867-1.161,4.915-2.457,6.145c-1.229,1.16-3.142,2.15-5.735,2.97
		c-0.479,0.067-0.785-0.103-0.922-0.513c-0.138-0.409,0.034-0.717,0.513-0.921c2.184-0.684,3.822-1.57,4.915-2.663
		c1.092-1.16,1.741-3.072,1.946-5.734c-2.322-1.229-4.849-2.115-7.578-2.663c-0.684,2.049-1.367,3.789-2.049,5.223
		c-0.819,1.708-1.674,3.039-2.56,3.994c-0.752,0.684-1.571,1.024-2.458,1.024c-1.024,0-1.81-0.375-2.355-1.127
		c-0.547-0.75-0.819-1.705-0.819-2.867c0-1.639,0.648-3.242,1.946-4.813c1.569-1.706,3.925-2.696,7.065-2.97
		c0.819-3.072,1.229-5.051,1.229-5.939c0-0.477-0.103-0.784-0.308-0.922c-0.205-0.136-0.581-0.136-1.126,0
		c-1.024,0.205-3.006,0.445-5.94,0.717c-0.547,0-0.888-0.272-1.023-0.819c0-0.615,0.307-0.956,0.921-1.024l1.946-0.102l2.253-0.205
		L184.692,3.516z M178.753,15.703c-1.229,1.434-1.844,2.833-1.844,4.198c0.067,1.639,0.579,2.458,1.536,2.458
		c0.887,0.068,1.809-0.682,2.765-2.253c0.546-1.024,1.024-1.979,1.435-2.868c0.477-1.159,0.886-2.389,1.229-3.686
		C181.62,13.757,179.913,14.474,178.753,15.703z"/>
</g>
</svg>
