<?xml version="1.0" encoding="utf-8"?>
<!-- Generator: Adobe Illustrator 15.1.0, SVG Export Plug-In . SVG Version: 6.00 Build 0)  -->
<!DOCTYPE svg PUBLIC "-//W3C//DTD SVG 1.1//EN" "http://www.w3.org/Graphics/SVG/1.1/DTD/svg11.dtd">
<svg version="1.1" id="レイヤー_3" xmlns="http://www.w3.org/2000/svg" xmlns:xlink="http://www.w3.org/1999/xlink" x="0px"
	 y="0px" width="200px" height="20px" viewBox="0 0 200 20" enable-background="new 0 0 200 20" xml:space="preserve">
<g>
	<path fill="#FFFFFF" d="M7.866,5.318c0.066-0.111,0.166-0.183,0.299-0.216c0.144-0.022,0.271,0,0.382,0.066
		c0.122,0.089,0.188,0.205,0.2,0.349C8.813,5.95,8.902,6.732,9.013,7.863c0.111,1.087,0.172,2.063,0.183,2.928
		c-0.011,0.167-0.056,0.3-0.133,0.399c-0.089,0.089-0.205,0.133-0.349,0.133c-0.144-0.011-0.255-0.055-0.333-0.133
		c-0.1-0.089-0.15-0.216-0.15-0.383c0-0.865-0.056-1.835-0.167-2.911C7.954,6.776,7.866,6.05,7.799,5.717
		C7.776,5.562,7.799,5.429,7.866,5.318z M9.978,3.056c0.089-0.088,0.205-0.133,0.35-0.133c0.144,0.011,0.255,0.056,0.333,0.133
		c0.111,0.089,0.167,0.222,0.167,0.399v3.493c0.477-0.732,0.837-1.431,1.081-2.096c0.066-0.167,0.155-0.272,0.266-0.316
		c0.122-0.044,0.25-0.044,0.383,0c0.144,0.067,0.238,0.156,0.283,0.266c0.033,0.133,0.027,0.272-0.017,0.416
		c-0.377,0.998-0.965,2.052-1.763,3.161c-0.078,0.1-0.156,0.172-0.233,0.216v0.582c-0.011,0.632-0.033,1.198-0.067,1.697
		c-0.022,0.333-0.056,0.688-0.1,1.065c0.721,1.253,1.303,2.328,1.747,3.227c0.066,0.122,0.078,0.238,0.033,0.35
		c-0.033,0.144-0.116,0.238-0.25,0.282c-0.155,0.066-0.283,0.078-0.382,0.033c-0.111-0.033-0.206-0.139-0.283-0.315
		c-0.289-0.654-0.638-1.387-1.048-2.196c-0.066,0.277-0.122,0.555-0.166,0.832c-0.123,0.51-0.239,0.954-0.35,1.331
		c-0.133,0.41-0.272,0.771-0.416,1.081c-0.166,0.344-0.322,0.621-0.465,0.831c-0.167,0.223-0.289,0.399-0.366,0.533
		c-0.133,0.133-0.255,0.205-0.366,0.216c-0.123,0.011-0.239-0.022-0.35-0.1c-0.122-0.1-0.188-0.205-0.2-0.316
		c-0.022-0.166,0.022-0.305,0.133-0.416c0.1-0.133,0.216-0.288,0.349-0.466c0.144-0.222,0.283-0.487,0.416-0.798
		c0.122-0.3,0.25-0.638,0.383-1.015c0.122-0.389,0.238-0.854,0.349-1.397c0.122-0.499,0.205-0.987,0.25-1.464
		c0.066-0.477,0.105-0.987,0.116-1.531c0.034-0.432,0.05-0.92,0.05-1.464V3.455C9.856,3.289,9.9,3.156,9.978,3.056z M23.037,6.083
		c0.11,0.089,0.166,0.205,0.166,0.349c-0.011,0.167-0.056,0.289-0.133,0.366c-0.111,0.1-0.233,0.149-0.366,0.149h-2.429
		c0.177,1.031,0.455,1.936,0.832,2.711c0.443,0.921,1.07,1.819,1.879,2.695c0.111,0.122,0.167,0.256,0.167,0.399
		c-0.022,0.122-0.072,0.232-0.15,0.333c-0.122,0.1-0.238,0.144-0.349,0.133c-0.144-0.011-0.272-0.072-0.383-0.183
		c-0.854-0.932-1.502-1.869-1.946-2.812c-0.233-0.477-0.433-0.981-0.599-1.514c-0.1,0.333-0.216,0.671-0.349,1.015
		c-0.189,0.465-0.383,0.871-0.583,1.214c-0.2,0.366-0.421,0.688-0.665,0.964c-0.255,0.3-0.505,0.549-0.749,0.749
		c-0.266,0.199-0.471,0.354-0.615,0.466c-0.144,0.122-0.272,0.178-0.383,0.166c-0.122,0-0.233-0.056-0.333-0.166
		c-0.089-0.1-0.139-0.217-0.15-0.35c0-0.166,0.072-0.288,0.216-0.366c0.167-0.11,0.355-0.255,0.566-0.432
		c0.244-0.188,0.471-0.422,0.682-0.699c0.2-0.243,0.399-0.538,0.599-0.882c0.222-0.343,0.421-0.754,0.599-1.231
		c0.188-0.443,0.322-0.87,0.399-1.281c0.055-0.311,0.105-0.621,0.15-0.932h-1.664c-0.044,0-0.072,0-0.083,0
		c-0.066,0.277-0.133,0.555-0.199,0.832c-0.178,0.599-0.405,1.147-0.682,1.646c-0.322,0.599-0.688,1.115-1.098,1.547
		c-0.41,0.421-0.798,0.771-1.164,1.048c-0.389,0.299-0.865,0.582-1.431,0.848c-0.145,0.066-0.283,0.078-0.416,0.033
		c-0.133-0.055-0.222-0.139-0.266-0.249c-0.066-0.145-0.078-0.271-0.033-0.383c0.055-0.122,0.155-0.216,0.299-0.282
		c0.455-0.211,0.871-0.455,1.248-0.732c0.399-0.299,0.754-0.604,1.064-0.915c0.144-0.155,0.283-0.321,0.416-0.499
		c-0.333-0.266-0.721-0.532-1.165-0.798c-0.455-0.289-0.771-0.482-0.948-0.583c-0.156,0.2-0.305,0.389-0.449,0.566
		c-0.111,0.122-0.233,0.188-0.366,0.2c-0.133-0.011-0.25-0.056-0.349-0.133c-0.111-0.1-0.167-0.216-0.167-0.349
		c0-0.133,0.055-0.255,0.167-0.366c0.443-0.466,0.787-0.954,1.031-1.464c0.255-0.565,0.471-1.397,0.649-2.495
		c0.11-0.466,0.271-0.798,0.482-0.998c0.177-0.167,0.449-0.25,0.815-0.25h1.763c0.388-0.011,0.688,0.122,0.898,0.399
		c0.188,0.277,0.283,0.571,0.283,0.882s-0.056,0.788-0.167,1.431c-0.011,0.022-0.017,0.05-0.017,0.083h1.63
		c0.022-0.233,0.033-0.471,0.033-0.715V3.389c0.011-0.167,0.055-0.3,0.133-0.399c0.088-0.089,0.205-0.133,0.349-0.133
		c0.144,0.011,0.255,0.056,0.333,0.133c0.111,0.089,0.167,0.222,0.167,0.399v1.863c-0.011,0.244-0.022,0.482-0.033,0.715h2.528
		C22.814,5.967,22.925,6.006,23.037,6.083z M13.438,14.035c0.111-0.056,0.238-0.078,0.383-0.067
		c0.133,0.022,0.238,0.084,0.316,0.184c0.066,0.122,0.083,0.266,0.05,0.433c-0.155,0.776-0.349,1.414-0.582,1.913
		c-0.233,0.554-0.488,1.003-0.765,1.347c-0.1,0.134-0.222,0.217-0.366,0.25c-0.122,0-0.238-0.039-0.349-0.116
		c-0.111-0.101-0.172-0.206-0.183-0.316c-0.022-0.155,0.017-0.288,0.117-0.399c0.31-0.443,0.554-0.87,0.732-1.28
		c0.222-0.478,0.371-1.004,0.449-1.581C13.261,14.234,13.327,14.112,13.438,14.035z M16.216,7.63V7.614
		c-0.033-0.033-0.067-0.055-0.1-0.066c-0.366-0.277-0.798-0.566-1.297-0.865c-0.344-0.2-0.604-0.349-0.782-0.449
		c-0.1,0.344-0.206,0.666-0.316,0.965c-0.078,0.167-0.156,0.322-0.233,0.466c0.222,0.111,0.554,0.305,0.998,0.583
		c0.432,0.277,0.815,0.538,1.147,0.782C15.855,8.595,16.05,8.129,16.216,7.63z M16.749,4.902c-0.011-0.233-0.056-0.416-0.133-0.549
		c-0.078-0.133-0.25-0.2-0.516-0.2h-0.865c-0.277,0-0.488,0.05-0.632,0.149c-0.144,0.111-0.239,0.289-0.283,0.533
		c-0.033,0.133-0.056,0.271-0.066,0.416c0.222,0.122,0.582,0.333,1.081,0.632c0.421,0.255,0.798,0.499,1.131,0.732
		c0.033-0.177,0.072-0.35,0.116-0.516C16.693,5.612,16.749,5.213,16.749,4.902z M16.05,14.284c0.089-0.1,0.2-0.149,0.333-0.149
		c0.144,0.011,0.266,0.056,0.366,0.133c0.1,0.111,0.144,0.238,0.133,0.383c-0.022,0.255-0.055,0.688-0.1,1.298
		c-0.056,0.599-0.122,1.131-0.2,1.597c-0.033,0.155-0.105,0.271-0.216,0.349c-0.1,0.078-0.222,0.101-0.366,0.067
		c-0.133-0.022-0.233-0.084-0.299-0.184c-0.078-0.133-0.1-0.271-0.067-0.416c0.089-0.443,0.155-0.953,0.2-1.53
		c0.056-0.599,0.083-0.986,0.083-1.164C15.928,14.512,15.972,14.384,16.05,14.284z M18.562,14.251c0.067-0.11,0.167-0.183,0.3-0.216
		c0.144-0.045,0.271-0.028,0.382,0.05c0.111,0.077,0.183,0.188,0.216,0.332c0.044,0.256,0.116,0.705,0.216,1.348
		c0.1,0.61,0.155,1.165,0.167,1.664c-0.011,0.166-0.056,0.299-0.133,0.398c-0.078,0.089-0.188,0.139-0.333,0.15
		c-0.133,0-0.25-0.039-0.35-0.117c-0.1-0.089-0.149-0.216-0.149-0.382c-0.034-0.478-0.089-1.021-0.167-1.631
		c-0.089-0.621-0.15-1.02-0.183-1.197C18.506,14.495,18.517,14.362,18.562,14.251z M21.107,14.601
		c-0.078-0.145-0.1-0.283-0.067-0.416c0.056-0.122,0.139-0.217,0.25-0.283c0.144-0.077,0.272-0.094,0.383-0.05
		c0.133,0.056,0.238,0.15,0.316,0.283c0.477,0.876,0.871,1.946,1.181,3.21c0.044,0.167,0.033,0.306-0.033,0.416
		c-0.066,0.122-0.167,0.205-0.299,0.25c-0.145,0.033-0.272,0.017-0.383-0.05c-0.111-0.067-0.188-0.189-0.233-0.366
		C21.944,16.43,21.573,15.432,21.107,14.601z M21.057,3.505c-0.011-0.111,0.033-0.222,0.133-0.333
		c0.1-0.089,0.205-0.133,0.316-0.133c0.133,0,0.255,0.05,0.366,0.15c0.377,0.344,0.737,0.788,1.081,1.331
		c0.067,0.133,0.094,0.255,0.083,0.366c-0.022,0.133-0.089,0.238-0.2,0.316c-0.122,0.056-0.239,0.078-0.35,0.066
		c-0.133-0.033-0.238-0.116-0.316-0.25c-0.311-0.477-0.621-0.865-0.932-1.164C21.118,3.754,21.057,3.638,21.057,3.505z"/>
	<path fill="#FFFFFF" d="M51.549,9.793c-0.111,0.366-0.322,0.527-0.632,0.482c-0.344-0.066-0.466-0.271-0.366-0.616
		c0.288-0.92,0.504-1.968,0.648-3.144c-1.397,0.355-2.867,0.971-4.408,1.847c0.61,1.619,1.082,2.928,1.414,3.926
		c0.632,1.896,1.087,3.615,1.364,5.157c0.066,0.398-0.05,0.632-0.35,0.698c-0.333,0.077-0.532-0.072-0.599-0.449
		c-0.388-1.797-0.871-3.543-1.447-5.24c-0.344-0.953-0.771-2.146-1.281-3.576c-0.965,0.588-1.963,1.27-2.995,2.046
		c-0.311,0.189-0.538,0.15-0.682-0.116c-0.156-0.288-0.095-0.532,0.183-0.732c1.087-0.832,2.135-1.547,3.144-2.146
		c-0.377-1.031-0.798-2.163-1.264-3.394c-0.1-0.377-0.011-0.621,0.266-0.732c0.277-0.122,0.488-0.017,0.632,0.316
		c0.466,1.187,0.887,2.285,1.264,3.293c1.708-0.965,3.327-1.614,4.857-1.946c0.044-0.676,0.072-1.386,0.083-2.129
		c0-0.31,0.155-0.465,0.466-0.465c0.355,0,0.532,0.155,0.532,0.465c-0.011,0.677-0.033,1.32-0.066,1.93
		c0.51-0.077,1.02-0.116,1.53-0.116c1.153,0,2.146,0.382,2.978,1.148c0.81,0.743,1.214,1.769,1.214,3.077
		c0,1.364-0.382,2.518-1.147,3.46c-0.732,0.921-1.647,1.381-2.745,1.381c-0.999-0.011-1.952-0.388-2.861-1.131
		c-0.422-0.289-0.56-0.555-0.416-0.799c0.188-0.299,0.388-0.36,0.599-0.183c0.82,0.743,1.713,1.114,2.678,1.114
		c0.732,0,1.364-0.321,1.896-0.965c0.666-0.81,0.998-1.769,0.998-2.878c0-1.02-0.305-1.813-0.915-2.379
		c-0.61-0.565-1.37-0.848-2.279-0.848c-0.532,0-1.07,0.05-1.613,0.15C52.086,7.653,51.859,8.817,51.549,9.793z"/>
	<path fill="#FFFFFF" d="M87.463,4.07c0-0.133,0.039-0.255,0.117-0.366c0.1-0.111,0.233-0.172,0.399-0.183
		c0.167,0,0.289,0.05,0.366,0.15c0.066,0.122,0.105,0.255,0.116,0.399v2.944l3.56-0.183c0.155,0,0.299,0.039,0.433,0.116
		c0.1,0.078,0.149,0.2,0.149,0.366c0.011,0.188-0.039,0.316-0.149,0.382c-0.123,0.078-0.266,0.122-0.433,0.133l-3.56,0.183v3.494
		c-0.011,0.909-0.222,1.535-0.632,1.879c-0.466,0.399-1.065,0.516-1.797,0.35c-0.743-0.199-1.386-0.466-1.93-0.799
		c-0.222-0.121-0.355-0.232-0.399-0.332c-0.044-0.101-0.044-0.222,0-0.366c0.055-0.155,0.139-0.255,0.25-0.299
		c0.111-0.056,0.222-0.051,0.333,0.017c0.565,0.377,1.148,0.637,1.747,0.781c0.499,0.133,0.865,0.078,1.098-0.166
		c0.222-0.211,0.333-0.565,0.333-1.064V8.063l-6.487,0.316v6.155c0,0.743,0.222,1.27,0.665,1.58
		c0.577,0.366,2.013,0.549,4.309,0.549c1.497,0,3.116-0.122,4.857-0.366c0.167-0.033,0.299-0.017,0.399,0.05
		c0.122,0.089,0.188,0.205,0.2,0.35c0.022,0.144-0.005,0.271-0.083,0.383c-0.089,0.1-0.206,0.166-0.349,0.199
		c-1.42,0.255-3.094,0.383-5.024,0.383c-2.606,0-4.264-0.255-4.974-0.766c-0.666-0.499-0.998-1.286-0.998-2.361V8.412l-2.496,0.117
		c-0.144,0-0.266-0.05-0.366-0.15c-0.111-0.088-0.161-0.205-0.15-0.349c0-0.167,0.05-0.289,0.15-0.366
		c0.1-0.1,0.222-0.144,0.366-0.133l2.496-0.117V3.871c-0.011-0.167,0.033-0.289,0.133-0.366c0.1-0.1,0.222-0.155,0.366-0.167
		c0.155,0.011,0.271,0.056,0.349,0.133c0.089,0.1,0.139,0.233,0.15,0.399v3.51l6.487-0.316V4.07z"/>
	<path fill="#FFFFFF" d="M122.613,4.087c0.066,0.355-0.089,0.682-0.466,0.981l-5.124,4.042c0.743-0.167,1.686-0.25,2.828-0.25
		c1.774,0.011,3.144,0.405,4.108,1.181c0.943,0.765,1.42,1.703,1.431,2.811c0,0.012,0,0.033,0,0.066
		c0.012,0.012,0.017,0.022,0.017,0.033h-0.017c-0.033,1.608-0.737,2.845-2.112,3.71c-1.275,0.776-2.817,1.17-4.624,1.181
		c-3.716-0.021-5.573-0.881-5.573-2.578c0.011-0.532,0.222-0.965,0.633-1.298c0.454-0.365,1.086-0.549,1.896-0.549
		c1.254,0,2.302,0.383,3.145,1.148c0.832,0.721,1.353,1.436,1.563,2.146c0.898-0.178,1.696-0.482,2.396-0.915
		c1.108-0.709,1.669-1.686,1.68-2.928c-0.022-0.765-0.388-1.436-1.098-2.013c-0.799-0.666-1.946-0.998-3.443-0.998
		c-1.974,0.011-3.41,0.289-4.309,0.832c-0.344,0.166-1.386,0.854-3.127,2.063c0.044-0.044,0.044-0.044,0,0
		c0.011-0.033,0.011-0.033,0,0c-0.145,0.1-0.289,0.145-0.433,0.133c-0.145-0.021-0.255-0.1-0.333-0.232
		c-0.066-0.122-0.094-0.25-0.083-0.383c0.022-0.133,0.122-0.255,0.3-0.366c0.011-0.011,0.021-0.017,0.033-0.017l0.017-0.017
		l0.017-0.017l8.75-6.903c0.133-0.078,0.193-0.155,0.183-0.233c0-0.066-0.05-0.105-0.149-0.116h-7.669
		c-0.133-0.011-0.249-0.056-0.35-0.133c-0.11-0.088-0.166-0.222-0.166-0.399c0.022-0.144,0.072-0.255,0.149-0.333
		c0.101-0.088,0.222-0.133,0.366-0.133h9.116C122.386,3.616,122.535,3.777,122.613,4.087z M118.654,16.846
		c0.222-0.011,0.438-0.017,0.648-0.017c-0.233-0.499-0.654-1.015-1.265-1.547c-0.688-0.576-1.497-0.865-2.429-0.865
		c-0.576,0-0.986,0.084-1.23,0.25c-0.2,0.155-0.3,0.354-0.3,0.599C114.09,16.308,115.615,16.835,118.654,16.846z"/>
	<path fill="#FFFFFF" d="M147.283,10.808c0.121-0.033,0.238-0.011,0.349,0.066c0.111,0.067,0.188,0.167,0.233,0.3
		c0.044,0.133,0.017,0.267-0.083,0.399c-1.354,1.131-2.029,2.096-2.029,2.894c0,1.375,1.497,2.063,4.491,2.063
		c2.106-0.012,4.791-0.239,8.051-0.683c0.122-0.022,0.238-0.011,0.35,0.033c0.122,0.078,0.199,0.188,0.232,0.333
		c0.033,0.155,0.017,0.283-0.05,0.383c-0.077,0.11-0.188,0.188-0.332,0.232c-3.272,0.466-6.022,0.699-8.251,0.699
		c-3.66,0-5.49-1.021-5.49-3.062c0-1.042,0.738-2.184,2.213-3.426C147.077,10.93,147.183,10.852,147.283,10.808z M156.748,4.686
		c0.188,0.022,0.338,0.072,0.449,0.15c0.122,0.1,0.177,0.238,0.166,0.416c-0.033,0.178-0.105,0.299-0.216,0.366
		c-0.1,0.066-0.222,0.083-0.366,0.05c-3.549-0.421-6.959-0.299-10.23,0.366c-0.133,0.034-0.249,0.028-0.35-0.017
		c-0.133-0.066-0.205-0.188-0.216-0.366s0.022-0.316,0.1-0.416c0.089-0.111,0.233-0.172,0.433-0.183
		C149.833,4.364,153.243,4.243,156.748,4.686z M159.044,5.435c0.021,0.122,0.011,0.239-0.033,0.349
		c-0.066,0.089-0.156,0.167-0.267,0.233c-0.122,0.044-0.238,0.044-0.35,0c-0.089-0.033-0.155-0.1-0.199-0.199
		c-0.277-0.943-0.671-1.83-1.181-2.662c-0.022-0.078-0.012-0.172,0.033-0.283c0.055-0.111,0.139-0.188,0.249-0.233
		c0.122-0.067,0.233-0.083,0.333-0.05c0.089,0.044,0.166,0.105,0.232,0.183C158.373,3.571,158.767,4.459,159.044,5.435z
		 M159.526,2.374c0.51,0.788,0.903,1.653,1.181,2.595c0.033,0.122,0.017,0.239-0.05,0.35c-0.044,0.089-0.133,0.166-0.267,0.232
		c-0.122,0.044-0.238,0.044-0.349,0c-0.078-0.033-0.139-0.1-0.184-0.199c-0.277-0.92-0.671-1.786-1.181-2.595
		c-0.033-0.078-0.028-0.167,0.017-0.266c0.066-0.1,0.155-0.183,0.267-0.25c0.121-0.066,0.232-0.078,0.332-0.033
		C159.382,2.241,159.46,2.296,159.526,2.374z"/>
	<path fill="#FFFFFF" d="M187.972,5.085c-0.011,1.364-0.255,2.784-0.731,4.258c1.33,0.244,2.7,0.666,4.108,1.264V6.715
		c-0.011-0.299,0.155-0.449,0.499-0.449c0.333,0,0.499,0.15,0.499,0.449v4.326c0.677,0.299,1.353,0.638,2.029,1.015
		c0.277,0.122,0.344,0.349,0.2,0.682c-0.156,0.3-0.372,0.366-0.649,0.199c-0.555-0.299-1.087-0.565-1.597-0.798
		c-0.155,3.615-2.102,5.688-5.839,6.221c-0.333,0.045-0.521-0.089-0.565-0.398c-0.033-0.344,0.1-0.538,0.399-0.583
		c3.327-0.487,4.996-2.384,5.007-5.688c-1.553-0.688-3.033-1.153-4.441-1.397c-0.322,0.766-0.688,1.547-1.098,2.346
		c-1.387,2.572-2.812,3.859-4.275,3.859c-1.563-0.012-2.346-0.821-2.346-2.429c0.011-1.464,0.521-2.7,1.53-3.71
		c0.876-0.876,2.052-1.314,3.526-1.314c0.012-0.011,0.039-0.011,0.084,0c0-0.011,0.005-0.017,0.017-0.017v0.017
		c0.643-0.011,1.286,0.033,1.93,0.133c0.477-1.397,0.715-2.761,0.715-4.092c0-0.488-0.238-0.715-0.715-0.682l-4.608,0.25
		c-0.321,0-0.488-0.155-0.499-0.466c-0.011-0.344,0.155-0.521,0.499-0.532l4.608-0.25C187.4,3.35,187.972,3.91,187.972,5.085z
		 M181.518,15.499c1.12-0.012,2.268-1.137,3.443-3.377c0.354-0.677,0.671-1.336,0.948-1.98c-0.544-0.066-1.098-0.1-1.664-0.1
		c-1.197,0-2.102,0.305-2.711,0.915c-0.909,0.865-1.364,1.902-1.364,3.111C180.17,15.021,180.619,15.499,181.518,15.499z"/>
</g>
<g>
</g>
</svg>
