<?xml version="1.0" encoding="utf-8"?>
<!-- Generator: Adobe Illustrator 15.1.0, SVG Export Plug-In . SVG Version: 6.00 Build 0)  -->
<!DOCTYPE svg PUBLIC "-//W3C//DTD SVG 1.1//EN" "http://www.w3.org/Graphics/SVG/1.1/DTD/svg11.dtd">
<svg version="1.1" id="レイヤー_3" xmlns="http://www.w3.org/2000/svg" xmlns:xlink="http://www.w3.org/1999/xlink" x="0px"
	 y="0px" width="200px" height="20px" viewBox="0 0 200 20" enable-background="new 0 0 200 20" xml:space="preserve">
<g>
	<path fill="#FFFFFF" d="M2.162,5.492c0.06-0.101,0.151-0.166,0.271-0.196c0.131-0.02,0.247,0,0.347,0.06
		c0.111,0.081,0.171,0.187,0.181,0.317c0.061,0.393,0.141,1.102,0.242,2.128c0.101,0.986,0.156,1.872,0.166,2.657
		c-0.01,0.151-0.05,0.272-0.121,0.362c-0.081,0.081-0.187,0.121-0.317,0.121c-0.131-0.01-0.231-0.05-0.302-0.121
		c-0.09-0.08-0.136-0.196-0.136-0.347c0-0.785-0.051-1.666-0.151-2.642C2.242,6.815,2.162,6.156,2.102,5.854
		C2.081,5.713,2.102,5.592,2.162,5.492z M4.079,3.438C4.16,3.358,4.265,3.318,4.396,3.318c0.131,0.01,0.231,0.05,0.302,0.121
		C4.799,3.519,4.849,3.64,4.849,3.801v3.17c0.433-0.665,0.76-1.298,0.981-1.902c0.06-0.151,0.141-0.247,0.241-0.287
		c0.111-0.041,0.227-0.041,0.347,0c0.131,0.06,0.216,0.141,0.257,0.241c0.03,0.121,0.025,0.247-0.015,0.377
		c-0.342,0.906-0.875,1.862-1.6,2.868C4.99,8.36,4.919,8.425,4.849,8.465v0.528c-0.01,0.574-0.03,1.087-0.061,1.54
		c-0.02,0.302-0.05,0.625-0.09,0.966c0.654,1.138,1.182,2.114,1.585,2.929c0.061,0.111,0.07,0.217,0.03,0.317
		c-0.03,0.131-0.106,0.216-0.227,0.257c-0.141,0.061-0.256,0.07-0.347,0.03c-0.101-0.03-0.187-0.126-0.257-0.287
		c-0.262-0.594-0.579-1.258-0.951-1.993c-0.061,0.252-0.111,0.504-0.151,0.755c-0.111,0.463-0.217,0.866-0.317,1.208
		c-0.121,0.372-0.247,0.699-0.377,0.981c-0.151,0.312-0.292,0.563-0.422,0.755c-0.151,0.201-0.262,0.362-0.333,0.482
		C2.811,17.056,2.7,17.121,2.6,17.131c-0.111,0.011-0.216-0.02-0.317-0.09c-0.111-0.091-0.171-0.187-0.181-0.287
		c-0.021-0.151,0.02-0.277,0.121-0.378c0.091-0.12,0.196-0.262,0.317-0.422c0.13-0.202,0.256-0.443,0.377-0.725
		c0.11-0.272,0.226-0.579,0.347-0.921c0.11-0.353,0.216-0.775,0.317-1.269c0.11-0.453,0.186-0.896,0.227-1.328
		c0.06-0.433,0.095-0.896,0.105-1.39c0.03-0.393,0.045-0.835,0.045-1.329V3.801C3.968,3.65,4.009,3.529,4.079,3.438z M15.93,6.186
		c0.101,0.081,0.151,0.187,0.151,0.317c-0.01,0.151-0.05,0.262-0.121,0.332c-0.101,0.091-0.211,0.136-0.332,0.136h-2.204
		c0.161,0.936,0.413,1.756,0.755,2.46c0.402,0.835,0.971,1.651,1.706,2.446c0.101,0.11,0.151,0.231,0.151,0.362
		c-0.021,0.11-0.066,0.211-0.136,0.302c-0.111,0.091-0.216,0.131-0.317,0.121c-0.131-0.01-0.247-0.065-0.347-0.166
		c-0.775-0.846-1.364-1.697-1.766-2.552c-0.211-0.433-0.393-0.891-0.543-1.374c-0.091,0.302-0.196,0.609-0.317,0.921
		c-0.171,0.422-0.347,0.79-0.528,1.102c-0.181,0.332-0.382,0.625-0.604,0.875c-0.232,0.272-0.458,0.499-0.68,0.68
		c-0.241,0.182-0.428,0.322-0.559,0.423c-0.131,0.11-0.247,0.161-0.347,0.151c-0.111,0-0.211-0.051-0.302-0.151
		c-0.081-0.091-0.126-0.196-0.136-0.317c0-0.15,0.065-0.262,0.196-0.332c0.151-0.101,0.322-0.231,0.513-0.393
		c0.221-0.171,0.428-0.382,0.619-0.634c0.181-0.221,0.362-0.488,0.543-0.8c0.201-0.312,0.382-0.684,0.543-1.117
		c0.171-0.403,0.292-0.79,0.362-1.163c0.05-0.282,0.096-0.563,0.136-0.845h-1.51c-0.041,0-0.065,0-0.076,0
		c-0.06,0.251-0.121,0.503-0.181,0.754c-0.161,0.543-0.367,1.042-0.619,1.495c-0.292,0.543-0.624,1.012-0.997,1.404
		c-0.373,0.383-0.725,0.7-1.057,0.952c-0.353,0.271-0.785,0.528-1.298,0.77c-0.131,0.061-0.256,0.07-0.377,0.03
		c-0.121-0.05-0.201-0.126-0.241-0.227c-0.061-0.131-0.071-0.246-0.03-0.347c0.05-0.111,0.141-0.196,0.271-0.257
		c0.413-0.191,0.79-0.413,1.132-0.665c0.362-0.271,0.684-0.548,0.966-0.83c0.13-0.141,0.256-0.292,0.377-0.453
		C8.427,9.356,8.075,9.115,7.672,8.873c-0.413-0.262-0.699-0.438-0.86-0.528C6.67,8.526,6.535,8.697,6.404,8.858
		C6.303,8.969,6.193,9.029,6.072,9.039c-0.121-0.01-0.227-0.05-0.317-0.121C5.654,8.828,5.604,8.722,5.604,8.602
		c0-0.121,0.05-0.231,0.151-0.333c0.402-0.422,0.714-0.865,0.936-1.328C6.922,6.428,7.119,5.673,7.28,4.676
		c0.1-0.422,0.246-0.725,0.438-0.906c0.161-0.151,0.408-0.227,0.74-0.227h1.6c0.353-0.01,0.624,0.111,0.815,0.362
		c0.171,0.252,0.256,0.519,0.256,0.8s-0.05,0.715-0.151,1.298c-0.01,0.02-0.015,0.045-0.015,0.075h1.479
		c0.02-0.211,0.03-0.427,0.03-0.649V3.74c0.01-0.151,0.05-0.271,0.121-0.362c0.081-0.08,0.187-0.121,0.317-0.121
		c0.13,0.01,0.231,0.05,0.302,0.121c0.101,0.081,0.151,0.202,0.151,0.362v1.691c-0.01,0.222-0.02,0.438-0.03,0.649h2.295
		C15.729,6.08,15.829,6.116,15.93,6.186z M7.219,13.402c0.101-0.05,0.216-0.07,0.347-0.061c0.121,0.021,0.216,0.076,0.287,0.166
		c0.061,0.111,0.076,0.242,0.045,0.393c-0.141,0.705-0.317,1.283-0.528,1.736c-0.211,0.503-0.443,0.911-0.694,1.223
		c-0.091,0.121-0.202,0.196-0.332,0.227c-0.111,0-0.217-0.035-0.317-0.105c-0.101-0.091-0.156-0.187-0.166-0.287
		c-0.02-0.141,0.015-0.262,0.106-0.362c0.282-0.402,0.503-0.79,0.664-1.162c0.201-0.433,0.337-0.911,0.408-1.435
		C7.058,13.584,7.119,13.473,7.219,13.402z M9.74,7.59V7.575c-0.03-0.03-0.061-0.05-0.09-0.06C9.317,7.263,8.925,7.001,8.472,6.729
		C8.16,6.548,7.923,6.413,7.763,6.322C7.672,6.634,7.576,6.926,7.476,7.197C7.405,7.349,7.335,7.489,7.265,7.62
		C7.466,7.721,7.768,7.897,8.17,8.148C8.563,8.4,8.91,8.637,9.212,8.858C9.413,8.465,9.589,8.043,9.74,7.59z M10.223,5.114
		c-0.01-0.211-0.05-0.377-0.121-0.498c-0.07-0.121-0.227-0.181-0.468-0.181H8.85c-0.251,0-0.443,0.045-0.574,0.136
		C8.145,4.671,8.06,4.833,8.02,5.054C7.989,5.174,7.969,5.3,7.959,5.431C8.16,5.542,8.487,5.733,8.94,6.005
		c0.383,0.231,0.725,0.453,1.027,0.664c0.03-0.161,0.065-0.317,0.105-0.468C10.173,5.758,10.223,5.396,10.223,5.114z M9.589,13.629
		c0.081-0.091,0.181-0.136,0.302-0.136c0.131,0.01,0.242,0.051,0.332,0.121c0.091,0.101,0.131,0.216,0.121,0.347
		c-0.021,0.231-0.051,0.624-0.091,1.178c-0.05,0.543-0.111,1.026-0.181,1.449c-0.03,0.141-0.096,0.246-0.196,0.317
		c-0.09,0.07-0.201,0.09-0.332,0.06c-0.121-0.02-0.211-0.075-0.271-0.166c-0.071-0.12-0.091-0.246-0.061-0.377
		c0.081-0.402,0.141-0.866,0.181-1.389c0.05-0.544,0.076-0.896,0.076-1.057C9.479,13.835,9.519,13.72,9.589,13.629z M11.869,13.599
		c0.061-0.101,0.151-0.166,0.272-0.196c0.131-0.04,0.247-0.024,0.347,0.046s0.166,0.171,0.196,0.302
		c0.04,0.231,0.105,0.639,0.196,1.223c0.09,0.553,0.141,1.057,0.151,1.51c-0.01,0.15-0.05,0.271-0.121,0.362
		c-0.071,0.08-0.171,0.125-0.302,0.136c-0.121,0-0.226-0.035-0.317-0.105c-0.09-0.081-0.136-0.196-0.136-0.348
		c-0.03-0.433-0.081-0.926-0.151-1.479c-0.081-0.563-0.136-0.926-0.166-1.087C11.818,13.82,11.829,13.699,11.869,13.599z
		 M14.179,13.916c-0.071-0.131-0.091-0.257-0.061-0.378c0.05-0.11,0.126-0.196,0.227-0.257c0.13-0.07,0.247-0.085,0.347-0.045
		c0.121,0.051,0.216,0.136,0.287,0.257c0.433,0.795,0.79,1.767,1.072,2.913c0.041,0.151,0.03,0.277-0.03,0.378
		c-0.061,0.11-0.151,0.186-0.272,0.227c-0.131,0.03-0.247,0.015-0.347-0.046c-0.101-0.06-0.171-0.171-0.211-0.332
		C14.938,15.576,14.601,14.671,14.179,13.916z M14.133,3.846c-0.01-0.101,0.03-0.201,0.121-0.302
		c0.091-0.08,0.186-0.121,0.287-0.121c0.121,0,0.231,0.045,0.332,0.136c0.342,0.312,0.669,0.715,0.981,1.208
		c0.06,0.121,0.085,0.231,0.075,0.332c-0.02,0.121-0.081,0.216-0.181,0.287c-0.111,0.051-0.216,0.071-0.317,0.061
		c-0.121-0.03-0.217-0.105-0.287-0.227c-0.282-0.433-0.563-0.785-0.845-1.057C14.188,4.073,14.133,3.967,14.133,3.846z"/>
	<path fill="#FFFFFF" d="M26.346,9.552c-0.101,0.333-0.292,0.479-0.574,0.438C25.46,9.93,25.35,9.744,25.44,9.432
		c0.261-0.835,0.458-1.786,0.589-2.853c-1.269,0.322-2.602,0.881-4.001,1.676c0.554,1.469,0.981,2.657,1.283,3.563
		c0.574,1.721,0.986,3.281,1.238,4.68c0.06,0.362-0.045,0.574-0.317,0.634c-0.302,0.07-0.483-0.065-0.543-0.407
		c-0.352-1.63-0.79-3.216-1.313-4.755c-0.313-0.866-0.7-1.948-1.163-3.247c-0.875,0.534-1.781,1.152-2.717,1.857
		c-0.282,0.171-0.488,0.136-0.619-0.106c-0.141-0.261-0.085-0.483,0.166-0.664c0.986-0.755,1.938-1.404,2.854-1.947
		c-0.342-0.936-0.725-1.963-1.147-3.08c-0.091-0.342-0.01-0.563,0.242-0.665c0.251-0.11,0.442-0.015,0.574,0.287
		c0.422,1.077,0.805,2.073,1.147,2.989c1.55-0.875,3.02-1.464,4.408-1.766c0.04-0.614,0.065-1.258,0.076-1.932
		c0-0.282,0.141-0.423,0.422-0.423c0.322,0,0.483,0.141,0.483,0.423c-0.01,0.614-0.03,1.198-0.061,1.751
		c0.463-0.07,0.926-0.105,1.389-0.105c1.047,0,1.948,0.347,2.702,1.042c0.735,0.674,1.102,1.605,1.102,2.792
		c0,1.238-0.347,2.285-1.042,3.141c-0.664,0.836-1.495,1.253-2.491,1.253c-0.906-0.01-1.771-0.352-2.597-1.026
		c-0.382-0.262-0.508-0.503-0.377-0.725c0.171-0.271,0.352-0.327,0.543-0.166c0.745,0.675,1.555,1.012,2.431,1.012
		c0.664,0,1.238-0.292,1.721-0.876c0.604-0.734,0.906-1.605,0.906-2.612c0-0.926-0.277-1.645-0.83-2.159
		c-0.554-0.513-1.243-0.77-2.068-0.77c-0.483,0-0.971,0.045-1.464,0.136C26.834,7.61,26.628,8.667,26.346,9.552z"/>
	<path fill="#FFFFFF" d="M43.48,4.359c0-0.121,0.035-0.231,0.105-0.332c0.09-0.101,0.211-0.156,0.362-0.166
		c0.151,0,0.262,0.045,0.332,0.136c0.061,0.111,0.096,0.231,0.106,0.362v2.672l3.23-0.166c0.141,0,0.271,0.036,0.393,0.106
		c0.09,0.07,0.136,0.181,0.136,0.332c0.01,0.171-0.036,0.287-0.136,0.347c-0.111,0.07-0.242,0.111-0.393,0.121l-3.23,0.166v3.17
		c-0.01,0.826-0.202,1.395-0.574,1.706c-0.423,0.362-0.966,0.468-1.63,0.317c-0.674-0.182-1.258-0.423-1.751-0.725
		c-0.201-0.11-0.322-0.212-0.362-0.302c-0.04-0.091-0.04-0.201,0-0.332c0.05-0.142,0.126-0.231,0.227-0.272
		c0.101-0.05,0.201-0.045,0.302,0.016c0.514,0.342,1.042,0.579,1.585,0.709c0.453,0.121,0.785,0.071,0.996-0.15
		c0.201-0.191,0.302-0.514,0.302-0.967V7.982l-5.888,0.287v5.586c0,0.674,0.201,1.152,0.604,1.434
		c0.523,0.333,1.827,0.499,3.91,0.499c1.359,0,2.828-0.111,4.408-0.332c0.151-0.03,0.271-0.016,0.362,0.045
		c0.11,0.08,0.171,0.186,0.181,0.317c0.02,0.13-0.005,0.246-0.076,0.347c-0.081,0.091-0.186,0.151-0.317,0.182
		c-1.289,0.231-2.808,0.347-4.559,0.347c-2.365,0-3.87-0.231-4.514-0.694c-0.604-0.453-0.906-1.167-0.906-2.144V8.299l-2.265,0.106
		c-0.131,0-0.241-0.045-0.332-0.136c-0.101-0.08-0.146-0.186-0.136-0.317c0-0.151,0.045-0.262,0.136-0.332
		c0.091-0.09,0.201-0.131,0.332-0.121l2.265-0.106V4.178c-0.01-0.151,0.03-0.262,0.121-0.332c0.091-0.091,0.201-0.141,0.332-0.151
		c0.141,0.01,0.247,0.05,0.317,0.121c0.08,0.09,0.125,0.211,0.136,0.362v3.185l5.888-0.287V4.359z"/>
	<path fill="#FFFFFF" d="M53.927,8.737c-0.705,1.852-1.691,3.976-2.959,6.371c-0.161,0.302-0.383,0.372-0.664,0.211
		c-0.242-0.141-0.282-0.352-0.121-0.634c1.308-2.566,2.285-4.67,2.929-6.311c0.161-0.453,0.322-0.906,0.483-1.359
		c-1.017,0.041-2.023,0.076-3.02,0.106c-0.302,0-0.458-0.156-0.468-0.468c0-0.292,0.156-0.438,0.468-0.438
		c1.067-0.04,2.164-0.076,3.291-0.106c0.221-0.725,0.413-1.439,0.574-2.144c0.061-0.352,0.242-0.498,0.543-0.438
		c0.292,0.07,0.402,0.277,0.332,0.619c-0.151,0.654-0.317,1.289-0.498,1.902c1.993-0.121,4.005-0.277,6.039-0.468
		c0.312-0.03,0.473,0.111,0.483,0.423c-0.01,0.312-0.171,0.473-0.483,0.483c-2.144,0.191-4.248,0.347-6.311,0.468
		C54.354,7.56,54.148,8.154,53.927,8.737z M54.682,16.543c-0.554-0.434-0.831-1.002-0.831-1.706c0-0.675,0.242-1.238,0.725-1.691
		c0.503-0.492,1.122-0.739,1.857-0.739c0.734,0,1.681,0.247,2.838,0.739c-0.01-0.03-0.02-0.06-0.03-0.09
		c-0.211-0.584-0.317-1.213-0.317-1.888c0.01-0.554,0.096-1.077,0.257-1.57c0.131-0.382,0.337-0.528,0.619-0.438
		c0.272,0.111,0.357,0.337,0.257,0.679c-0.151,0.483-0.227,0.926-0.227,1.329c0,0.635,0.111,1.253,0.332,1.857
		c0.091,0.221,0.156,0.428,0.196,0.618c0.926,0.464,2.068,1.153,3.427,2.068c0.261,0.171,0.312,0.383,0.151,0.635
		c-0.181,0.261-0.398,0.296-0.649,0.105c-0.956-0.685-1.922-1.273-2.898-1.767c-0.081,0.664-0.347,1.213-0.8,1.646
		c-0.634,0.584-1.439,0.881-2.416,0.891C56.055,17.201,55.225,16.976,54.682,16.543z M58.969,15.622
		c0.352-0.373,0.533-0.831,0.543-1.374c-0.101-0.051-0.187-0.091-0.257-0.121c-1.238-0.543-2.179-0.815-2.823-0.815
		c-0.463,0-0.866,0.151-1.208,0.453c-0.313,0.313-0.468,0.67-0.468,1.072c0.01,0.423,0.201,0.76,0.574,1.011
		c0.433,0.303,1.046,0.458,1.842,0.469C57.937,16.286,58.536,16.055,58.969,15.622z M59.875,8.526
		c-0.271-0.101-0.362-0.292-0.271-0.574c0.11-0.271,0.307-0.357,0.588-0.256c1.097,0.362,2.224,0.82,3.382,1.374
		c0.302,0.151,0.393,0.368,0.271,0.649c-0.141,0.292-0.367,0.342-0.679,0.151C62.219,9.376,61.123,8.929,59.875,8.526z"/>
	<path fill="#FFFFFF" d="M67,11.35c0.01,1.671,0.231,2.919,0.665,3.744c0.402,0.744,0.83,1.116,1.283,1.116
		c0.785-0.01,1.56-1.152,2.325-3.427c0.061-0.141,0.151-0.231,0.272-0.271c0.1-0.04,0.216-0.03,0.347,0.03
		c0.121,0.081,0.201,0.171,0.241,0.271c0.01,0.111-0.005,0.231-0.045,0.362c-0.946,2.627-1.993,3.94-3.14,3.94
		c-0.745,0-1.394-0.474-1.948-1.419c-0.604-1.017-0.906-2.466-0.906-4.348c0.01-2.114,0.096-4.248,0.257-6.401
		c0.02-0.171,0.081-0.287,0.181-0.347c0.111-0.061,0.231-0.076,0.362-0.045c0.131,0.04,0.227,0.105,0.287,0.196
		c0.041,0.101,0.056,0.211,0.045,0.332C67.075,7.117,67,9.205,67,11.35z M76.254,5.22c2.113,2.798,3.17,6.15,3.17,10.055
		c-0.05,0.151-0.126,0.257-0.226,0.317c-0.091,0.05-0.202,0.06-0.333,0.03c-0.121-0.03-0.216-0.106-0.287-0.227
		c-0.061-0.111-0.071-0.232-0.03-0.362c-0.01-3.452-1.001-6.527-2.974-9.225c-0.101-0.131-0.146-0.262-0.136-0.393
		c0.01-0.09,0.065-0.181,0.166-0.271c0.091-0.081,0.201-0.116,0.332-0.106C76.047,5.059,76.153,5.119,76.254,5.22z"/>
	<path fill="#FFFFFF" d="M86.881,8.646c0.433,0,0.805,0.151,1.117,0.453c0.342,0.342,0.513,0.73,0.513,1.163
		c0,0.453-0.151,0.821-0.453,1.102c-0.353,0.353-0.745,0.528-1.178,0.528c-0.473-0.01-0.86-0.171-1.162-0.482
		c-0.302-0.332-0.453-0.715-0.453-1.148c0.01-0.463,0.171-0.851,0.483-1.163C86.051,8.798,86.429,8.646,86.881,8.646z"/>
	<path fill="#FFFFFF" d="M96.77,9.235c-0.544,0.443-1.193,0.851-1.948,1.223c-0.121,0.071-0.241,0.091-0.362,0.061
		c-0.09-0.03-0.171-0.105-0.241-0.227c-0.071-0.121-0.091-0.231-0.061-0.332c0-0.11,0.075-0.201,0.227-0.271
		c0.725-0.353,1.363-0.74,1.917-1.163c0.523-0.413,1.042-0.875,1.555-1.389c0.442-0.443,0.891-0.971,1.343-1.585
		c0.03-0.06,0.065-0.11,0.106-0.151h-4.695c-0.111-0.01-0.216-0.05-0.317-0.121c-0.101-0.081-0.151-0.186-0.151-0.317
		c0.01-0.151,0.05-0.262,0.121-0.333c0.101-0.08,0.216-0.121,0.347-0.121h5.269c0.181-0.322,0.368-0.654,0.559-0.996
		c0.081-0.121,0.171-0.196,0.272-0.227s0.211-0.01,0.332,0.06c0.111,0.071,0.182,0.156,0.212,0.257
		c0.04,0.111,0.024,0.227-0.046,0.347c-0.12,0.191-0.231,0.377-0.332,0.559h6.658c0.101,0,0.201,0.036,0.302,0.106
		c0.101,0.081,0.15,0.186,0.15,0.317c-0.01,0.151-0.05,0.262-0.12,0.332c-0.101,0.09-0.212,0.136-0.332,0.136h-7.217
		c-0.151,0.222-0.302,0.438-0.453,0.649c-0.403,0.523-0.821,1.017-1.253,1.479h7.519c0.342-0.01,0.619,0.096,0.83,0.317
		c0.191,0.191,0.292,0.458,0.302,0.8v6.915c0,0.423-0.08,0.729-0.241,0.921c-0.241,0.382-0.649,0.618-1.223,0.709
		c-0.563,0.081-1.395,0.016-2.491-0.196c-0.171-0.03-0.292-0.096-0.362-0.196c-0.061-0.09-0.085-0.201-0.075-0.332
		c0.021-0.131,0.075-0.231,0.166-0.302c0.101-0.07,0.227-0.101,0.378-0.091c1.046,0.182,1.756,0.242,2.128,0.182
		c0.372-0.051,0.624-0.217,0.755-0.498c0.051-0.101,0.075-0.262,0.075-0.483v-1.178h-8.288v2.627c0,0.151-0.045,0.271-0.136,0.362
		c-0.081,0.08-0.187,0.121-0.317,0.121c-0.141-0.011-0.247-0.051-0.317-0.121c-0.081-0.091-0.121-0.211-0.121-0.362V8.888
		C97.042,8.999,96.9,9.115,96.77,9.235z M98.551,8.42c-0.131,0.01-0.242,0.05-0.332,0.121c-0.091,0.101-0.136,0.216-0.136,0.347
		v1.359h8.288V8.888c-0.01-0.141-0.045-0.247-0.105-0.317c-0.11-0.111-0.231-0.161-0.362-0.151H98.551z M98.083,11.138v2.068h8.288
		v-2.068H98.083z"/>
	<path fill="#FFFFFF" d="M110.131,11.862c-0.111-0.01-0.217-0.05-0.317-0.12c-0.101-0.081-0.151-0.187-0.151-0.317
		c0.01-0.151,0.051-0.262,0.121-0.332c0.101-0.08,0.216-0.121,0.348-0.121h6.022v-0.333c0-0.05,0-0.095,0-0.136V9.628h-4.03
		c-0.11-0.01-0.217-0.05-0.317-0.121c-0.101-0.081-0.15-0.186-0.15-0.317c0.01-0.151,0.05-0.261,0.121-0.332
		c0.1-0.08,0.216-0.121,0.347-0.121h4.03V7.515h-4.393c-0.11-0.01-0.217-0.05-0.317-0.121c-0.101-0.08-0.15-0.186-0.15-0.317
		c0.01-0.151,0.05-0.262,0.12-0.332c0.101-0.081,0.217-0.121,0.348-0.121h4.393V5.975c0-0.151,0.035-0.262,0.106-0.332
		c0.09-0.081,0.201-0.121,0.332-0.121c0.12,0.01,0.227,0.05,0.316,0.121c0.091,0.09,0.137,0.201,0.137,0.332v0.649h4.317
		c0.101,0,0.201,0.035,0.302,0.105c0.101,0.081,0.15,0.187,0.15,0.317c-0.01,0.151-0.05,0.262-0.12,0.332
		c-0.101,0.091-0.212,0.136-0.332,0.136h-4.317v1.223H121c0.101,0,0.201,0.035,0.302,0.105c0.101,0.081,0.15,0.187,0.15,0.317
		c-0.01,0.151-0.05,0.262-0.12,0.332c-0.101,0.09-0.212,0.136-0.332,0.136h-3.955v1.344h6.068c0.101,0,0.201,0.036,0.302,0.106
		c0.101,0.08,0.151,0.186,0.151,0.316c-0.011,0.151-0.051,0.262-0.121,0.332c-0.101,0.091-0.211,0.136-0.332,0.136H110.131z
		 M122.177,4.39c0.262-0.02,0.499,0.05,0.71,0.211c0.121,0.111,0.201,0.337,0.241,0.679c0.04,0.302,0.016,0.86-0.075,1.676
		c-0.061,0.161-0.141,0.262-0.241,0.302c-0.111,0.05-0.227,0.056-0.348,0.015c-0.131-0.05-0.217-0.126-0.257-0.227
		c-0.05-0.121-0.055-0.247-0.015-0.377c0.07-0.503,0.101-0.845,0.091-1.026c0-0.111-0.021-0.186-0.061-0.227
		c-0.142-0.13-0.292-0.176-0.453-0.136h-10.356c-0.201,0.01-0.352,0.065-0.452,0.166c-0.091,0.101-0.136,0.242-0.136,0.423v1.072
		c0,0.151-0.046,0.271-0.137,0.362c-0.09,0.07-0.195,0.111-0.316,0.121c-0.142-0.02-0.247-0.065-0.317-0.136
		c-0.08-0.101-0.12-0.216-0.12-0.347V5.597c0-0.362,0.11-0.654,0.332-0.875c0.211-0.221,0.498-0.332,0.86-0.332h5.026V3.68
		c0-0.151,0.035-0.262,0.106-0.333c0.09-0.08,0.201-0.121,0.332-0.121c0.12,0.01,0.227,0.051,0.316,0.121
		c0.091,0.091,0.137,0.202,0.137,0.333V4.39H122.177z M111.686,16.618c-0.242-0.212-0.362-0.498-0.362-0.86v-1.601
		c-0.011-0.362,0.096-0.654,0.316-0.876c0.252-0.251,0.559-0.377,0.921-0.377h8.197c0.372,0.021,0.67,0.141,0.891,0.362
		c0.201,0.231,0.297,0.528,0.287,0.891v1.601c-0.03,0.362-0.156,0.653-0.377,0.875c-0.212,0.191-0.483,0.287-0.815,0.287
		l0.015,0.015h-8.197C112.219,16.935,111.927,16.829,111.686,16.618z M120.381,16.044c0.211-0.01,0.362-0.05,0.453-0.12
		c0.13-0.111,0.201-0.262,0.211-0.453v-1.103c-0.021-0.19-0.081-0.337-0.181-0.438c-0.111-0.101-0.242-0.146-0.393-0.136h-7.685
		c-0.181,0-0.322,0.045-0.423,0.136c-0.101,0.111-0.15,0.257-0.15,0.438v1.103c0,0.181,0.05,0.322,0.15,0.423
		c0.101,0.11,0.242,0.161,0.423,0.15H120.381z"/>
	<path fill="#FFFFFF" d="M130.843,8.646c0.433,0,0.805,0.151,1.117,0.453c0.342,0.342,0.513,0.73,0.513,1.163
		c0,0.453-0.15,0.821-0.453,1.102c-0.352,0.353-0.744,0.528-1.177,0.528c-0.474-0.01-0.86-0.171-1.163-0.482
		c-0.302-0.332-0.452-0.715-0.452-1.148c0.01-0.463,0.171-0.851,0.482-1.163C130.012,8.798,130.39,8.646,130.843,8.646z"/>
	<path fill="#FFFFFF" d="M148.565,3.876c0.151,0.121,0.227,0.287,0.227,0.498c0.01,0.201-0.021,0.408-0.091,0.619
		c-0.07,0.242-0.276,0.549-0.618,0.921c-0.222,0.242-0.488,0.499-0.801,0.77h4.272c0.141,0.01,0.262,0.051,0.362,0.121
		c0.091,0.09,0.136,0.196,0.136,0.317c0,0.161-0.045,0.271-0.136,0.332c-0.11,0.081-0.231,0.121-0.362,0.121h-10.416
		c-0.443,0.01-0.665,0.232-0.665,0.665v3.034c0,1.147-0.105,2.145-0.316,2.989c-0.231,0.937-0.67,1.786-1.313,2.552
		c-0.091,0.12-0.201,0.186-0.332,0.196c-0.111,0-0.217-0.035-0.317-0.105c-0.101-0.102-0.156-0.202-0.166-0.303
		s0.035-0.216,0.136-0.347c0.574-0.705,0.956-1.465,1.147-2.279c0.182-0.745,0.271-1.736,0.271-2.975V7.937
		c0.011-0.382,0.111-0.694,0.303-0.936c0.201-0.211,0.518-0.317,0.95-0.317h4.937c0.051-0.05,0.096-0.09,0.137-0.121
		c0.725-0.453,1.212-0.82,1.464-1.102c0.211-0.242,0.332-0.423,0.362-0.543c0.021-0.141,0-0.231-0.061-0.272
		c-0.08-0.06-0.201-0.09-0.362-0.09h-4.574c-0.353,0.01-0.608,0.096-0.77,0.256c-0.433,0.574-0.896,1.087-1.389,1.54
		c-0.453,0.393-1.047,0.815-1.781,1.268c-0.131,0.081-0.263,0.101-0.393,0.061c-0.111-0.03-0.196-0.096-0.257-0.196
		c-0.07-0.121-0.091-0.231-0.061-0.332c0.04-0.131,0.121-0.231,0.241-0.302c0.836-0.483,1.454-0.911,1.857-1.283
		c0.442-0.413,0.835-0.88,1.178-1.404c0.11-0.191,0.241-0.322,0.392-0.393c0.161-0.07,0.353-0.105,0.574-0.105h5.329
		C148.072,3.655,148.374,3.725,148.565,3.876z M145.879,12.603c0.604,0.222,1.092,0.353,1.464,0.393
		c0.342,0.03,0.649,0.01,0.921-0.061c0.171-0.04,0.317-0.156,0.438-0.348c0.121-0.221,0.182-0.487,0.182-0.8v-1.072
		c-0.021-0.201-0.081-0.352-0.182-0.453c-0.161-0.141-0.322-0.211-0.482-0.211h-4.529c-0.231,0-0.413,0.065-0.543,0.196
		c-0.131,0.151-0.196,0.332-0.196,0.543v3.79c0,0.332,0.045,0.578,0.136,0.739c0.12,0.231,0.367,0.378,0.739,0.438
		c0.423,0.08,1.374,0.125,2.854,0.136c1.671-0.021,2.692-0.035,3.064-0.046c0.393-0.02,0.669-0.08,0.83-0.181
		c0.182-0.151,0.292-0.317,0.332-0.498c0.051-0.231,0.07-0.624,0.061-1.178c0.01-0.161,0.051-0.292,0.121-0.393
		c0.08-0.08,0.186-0.121,0.316-0.121c0.172,0,0.292,0.051,0.362,0.151c0.081,0.091,0.121,0.217,0.121,0.377
		c0.01,0.574-0.015,1.027-0.075,1.359c-0.061,0.352-0.182,0.634-0.362,0.845c-0.322,0.333-0.715,0.519-1.178,0.559
		c-0.473,0.051-1.575,0.076-3.306,0.076c-1.842,0-3.024-0.061-3.548-0.182c-0.523-0.11-0.881-0.353-1.072-0.725
		c-0.191-0.332-0.286-0.76-0.286-1.283v-4.272c0.01-0.342,0.125-0.634,0.347-0.875c0.252-0.242,0.549-0.357,0.891-0.347h5.193
		c0.393-0.01,0.71,0.121,0.951,0.392c0.211,0.252,0.322,0.549,0.332,0.891v1.419c0,0.523-0.121,0.981-0.362,1.374
		c-0.191,0.292-0.438,0.504-0.74,0.634c-0.302,0.121-0.729,0.151-1.283,0.091c-0.573-0.08-1.162-0.246-1.766-0.498
		c-0.151-0.061-0.257-0.141-0.317-0.241c-0.05-0.111-0.056-0.231-0.015-0.362c0.061-0.142,0.141-0.227,0.241-0.257
		C145.662,12.572,145.777,12.572,145.879,12.603z"/>
	<path fill="#FFFFFF" d="M154.394,3.892c0.19-0.181,0.423-0.272,0.694-0.272V3.604h1.6c0.413-0.03,0.729,0.065,0.951,0.287
		c0.222,0.221,0.327,0.468,0.317,0.739c-0.021,0.232-0.081,0.488-0.182,0.77l-0.845,2.536c-0.101,0.161-0.156,0.307-0.166,0.438
		c-0.011,0.171,0.075,0.382,0.256,0.634c0.091,0.131,0.182,0.272,0.272,0.423c0.16,0.272,0.316,0.579,0.468,0.921
		c0.181,0.393,0.292,0.785,0.332,1.178c0.05,0.373,0.056,0.74,0.015,1.103c0,0.362-0.045,0.639-0.136,0.83
		c-0.09,0.201-0.196,0.353-0.316,0.453c-0.151,0.15-0.338,0.276-0.559,0.377c-0.252,0.121-0.519,0.196-0.801,0.227
		c-0.231,0-0.503-0.02-0.814-0.061c-0.151-0.03-0.322-0.091-0.514-0.181v2.506c0,0.161-0.045,0.276-0.136,0.347
		c-0.091,0.081-0.196,0.121-0.317,0.121c-0.141-0.01-0.246-0.051-0.316-0.121c-0.081-0.101-0.121-0.216-0.121-0.347V4.707
		C154.076,4.354,154.182,4.083,154.394,3.892z M154.967,13.131c0.483,0.292,0.865,0.438,1.147,0.438
		c0.231,0.011,0.442-0.035,0.634-0.136c0.191-0.141,0.322-0.276,0.393-0.407c0.07-0.151,0.11-0.397,0.121-0.74
		c0.03-0.281,0.03-0.513,0-0.694c-0.03-0.221-0.111-0.488-0.242-0.8c-0.16-0.342-0.321-0.669-0.482-0.981
		c-0.151-0.251-0.262-0.438-0.332-0.559c-0.202-0.271-0.308-0.518-0.317-0.74c0-0.191,0.051-0.393,0.151-0.604l0.86-2.506
		c0.302-0.614,0.131-0.916-0.514-0.906h-0.905c-0.182,0-0.322,0.061-0.423,0.181c-0.07,0.081-0.101,0.196-0.091,0.347V13.131z
		 M165.686,6.247c0.101,0.081,0.15,0.186,0.15,0.317c-0.01,0.151-0.05,0.262-0.12,0.332c-0.102,0.091-0.212,0.136-0.332,0.136
		h-2.145v0.438v0.015v1.011h2.386c0.372,0.021,0.669,0.141,0.891,0.362c0.201,0.232,0.297,0.528,0.287,0.891v1.662
		c-0.03,0.362-0.156,0.654-0.378,0.875c-0.211,0.191-0.483,0.287-0.815,0.287l0.016,0.015h-2.144
		c0.101,0.332,0.211,0.624,0.332,0.876c0.15,0.302,0.307,0.563,0.468,0.785c0.171,0.222,0.397,0.458,0.68,0.709
		c0.262,0.222,0.624,0.469,1.087,0.74c0.352,0.211,0.755,0.397,1.207,0.559c0.142,0.061,0.231,0.15,0.272,0.271
		c0.03,0.121,0.024,0.231-0.016,0.332c-0.07,0.121-0.156,0.196-0.257,0.227c-0.101,0.04-0.227,0.03-0.377-0.03
		c-0.423-0.15-0.881-0.383-1.374-0.694c-0.523-0.332-0.941-0.64-1.253-0.921c-0.423-0.393-0.77-0.846-1.042-1.358
		c-0.181-0.292-0.321-0.563-0.422-0.815c-0.011,0.021-0.021,0.051-0.03,0.091c-0.172,0.393-0.408,0.785-0.71,1.178
		c-0.271,0.352-0.543,0.653-0.815,0.905c-0.292,0.281-0.608,0.528-0.95,0.74c-0.362,0.23-0.725,0.422-1.087,0.573
		s-0.655,0.271-0.876,0.362c-0.151,0.061-0.277,0.075-0.378,0.045c-0.101-0.04-0.181-0.12-0.241-0.241s-0.075-0.231-0.045-0.332
		c0.04-0.142,0.136-0.231,0.286-0.271c0.231-0.081,0.499-0.182,0.801-0.303c0.321-0.131,0.648-0.302,0.981-0.513
		c0.281-0.182,0.563-0.397,0.845-0.649c0.292-0.251,0.574-0.548,0.846-0.891c0.251-0.322,0.438-0.634,0.559-0.936
		c0.061-0.142,0.11-0.287,0.15-0.438h-1.978c-0.342,0-0.634-0.105-0.875-0.316c-0.242-0.212-0.362-0.498-0.362-0.86V9.749
		c-0.011-0.362,0.096-0.654,0.316-0.875c0.252-0.251,0.559-0.377,0.921-0.377h2.204V7.031h-2.46c-0.111-0.01-0.217-0.05-0.317-0.121
		c-0.101-0.081-0.151-0.186-0.151-0.317c0.011-0.151,0.051-0.262,0.121-0.333c0.101-0.08,0.217-0.121,0.348-0.121h5.495
		C165.483,6.141,165.585,6.176,165.686,6.247z M162.168,3.438c0.141-0.131,0.276-0.196,0.407-0.196c0.021-0.01,0.046-0.01,0.076,0
		c0-0.01,0.005-0.015,0.015-0.015v0.015c0.141,0,0.276,0.05,0.407,0.151c0.563,0.453,1.178,0.846,1.842,1.178
		c0.785,0.413,1.545,0.715,2.28,0.906c0.15,0.03,0.246,0.096,0.286,0.196c0.051,0.141,0.056,0.277,0.016,0.407
		c-0.03,0.131-0.091,0.217-0.182,0.257c-0.091,0.041-0.217,0.041-0.377,0c-0.534-0.141-1.259-0.443-2.174-0.906
		c-0.815-0.413-1.439-0.79-1.872-1.132c-0.111-0.09-0.212-0.136-0.302-0.136c-0.091,0.021-0.182,0.076-0.272,0.166
		c-0.412,0.383-0.986,0.79-1.721,1.223c-0.775,0.443-1.47,0.76-2.083,0.951c-0.131,0.041-0.247,0.041-0.348,0
		c-0.11-0.05-0.186-0.141-0.227-0.271c-0.029-0.131-0.024-0.247,0.016-0.347c0.05-0.101,0.141-0.171,0.271-0.211
		c0.755-0.242,1.5-0.579,2.234-1.012C161.076,4.309,161.645,3.901,162.168,3.438z M162.349,9.386h-1.978
		c-0.181,0-0.322,0.045-0.423,0.136c-0.101,0.111-0.15,0.256-0.15,0.438v1.163c0,0.181,0.05,0.322,0.15,0.423
		c0.101,0.11,0.242,0.161,0.423,0.15h1.933c0.03-0.201,0.045-0.397,0.045-0.589V9.386z M163.239,11.107
		c-0.02,0.202-0.035,0.398-0.045,0.589h2.053c0.212-0.01,0.362-0.05,0.453-0.12c0.131-0.111,0.201-0.262,0.212-0.453V9.96
		c-0.021-0.191-0.081-0.337-0.182-0.438c-0.11-0.101-0.241-0.146-0.393-0.136h-2.099V11.107z"/>
	<path fill="#FFFFFF" d="M171.679,10.473c0.11-0.03,0.217-0.01,0.317,0.061c0.101,0.061,0.171,0.151,0.211,0.272
		c0.04,0.121,0.016,0.242-0.075,0.362c-1.229,1.026-1.842,1.902-1.842,2.627c0,1.248,1.358,1.872,4.076,1.872
		c1.912-0.01,4.348-0.217,7.307-0.619c0.11-0.021,0.216-0.01,0.316,0.03c0.111,0.07,0.182,0.171,0.212,0.302
		c0.03,0.141,0.015,0.257-0.046,0.348c-0.07,0.101-0.171,0.171-0.302,0.211c-2.969,0.423-5.465,0.634-7.487,0.634
		c-3.321,0-4.982-0.926-4.982-2.777c0-0.946,0.67-1.982,2.008-3.11C171.492,10.584,171.588,10.514,171.679,10.473z M180.269,4.918
		c0.171,0.02,0.307,0.065,0.407,0.136c0.111,0.091,0.161,0.217,0.151,0.377c-0.03,0.161-0.096,0.272-0.196,0.332
		c-0.091,0.061-0.201,0.076-0.332,0.045c-3.221-0.382-6.315-0.272-9.284,0.332c-0.121,0.03-0.227,0.025-0.317-0.015
		c-0.12-0.06-0.186-0.171-0.196-0.332c-0.01-0.161,0.021-0.287,0.091-0.377c0.081-0.101,0.212-0.156,0.393-0.166
		C173.993,4.626,177.088,4.516,180.269,4.918z M182.352,5.597c0.021,0.111,0.011,0.217-0.03,0.317
		c-0.06,0.081-0.141,0.151-0.241,0.211c-0.11,0.041-0.217,0.041-0.317,0c-0.08-0.03-0.141-0.09-0.181-0.181
		c-0.252-0.855-0.609-1.661-1.072-2.415c-0.02-0.07-0.01-0.156,0.03-0.257c0.051-0.101,0.126-0.171,0.227-0.211
		c0.111-0.061,0.212-0.076,0.302-0.045c0.081,0.041,0.151,0.096,0.212,0.166C181.743,3.906,182.101,4.712,182.352,5.597z
		 M182.79,2.819c0.463,0.715,0.82,1.5,1.071,2.355c0.03,0.111,0.016,0.217-0.045,0.317c-0.04,0.081-0.121,0.151-0.241,0.211
		c-0.111,0.04-0.217,0.04-0.317,0c-0.07-0.03-0.126-0.091-0.166-0.181c-0.252-0.835-0.609-1.621-1.072-2.355
		c-0.03-0.07-0.025-0.151,0.016-0.241c0.061-0.091,0.141-0.166,0.241-0.227c0.11-0.061,0.211-0.07,0.302-0.03
		C182.659,2.699,182.729,2.749,182.79,2.819z"/>
	<path fill="#FFFFFF" d="M193.146,5.28c-0.01,1.238-0.231,2.526-0.664,3.865c1.208,0.221,2.45,0.604,3.729,1.147V6.76
		c-0.01-0.272,0.141-0.408,0.453-0.408c0.302,0,0.453,0.136,0.453,0.408v3.925c0.613,0.272,1.228,0.579,1.842,0.922
		c0.251,0.11,0.312,0.316,0.181,0.618c-0.141,0.272-0.337,0.332-0.589,0.182c-0.503-0.271-0.986-0.514-1.449-0.725
		c-0.141,3.28-1.907,5.163-5.299,5.646c-0.302,0.04-0.473-0.08-0.513-0.362c-0.03-0.312,0.09-0.488,0.362-0.528
		c3.019-0.442,4.533-2.163,4.544-5.163c-1.409-0.624-2.753-1.046-4.031-1.268c-0.292,0.694-0.624,1.405-0.996,2.129
		c-1.258,2.335-2.552,3.502-3.88,3.502c-1.419-0.01-2.129-0.745-2.129-2.204c0.011-1.328,0.474-2.451,1.39-3.367
		c0.795-0.795,1.861-1.193,3.2-1.193c0.01-0.01,0.035-0.01,0.075,0c0-0.01,0.005-0.015,0.016-0.015v0.015
		c0.583-0.01,1.167,0.03,1.751,0.121c0.433-1.268,0.648-2.506,0.648-3.713c0-0.443-0.216-0.649-0.648-0.619l-4.182,0.227
		c-0.292,0-0.443-0.141-0.453-0.423c-0.01-0.312,0.141-0.473,0.453-0.483l4.182-0.227C192.627,3.705,193.146,4.213,193.146,5.28z
		 M187.288,14.73c1.017-0.01,2.059-1.031,3.125-3.064c0.322-0.613,0.608-1.213,0.86-1.796c-0.493-0.061-0.996-0.091-1.51-0.091
		c-1.087,0-1.907,0.277-2.46,0.831c-0.826,0.785-1.238,1.727-1.238,2.823C186.065,14.299,186.473,14.73,187.288,14.73z"/>
</g>
<g>
</g>
</svg>
