<?xml version="1.0" encoding="utf-8"?>
<!-- Generator: Adobe Illustrator 15.1.0, SVG Export Plug-In . SVG Version: 6.00 Build 0)  -->
<!DOCTYPE svg PUBLIC "-//W3C//DTD SVG 1.1//EN" "http://www.w3.org/Graphics/SVG/1.1/DTD/svg11.dtd">
<svg version="1.1" id="レイヤー_1" xmlns="http://www.w3.org/2000/svg" xmlns:xlink="http://www.w3.org/1999/xlink" x="0px"
	 y="0px" width="200px" height="27px" viewBox="0 0 200 27" enable-background="new 0 0 200 27" xml:space="preserve">
<g>
	<path fill="#FFFFFF" d="M1.146,6.428c0.16,0,0.261,0.141,0.301,0.419c0.201,1.469,0.321,3.079,0.362,4.826
		c0,0.98-0.021,1.784-0.06,2.413c-0.041,0.561-0.202,0.839-0.482,0.839c-0.241-0.068-0.362-0.383-0.362-0.944
		c0.04-0.769,0.06-1.538,0.06-2.308c-0.04-1.747-0.081-3.321-0.12-4.721C0.845,6.673,0.944,6.498,1.146,6.428z M3.075,2.126
		c0.281,0,0.422,0.28,0.422,0.839V9.05c0.401-0.698,0.724-1.503,0.965-2.413c0.121-0.63,0.321-0.908,0.603-0.839
		c0.281,0.141,0.382,0.524,0.302,1.154c-0.322,1.469-0.945,2.623-1.869,3.462c0,1.54-0.06,3.708-0.181,6.505
		c0.642,1.189,1.326,2.728,2.05,4.615c0.08-0.278,0.14-0.663,0.181-1.153c0-0.489,0.1-0.734,0.301-0.734
		c0.241,0,0.362,0.28,0.362,0.839c0,1.819-0.402,3.496-1.206,5.036c-0.322,0.419-0.583,0.419-0.784,0
		C4.06,25.17,4.1,24.751,4.341,24.262c0.201-0.351,0.361-0.699,0.482-1.049c-0.522-1.817-1.065-3.357-1.627-4.616
		c-0.282,2.309-0.684,4.232-1.206,5.771c-0.201,0.698-0.462,0.908-0.784,0.629c-0.201-0.351-0.181-0.875,0.061-1.573
		c0.362-1.118,0.683-2.623,0.964-4.511c0.281-2.238,0.422-4.512,0.422-6.819V2.966C2.653,2.407,2.793,2.126,3.075,2.126z
		 M6.451,1.707c0.281,0,0.422,0.246,0.422,0.734c0,0.21,0,0.49,0,0.839h1.568c0.241,0,0.461,0.175,0.663,0.524
		c0.201,0.351,0.301,0.734,0.301,1.154L9.285,6.638h1.749V2.756c0-0.559,0.14-0.839,0.422-0.839c0.281,0,0.422,0.28,0.422,0.839
		v3.882h2.351c0.281,0,0.422,0.209,0.422,0.629c0,0.419-0.142,0.629-0.422,0.629h-2.291c0.321,3.427,1.165,6.399,2.532,8.917
		c0.442,0.771,0.502,1.4,0.181,1.889c-0.282,0.42-0.603,0.28-0.965-0.42c-0.884-1.957-1.588-4.37-2.11-7.239
		c-0.563,3.147-1.447,5.77-2.653,7.869c-0.282,0.561-0.542,0.629-0.784,0.21c-0.202-0.35-0.161-0.77,0.121-1.26
		c1.647-3.146,2.552-6.468,2.713-9.966H9.164c-0.202,2.098-0.583,4.057-1.146,5.875c-0.563,1.819-1.307,3.462-2.23,4.931
		c-0.241,0.28-0.443,0.28-0.603,0c-0.121-0.279-0.081-0.594,0.121-0.944c0.724-1.259,1.346-2.623,1.869-4.091l-1.327-2.203
		c-0.161,0.7-0.322,1.295-0.482,1.783c-0.161,0.561-0.362,0.734-0.603,0.525c-0.202-0.21-0.202-0.63,0-1.259
		c0.884-3.636,1.306-6.924,1.266-9.861C6.029,2.021,6.169,1.707,6.451,1.707z M6.089,10.309l1.447,2.098
		c0.16-0.629,0.321-1.398,0.482-2.308L6.451,8.211L6.089,10.309z M6.632,6.742L8.26,8.631c0.16-1.259,0.261-2.377,0.301-3.357
		c0-0.488-0.101-0.734-0.301-0.734H6.813L6.632,6.742z M7.898,19.855c0.241-0.068,0.401,0.21,0.482,0.84
		c0.121,1.259,0.14,2.554,0.061,3.882C8.4,25.275,8.219,25.59,7.898,25.521c-0.282,0-0.402-0.352-0.362-1.05
		c0.08-1.188,0.1-2.447,0.061-3.776C7.597,20.207,7.696,19.927,7.898,19.855z M9.888,19.751c0.201-0.14,0.381,0.036,0.542,0.524
		c0.362,1.4,0.623,2.623,0.784,3.672c0.121,0.908-0.021,1.398-0.422,1.469c-0.322,0-0.503-0.28-0.542-0.839
		c-0.081-1.12-0.241-2.377-0.482-3.777C9.646,20.241,9.686,19.892,9.888,19.751z M12.359,20.065c0.16-0.278,0.381-0.21,0.663,0.21
		c0.724,1.19,1.206,2.483,1.447,3.882c0.16,0.839,0.08,1.328-0.241,1.469c-0.322,0.14-0.563-0.141-0.723-0.839
		c-0.282-1.398-0.644-2.587-1.085-3.567C12.218,20.661,12.198,20.275,12.359,20.065z M12.601,2.651
		c0.16-0.21,0.341-0.174,0.542,0.105c0.362,0.629,0.623,1.33,0.784,2.098c0.121,0.629,0.04,1.015-0.241,1.154
		c-0.241,0.071-0.402-0.069-0.482-0.419C13.042,4.89,12.842,4.19,12.601,3.49C12.48,3.141,12.48,2.861,12.601,2.651z"/>
	<path fill="#FFFFFF" d="M24.417,2.651c0-0.629,0.16-0.944,0.482-0.944c0.321,0,0.482,0.315,0.482,0.944
		c0,0.42-0.021,1.295-0.06,2.623c1.527,0,2.713,0.734,3.557,2.203c0.804,1.4,1.206,3.462,1.206,6.19
		c0,1.888-0.342,3.498-1.025,4.826c-0.724,1.19-1.507,1.783-2.352,1.783c-0.522,0-1.024-0.174-1.507-0.524
		c-0.563-0.42-1.126-1.049-1.688-1.889c-0.202-0.349-0.241-0.734-0.121-1.153c0.201-0.35,0.401-0.42,0.603-0.21
		c1.004,1.399,1.869,2.063,2.593,1.993c0.562,0,1.064-0.314,1.507-0.944c0.401-0.629,0.683-1.537,0.844-2.728
		c0.121-1.118,0.121-2.167,0-3.147c-0.121-1.328-0.422-2.376-0.904-3.147c-0.724-1.118-1.628-1.679-2.713-1.679
		c0,0.561-0.021,1.19-0.061,1.889c-0.041,0.91-0.121,1.749-0.241,2.518c-0.161,1.049-0.402,1.854-0.723,2.413
		c-0.161,0.28-0.362,0.351-0.603,0.209c-0.202-0.349-0.221-0.734-0.06-1.154c0.361-1.049,0.582-2.237,0.663-3.567
		c0.04-0.698,0.06-1.398,0.06-2.098c-0.563,0.21-1.085,0.49-1.567,0.839c-1.045,0.7-2.131,1.505-3.255,2.413
		c0.563,2.728,1.064,5.001,1.507,6.819c0.441,1.749,1.104,4.128,1.989,7.134c0.16,0.63,0.1,1.118-0.181,1.469
		c-0.362,0.279-0.644,0.14-0.844-0.419c-1.326-4.826-2.452-9.581-3.376-14.268c-0.563,0.49-1.085,0.944-1.567,1.364
		c-0.322,0.28-0.583,0.141-0.784-0.419c-0.081-0.559,0.02-0.979,0.301-1.259c0.482-0.349,1.064-0.803,1.748-1.364
		c-0.281-1.538-0.583-3.077-0.904-4.616C17.343,4.12,17.463,3.7,17.785,3.49c0.321-0.139,0.542,0.07,0.663,0.629
		c0.281,1.679,0.543,3.183,0.784,4.511c1.246-0.839,2.331-1.574,3.256-2.203c0.683-0.42,1.306-0.734,1.869-0.944
		C24.396,4.085,24.417,3.141,24.417,2.651z"/>
	<path fill="#FFFFFF" d="M42.985,9.365v2.518c0,2.728-0.181,4.477-0.542,5.245c-0.362,0.771-0.824,1.154-1.387,1.154
		c-0.844,0-1.769-0.454-2.773-1.363c-0.282-0.35-0.342-0.77-0.181-1.26c0.121-0.349,0.321-0.419,0.603-0.209
		c0.482,0.351,0.864,0.595,1.146,0.734c0.281,0.141,0.603,0.209,0.964,0.209c0.442,0,0.724-0.244,0.844-0.734
		c0.16-0.629,0.241-1.642,0.241-3.042V9.47l-6.692,0.839v7.344c0,2.029,0.22,3.462,0.663,4.301c0.442,0.839,1.165,1.259,2.17,1.259
		c1.326,0,2.652-0.104,3.979-0.314c0.521-0.069,1.104-0.21,1.748-0.42c0.401,0,0.623,0.314,0.663,0.944
		c0,0.559-0.181,0.908-0.542,1.049c-1.166,0.21-2.351,0.35-3.557,0.42h-2.291c-1.488,0-2.512-0.63-3.075-1.889
		c-0.563-1.117-0.844-3.042-0.844-5.77v-6.819l-1.989,0.21c-0.282,0-0.443-0.244-0.482-0.734c0-0.559,0.16-0.874,0.482-0.944
		l1.989-0.209V4.539c0-0.698,0.181-1.049,0.542-1.049c0.362,0,0.543,0.351,0.543,1.049v4.092L41.9,7.792V3.175
		c0-0.698,0.181-1.049,0.542-1.049s0.542,0.351,0.542,1.049v4.511l2.05-0.21c0.401-0.069,0.603,0.21,0.603,0.839
		c0,0.49-0.202,0.771-0.603,0.839L42.985,9.365z"/>
	<path fill="#FFFFFF" d="M51.124,2.546c0.08-0.488,0.281-0.698,0.603-0.629c0.321,0.141,0.442,0.49,0.362,1.049l-0.241,1.573
		c2.17-0.069,4.341-0.244,6.511-0.524c0.361,0,0.562,0.315,0.603,0.944C58.88,5.52,58.68,5.798,58.359,5.798
		c-2.211,0.209-4.442,0.351-6.692,0.419c-0.482,2.728-1.005,5.351-1.568,7.868c-0.522,2.239-1.125,4.582-1.809,7.029
		c-0.201,0.49-0.442,0.665-0.723,0.524c-0.322-0.35-0.402-0.804-0.241-1.364c0.724-2.377,1.346-4.65,1.869-6.819
		c0.522-2.237,0.984-4.616,1.387-7.134H48.05c-0.362,0-0.543-0.279-0.543-0.839c0-0.559,0.181-0.839,0.543-0.839h2.773L51.124,2.546
		z M60.529,10.309c0.321,0.42,0.401,0.944,0.241,1.574c-0.282,0.561-0.603,0.595-0.964,0.105c-1.126-1.608-1.95-2.413-2.472-2.413
		c-0.443,0-0.704,0.456-0.784,1.364c0,0.49,0.16,1.784,0.482,3.882c0.201,1.329,0.401,2.728,0.603,4.196
		c0.804,0.771,1.406,1.4,1.809,1.889c0.362,0.419,0.683,0.839,0.964,1.259c0.281,0.49,0.302,1.015,0.061,1.573
		c-0.241,0.42-0.523,0.42-0.844,0c-0.482-0.769-1.145-1.679-1.989-2.728c-0.161,1.259-0.443,2.239-0.844,2.938
		c-0.723,1.118-1.668,1.679-2.833,1.679c-1.085,0-1.95-0.524-2.592-1.573c-0.442-0.84-0.663-1.784-0.663-2.833
		c0-1.259,0.281-2.343,0.844-3.252c0.521-0.769,1.266-1.154,2.23-1.154c0.643,0,1.527,0.386,2.653,1.154
		c-0.121-1.118-0.262-2.272-0.422-3.462c-0.161-1.118-0.262-2.203-0.301-3.252c0-0.979,0.121-1.748,0.362-2.308
		c0.281-0.629,0.642-0.944,1.085-0.944c0.401,0,0.924,0.209,1.567,0.629C59.444,9.121,60.047,9.68,60.529,10.309z M51.606,20.905
		c0,1.049,0.261,1.854,0.784,2.413c0.482,0.488,1.025,0.734,1.628,0.734c0.803,0,1.447-0.386,1.929-1.154
		c0.401-0.63,0.603-1.608,0.603-2.938c-1.206-1.118-2.17-1.679-2.894-1.679C52.41,18.282,51.727,19.157,51.606,20.905z"/>
	<path fill="#FFFFFF" d="M64.267,3.385c0.401,0,0.582,0.351,0.542,1.049c-0.121,1.539-0.221,2.833-0.301,3.881
		c-0.202,2.308-0.302,4.301-0.302,5.98c0,1.19,0.04,2.308,0.121,3.357c0.121,2.098,0.422,3.532,0.904,4.301
		c0.241,0.42,0.482,0.456,0.724,0.104c0.642-1.117,1.245-3.636,1.809-7.553c0.08-0.42,0.261-0.594,0.542-0.525
		c0.281,0.141,0.381,0.49,0.301,1.049l-0.06,0.524c-0.443,3.218-0.925,5.525-1.447,6.924c-0.523,1.398-1.025,2.099-1.507,2.099
		c-0.563-0.07-1.085-0.876-1.567-2.413c-0.523-1.679-0.784-4.336-0.784-7.974c0-1.537,0.04-3.286,0.121-5.245
		c0.08-1.678,0.181-3.216,0.301-4.616C63.744,3.631,63.945,3.316,64.267,3.385z M72.285,3.91c0.241-0.209,0.461-0.139,0.663,0.21
		c1.085,2.449,1.848,5.106,2.291,7.973c0.442,2.728,0.663,5.875,0.663,9.441c0,0.771-0.221,1.154-0.663,1.154
		c-0.443,0-0.663-0.384-0.663-1.154c0-3.706-0.181-6.782-0.543-9.231c-0.402-2.518-1.045-4.931-1.929-7.239
		C71.984,4.575,72.044,4.19,72.285,3.91z"/>
	<path fill="#FFFFFF" d="M86.211,11.673c0.362,0.63,0.542,1.364,0.542,2.203c0,0.84-0.181,1.574-0.542,2.203
		c-0.402,0.7-0.844,1.049-1.326,1.049s-0.925-0.349-1.326-1.049c-0.362-0.629-0.543-1.363-0.543-2.203
		c0-0.839,0.181-1.573,0.543-2.203c0.401-0.698,0.844-1.049,1.326-1.049S85.809,10.975,86.211,11.673z"/>
	<path fill="#FFFFFF" d="M98.993,1.497c0.321,0.07,0.461,0.419,0.422,1.049c-0.081,0.7-0.181,1.33-0.301,1.889h7.656
		c0.321,0,0.482,0.246,0.482,0.734c0,0.49-0.161,0.734-0.482,0.734h-8.018c-0.202,0.98-0.563,2.063-1.085,3.252h7.114
		c0.241,0,0.461,0.175,0.663,0.524c0.2,0.351,0.301,0.734,0.301,1.154v11.54c0,2.167-0.663,3.252-1.989,3.252
		c-1.085,0-2.109-0.21-3.074-0.63c-0.282-0.141-0.422-0.419-0.422-0.839c0.04-0.42,0.201-0.63,0.482-0.63
		c1.044,0.35,1.949,0.525,2.713,0.525c0.964,0,1.446-0.77,1.446-2.309v-2.098h-8.018v5.455c0,0.559-0.141,0.839-0.422,0.839
		c-0.282,0-0.422-0.28-0.422-0.839V12.198c-0.603,0.91-1.206,1.678-1.809,2.308c-0.322,0.351-0.563,0.351-0.724,0
		c-0.161-0.42-0.121-0.803,0.121-1.154c1.848-1.888,3.215-4.37,4.1-7.448h-3.858c-0.322,0-0.482-0.245-0.482-0.734
		c0-0.489,0.16-0.734,0.482-0.734h4.16c0.121-0.489,0.241-1.223,0.362-2.203C98.47,1.672,98.67,1.428,98.993,1.497z M97.545,10.624
		c-0.442,0-0.663,0.385-0.663,1.154v1.889h8.018v-1.889c0-0.769-0.221-1.154-0.663-1.154H97.545z M96.882,18.178h8.018v-3.043
		h-8.018V18.178z"/>
	<path fill="#FFFFFF" d="M115.33,2.231c0-0.559,0.141-0.839,0.422-0.839c0.28,0,0.422,0.28,0.422,0.839V3.49h5.306
		c0.241,0,0.461,0.175,0.663,0.524c0.2,0.351,0.301,0.734,0.301,1.154v3.147c0,0.561-0.141,0.839-0.422,0.839
		S121.6,8.876,121.6,8.316V5.483c0-0.349-0.101-0.524-0.302-0.524h-5.124v2.413h4.16c0.321,0,0.482,0.246,0.482,0.734
		c0,0.49-0.161,0.734-0.482,0.734h-4.16v1.784h4.341c0.28,0,0.422,0.21,0.422,0.629s-0.142,0.629-0.422,0.629h-4.341v1.993h6.028
		c0.321,0,0.482,0.246,0.482,0.734c0,0.49-0.161,0.734-0.482,0.734h-12.901c-0.321,0-0.481-0.244-0.481-0.734
		c0-0.488,0.16-0.734,0.481-0.734h6.029v-1.993h-4.341c-0.281,0-0.422-0.21-0.422-0.629s0.141-0.629,0.422-0.629h4.341V8.84h-4.16
		c-0.322,0-0.482-0.244-0.482-0.734c0-0.488,0.16-0.734,0.482-0.734h4.16V4.959h-5.125c-0.201,0-0.301,0.175-0.301,0.524v2.833
		c0,0.561-0.142,0.839-0.422,0.839c-0.282,0-0.423-0.279-0.423-0.839V5.169c0-0.42,0.101-0.803,0.302-1.154
		c0.201-0.349,0.422-0.524,0.663-0.524h5.306V2.231z M120.575,17.443c0.241,0,0.461,0.175,0.663,0.524
		c0.2,0.351,0.301,0.734,0.301,1.154v4.721c0,0.419-0.101,0.803-0.301,1.153c-0.202,0.35-0.422,0.525-0.663,0.525h-9.646
		c-0.241,0-0.462-0.176-0.663-0.525c-0.201-0.351-0.302-0.734-0.302-1.153v-4.721c0-0.42,0.101-0.804,0.302-1.154
		c0.201-0.35,0.422-0.524,0.663-0.524H120.575z M111.05,19.437v4.091c0,0.35,0.1,0.525,0.301,0.525h8.803
		c0.2,0,0.301-0.176,0.301-0.525v-4.091c0-0.35-0.101-0.524-0.301-0.524h-8.803C111.149,18.912,111.05,19.087,111.05,19.437z"/>
	<path fill="#FFFFFF" d="M132.512,11.673c0.361,0.63,0.543,1.364,0.543,2.203c0,0.84-0.182,1.574-0.543,2.203
		c-0.402,0.7-0.844,1.049-1.326,1.049s-0.925-0.349-1.326-1.049c-0.362-0.629-0.543-1.363-0.543-2.203
		c0-0.839,0.181-1.573,0.543-2.203c0.401-0.698,0.844-1.049,1.326-1.049S132.109,10.975,132.512,11.673z"/>
	<path fill="#FFFFFF" d="M143.484,1.497c0.321,0.07,0.441,0.456,0.361,1.154h5.969c0.241,0,0.441,0.141,0.603,0.42
		c0.121,0.209,0.181,0.49,0.181,0.839c0,0.771-0.563,1.959-1.688,3.567h4.22c0.321,0,0.482,0.246,0.482,0.734
		c0,0.49-0.161,0.734-0.482,0.734h-10.671c-0.201,0-0.301,0.176-0.301,0.525v5.98c0,3.776-0.523,6.818-1.567,9.127
		c-0.241,0.419-0.463,0.488-0.664,0.21c-0.201-0.28-0.221-0.63-0.06-1.05c0.964-2.237,1.446-5.279,1.446-9.127V9.47
		c-0.361,0.561-0.684,0.98-0.964,1.259c-0.241,0.141-0.423,0.036-0.543-0.315c-0.12-0.349-0.081-0.664,0.12-0.944
		c1.527-1.818,2.532-4.231,3.015-7.239C143.021,1.672,143.202,1.428,143.484,1.497z M143.545,4.12
		c-0.322,1.33-0.724,2.449-1.206,3.357h5.305c0.845-1.118,1.447-2.237,1.809-3.357H143.545z M150.176,11.253
		c0.241,0,0.462,0.175,0.663,0.524c0.201,0.351,0.302,0.734,0.302,1.154v5.56c0,1.259-0.522,1.889-1.567,1.889
		c-0.965,0-1.93-0.279-2.894-0.84c-0.282-0.139-0.402-0.419-0.362-0.839c0.04-0.488,0.241-0.698,0.604-0.63
		c1.004,0.49,1.868,0.734,2.592,0.734c0.522,0,0.784-0.349,0.784-1.049v-4.511c0-0.349-0.101-0.524-0.302-0.524h-4.582
		c-0.201,0-0.301,0.175-0.301,0.524v9.756c0,0.63,0.181,0.944,0.542,0.944h4.763c0.684,0,1.165-0.246,1.447-0.734
		c0.28-0.488,0.441-1.083,0.482-1.783l0.06-1.574c0-0.559,0.141-0.839,0.423-0.839c0.28,0,0.422,0.28,0.422,0.839l-0.061,1.784
		c-0.041,1.189-0.241,2.098-0.603,2.728c-0.402,0.698-1.106,1.049-2.11,1.049h-5.245c-0.361,0-0.644-0.176-0.844-0.524
		c-0.241-0.42-0.362-0.944-0.362-1.573V12.932c0-0.42,0.101-0.803,0.302-1.154c0.201-0.349,0.422-0.524,0.663-0.524H150.176z"/>
	<path fill="#FFFFFF" d="M158.134,2.336c0.724,0,1.085,0.524,1.085,1.573c0,1.4-0.382,3.847-1.145,7.344
		c-0.081,0.21-0.081,0.419,0,0.629c0.723,2.379,1.085,4.862,1.085,7.448c0,2.589-0.685,3.882-2.05,3.882
		c-0.241,0-0.503-0.104-0.784-0.314v1.889c0,0.559-0.141,0.839-0.422,0.839s-0.422-0.28-0.422-0.839V3.7
		c0-0.908,0.261-1.364,0.783-1.364H158.134z M156.325,4.33v17.205c0.281,0.071,0.543,0.105,0.784,0.105
		c0.683,0,1.024-0.804,1.024-2.413c0-2.377-0.281-4.721-0.844-7.029c-0.161-0.349-0.181-0.629-0.061-0.839
		c0.643-2.867,0.984-5.175,1.025-6.924c0.039-0.42-0.041-0.63-0.241-0.63h-1.387C156.425,3.805,156.325,3.98,156.325,4.33z
		 M166.694,7.267c0.321,0,0.482,0.246,0.482,0.734c0,0.49-0.161,0.734-0.482,0.734h-2.049v2.203h2.953
		c0.522,0,0.784,0.456,0.784,1.364v4.616c0,0.909-0.262,1.363-0.784,1.363h-2.894c0.684,2.239,2.029,4.092,4.039,5.561
		c0.321,0.278,0.423,0.698,0.302,1.259c-0.12,0.488-0.361,0.664-0.724,0.524c-1.446-0.839-2.794-2.728-4.039-5.665
		c-0.805,2.798-2.372,4.685-4.702,5.665c-0.362,0.14-0.583,0-0.663-0.42c-0.041-0.419,0.061-0.699,0.301-0.839
		c2.412-1.188,3.898-3.216,4.462-6.085h-2.834c-0.522,0-0.783-0.454-0.783-1.363v-4.616c0-0.908,0.261-1.364,0.783-1.364h2.954
		V8.736h-2.291c-0.322,0-0.482-0.245-0.482-0.734c0-0.489,0.16-0.734,0.482-0.734H166.694z M165.007,2.336
		c1.085,1.539,2.311,2.693,3.678,3.462c0.361,0.209,0.521,0.561,0.482,1.049c-0.041,0.49-0.282,0.7-0.724,0.629
		c-1.246-0.559-2.553-1.818-3.919-3.776c-0.201-0.279-0.402-0.279-0.603,0c-1.367,2.029-2.653,3.357-3.858,3.986
		c-0.282,0.141-0.463,0.036-0.543-0.314c-0.081-0.42,0-0.734,0.241-0.944c1.125-0.629,2.371-1.993,3.738-4.091
		c0.28-0.489,0.542-0.699,0.783-0.63C164.524,1.707,164.766,1.917,165.007,2.336z M160.907,12.932v3.357
		c0,0.351,0.1,0.524,0.302,0.524h2.592v-4.406h-2.592C161.007,12.407,160.907,12.583,160.907,12.932z M164.646,16.813h2.592
		c0.201,0,0.302-0.174,0.302-0.524v-3.357c0-0.349-0.101-0.525-0.302-0.525h-2.592V16.813z"/>
	<path fill="#FFFFFF" d="M173.809,12.827c0.241,0.351,0.281,0.734,0.121,1.154c-0.685,1.82-1.025,3.252-1.025,4.301
		c0,1.469,0.382,2.589,1.146,3.357c0.804,0.699,2.13,1.049,3.979,1.049c1.647,0,3.335-0.35,5.063-1.049
		c0.401-0.14,0.663,0.104,0.784,0.734c0.08,0.699-0.121,1.153-0.604,1.363c-1.446,0.488-3.194,0.734-5.244,0.734
		c-2.493,0-4.16-0.595-5.004-1.783c-0.805-1.188-1.206-2.587-1.206-4.196c0-1.608,0.401-3.426,1.206-5.455
		C173.226,12.617,173.486,12.548,173.809,12.827z M181.586,4.435c0.361,0.141,0.521,0.524,0.482,1.154
		c-0.081,0.561-0.302,0.805-0.663,0.734c-0.805-0.279-1.789-0.419-2.954-0.419c-1.97,0-3.819,0.28-5.547,0.839
		c-0.322,0.071-0.522-0.173-0.603-0.734c0-0.488,0.141-0.803,0.422-0.944c2.009-0.698,3.938-1.049,5.787-1.049
		C179.757,4.015,180.781,4.156,181.586,4.435z M181.827,1.917c0.2-0.139,0.381-0.069,0.542,0.21c0.442,0.91,0.845,1.924,1.206,3.042
		c0.121,0.49,0.061,0.839-0.181,1.049c-0.241,0.141-0.422,0.036-0.543-0.314c-0.281-0.908-0.663-1.923-1.146-3.042
		C181.586,2.512,181.625,2.197,181.827,1.917z M183.273,0.972c0.201-0.139,0.382-0.069,0.543,0.21
		c0.441,0.91,0.844,1.924,1.206,3.042c0.08,0.49,0.02,0.839-0.182,1.049c-0.24,0.141-0.422,0.036-0.542-0.314
		c-0.282-0.908-0.663-1.923-1.146-3.042C183.032,1.497,183.072,1.182,183.273,0.972z"/>
	<path fill="#FFFFFF" d="M191.533,2.756c0.321-0.069,0.582-0.069,0.784,0c0.361,0.21,0.603,0.595,0.723,1.154
		c0.08,0.28,0.121,0.7,0.121,1.259c-0.041,0.98-0.222,2.588-0.543,4.826l-0.301,1.678c1.365,0.351,2.813,1.085,4.34,2.203
		c0.121-2.586,0.182-4.65,0.182-6.189c0-0.698,0.181-1.049,0.542-1.049c0.362,0,0.543,0.351,0.543,1.049
		c0,2.029-0.081,4.337-0.241,6.924c1.045,0.84,1.728,1.469,2.05,1.889c0.241,0.42,0.302,0.909,0.181,1.469
		c-0.241,0.49-0.563,0.524-0.965,0.104c-0.442-0.488-0.904-0.979-1.387-1.469c-0.201,2.938-0.684,5.036-1.446,6.295
		c-0.724,1.188-1.85,2.203-3.376,3.042c-0.282,0.069-0.463-0.104-0.543-0.524c-0.081-0.42,0.02-0.734,0.302-0.944
		c1.285-0.699,2.25-1.607,2.894-2.728c0.643-1.188,1.025-3.147,1.146-5.875c-1.367-1.259-2.854-2.167-4.461-2.728
		c-0.402,2.099-0.805,3.882-1.206,5.351c-0.482,1.749-0.985,3.113-1.507,4.092c-0.443,0.699-0.926,1.049-1.447,1.049
		c-0.603,0-1.065-0.384-1.387-1.154c-0.322-0.769-0.482-1.747-0.482-2.938c0-1.679,0.382-3.32,1.146-4.931
		c0.924-1.747,2.311-2.762,4.16-3.042c0.482-3.147,0.724-5.175,0.724-6.085c0-0.488-0.061-0.803-0.182-0.944
		c-0.12-0.139-0.342-0.139-0.663,0c-0.603,0.21-1.769,0.456-3.496,0.734c-0.322,0-0.523-0.278-0.604-0.839
		c0-0.63,0.182-0.979,0.543-1.049l1.146-0.105l1.326-0.209L191.533,2.756z M188.036,15.24c-0.723,1.469-1.085,2.902-1.085,4.301
		c0.04,1.679,0.341,2.518,0.904,2.518c0.522,0.071,1.064-0.698,1.628-2.308c0.321-1.049,0.603-2.027,0.844-2.938
		c0.281-1.188,0.522-2.447,0.724-3.776C189.725,13.247,188.72,13.981,188.036,15.24z"/>
</g>
</svg>
