<?xml version="1.0" encoding="utf-8"?>
<!-- Generator: Adobe Illustrator 15.1.0, SVG Export Plug-In . SVG Version: 6.00 Build 0)  -->
<!DOCTYPE svg PUBLIC "-//W3C//DTD SVG 1.1//EN" "http://www.w3.org/Graphics/SVG/1.1/DTD/svg11.dtd">
<svg version="1.1" xmlns="http://www.w3.org/2000/svg" xmlns:xlink="http://www.w3.org/1999/xlink" x="0px" y="0px" width="200px"
	 height="27px" viewBox="0 0 200 27" enable-background="new 0 0 200 27" xml:space="preserve">
<g id="レイヤー_1">
	<g>
		<path fill="#FFFFFF" d="M17.947,2.336c0.895-0.21,1.567,0.036,2.015,0.734c0.319,0.839,0.159,1.678-0.48,2.518
			c-0.513,0.629-1.888,1.679-4.126,3.147c-2.176,1.329-4.16,2.378-5.95,3.147c3.326-0.419,5.662-0.698,7.006-0.839
			c1.982-0.209,3.966-0.454,5.95-0.734c0.703-0.069,1.056,0.21,1.056,0.839c0,0.561-0.321,0.875-0.96,0.944
			c-2.943,0.141-5.695,0.875-8.253,2.203c-2.56,1.329-3.839,2.938-3.839,4.826c0,1.189,0.543,2.202,1.632,3.042
			c1.214,0.839,2.654,1.259,4.318,1.259c1.855,0,3.038-0.034,3.551-0.104c0.639,0,0.959,0.314,0.959,0.943
			c0,0.56-0.256,0.874-0.768,0.944c-0.705,0.069-1.728,0.105-3.071,0.105c-3.008,0-5.247-0.734-6.718-2.203
			c-1.089-1.188-1.632-2.482-1.632-3.882c0-1.259,0.543-2.481,1.632-3.672c1.214-1.188,2.879-2.203,4.99-3.042
			c-3.392,0.28-7.23,0.771-11.517,1.469L2.303,14.19c-0.513,0.071-0.832-0.173-0.959-0.734c0-0.559,0.223-0.874,0.672-0.944
			c1.919-0.209,3.551-0.559,4.895-1.049c1.535-0.629,3.038-1.364,4.51-2.203c3.391-2.098,5.502-3.672,6.334-4.721
			c0.192-0.349,0.127-0.593-0.192-0.734c-3.968,0.561-7.934,0.944-11.9,1.154c-0.513,0-0.768-0.279-0.768-0.839
			c0-0.559,0.255-0.839,0.768-0.839c4.223-0.139,7.453-0.349,9.693-0.629C16.059,2.582,16.922,2.477,17.947,2.336z"/>
		<path fill="#FFFFFF" d="M45.49,7.267c1.598,1.958,2.399,4.406,2.399,7.343s-0.768,5.281-2.303,7.029
			c-1.728,1.817-4.095,2.796-7.102,2.938c-0.513,0-0.768-0.28-0.768-0.84c0-0.559,0.255-0.839,0.768-0.839
			c2.366,0,4.35-0.84,5.95-2.518c1.087-1.469,1.631-3.357,1.631-5.665c0-2.658-0.672-4.79-2.016-6.4
			c-1.6-1.678-3.615-2.481-6.046-2.413c-0.448,3.498-0.96,6.399-1.536,8.707c-0.705,3.008-1.568,5.281-2.591,6.819
			c-0.832,1.259-1.856,1.889-3.071,1.889c-1.089,0-2.08-0.525-2.975-1.574c-1.089-1.469-1.632-3.182-1.632-5.141
			c0-3.566,1.248-6.609,3.743-9.127c2.366-2.167,5.086-3.252,8.157-3.252C41.171,4.225,43.634,5.239,45.49,7.267z M30.422,9.26
			c-1.727,2.168-2.591,4.652-2.591,7.449c0,1.329,0.288,2.518,0.864,3.566c0.576,0.91,1.279,1.364,2.111,1.364
			c0.703,0,1.343-0.384,1.919-1.154c0.703-1.049,1.343-2.691,1.919-4.931c0.831-3.357,1.406-6.573,1.728-9.651
			C34.005,6.323,32.021,7.442,30.422,9.26z"/>
		<path fill="#FFFFFF" d="M54.703,1.497c0.576,0.07,0.831,0.456,0.768,1.154c-0.321,2.029-0.832,3.987-1.536,5.875v16.47
			c0,0.56-0.225,0.84-0.671,0.84c-0.449,0-0.672-0.28-0.672-0.84V11.778c-0.192,0.42-0.448,0.875-0.768,1.364
			c-0.384,0.561-0.801,0.734-1.248,0.525c-0.321-0.279-0.352-0.698-0.096-1.259c1.728-3.006,2.846-6.329,3.359-9.966
			C53.902,1.812,54.19,1.497,54.703,1.497z M63.917,2.441c0-0.559,0.223-0.839,0.671-0.839c0.447,0,0.672,0.28,0.672,0.839v5.141
			l4.319-1.574c1.022-0.209,1.536,0.351,1.536,1.679v9.232c0,1.469-0.641,2.203-1.919,2.203c-1.408,0-2.72-0.315-3.935-0.944v1.049
			c0,0.561-0.225,0.839-0.672,0.839c-0.448,0-0.671-0.278-0.671-0.839V9.785l-4.607,1.784v10.176c0,1.4,0.639,2.099,1.919,2.099
			h6.526c1.215,0,2.047-0.21,2.496-0.63c0.447-0.42,0.768-1.573,0.959-3.462c0.063-0.488,0.288-0.698,0.672-0.629
			c0.447,0,0.672,0.245,0.672,0.733c-0.192,2.519-0.544,4.056-1.056,4.616c-0.513,0.56-1.536,0.84-3.071,0.84h-7.678
			c-1.856,0-2.783-1.015-2.783-3.043V12.093l-1.919,0.734c-0.513,0.21-0.833,0.036-0.96-0.524c-0.129-0.63,0.032-1.013,0.48-1.154
			l2.399-0.839V4.644c0-0.559,0.224-0.839,0.672-0.839c0.447,0,0.672,0.281,0.672,0.839v5.141l4.607-1.679V2.441z M65.26,9.26v7.343
			c1.023,0.49,2.143,0.734,3.359,0.734c0.768,0,1.152-0.454,1.152-1.363V8.631c0-0.629-0.225-0.874-0.672-0.734L65.26,9.26z"/>
		<path fill="#FFFFFF" d="M97.41,5.378c-0.513,0.561-1.121,0.839-1.824,0.839l-0.096,1.154c-0.576,4.826-2.336,8.849-5.279,12.064
			c-2.816,3.078-6.718,4.931-11.708,5.56c-0.576,0-0.896-0.245-0.959-0.734c0-0.561,0.224-0.873,0.672-0.943
			c4.542-0.698,8.093-2.447,10.653-5.246c2.431-2.657,3.966-6.153,4.606-10.491c0-1.118-0.417-1.678-1.248-1.678H76.488
			c-0.513,0-0.768-0.315-0.768-0.944s0.255-0.944,0.768-0.944h16.411c-0.064-0.278-0.096-0.524-0.096-0.734
			c0-0.839,0.255-1.538,0.768-2.098c0.511-0.559,1.151-0.839,1.919-0.839c0.768,0,1.406,0.28,1.919,0.839
			c0.511,0.561,0.768,1.259,0.768,2.098S97.921,4.82,97.41,5.378z M96.93,1.707c-0.384-0.419-0.864-0.629-1.439-0.629
			c-0.576,0-1.056,0.21-1.44,0.629c-0.384,0.42-0.576,0.944-0.576,1.574s0.192,1.154,0.576,1.574
			c0.384,0.419,0.864,0.629,1.44,0.629c0.576,0,1.056-0.21,1.439-0.629s0.576-0.944,0.576-1.574S97.314,2.126,96.93,1.707z"/>
		<path fill="#FFFFFF" d="M119.675,9.68c0.447,0.42,0.672,1.015,0.672,1.784c-0.32,3.847-1.504,6.889-3.551,9.126
			c-2.688,2.938-6.559,4.476-11.612,4.616c-0.513-0.07-0.768-0.351-0.768-0.839c0-0.49,0.255-0.771,0.768-0.84
			c4.542-0.278,7.869-1.573,9.98-3.881c1.855-2.028,2.942-4.546,3.264-7.554c0-0.769-0.48-1.154-1.439-1.154h-15.739
			c-0.576,0-0.864-0.314-0.864-0.944s0.288-0.944,0.864-0.944h16.507C118.586,9.05,119.227,9.26,119.675,9.68z M118.907,3.805
			c0,0.63-0.257,0.944-0.768,0.944h-15.067c-0.513,0-0.768-0.314-0.768-0.944c0-0.629,0.287-0.944,0.863-0.944h14.972
			C118.65,2.861,118.907,3.175,118.907,3.805z"/>
		<path fill="#FFFFFF" d="M136.662,24.892c0.063,0.278,0,0.454-0.192,0.524c-0.191,0.069-0.352,0-0.479-0.21
			c-2.176-3.846-3.263-7.658-3.263-11.435c0-3.777,1.087-7.588,3.263-11.435c0.128-0.21,0.288-0.279,0.479-0.21
			c0.192,0.07,0.255,0.246,0.192,0.524c-1.664,3.637-2.495,7.344-2.495,11.121C134.167,17.548,134.998,21.256,136.662,24.892z"/>
		<path fill="#FFFFFF" d="M196.065,25.206c-0.129,0.21-0.288,0.279-0.479,0.21c-0.192-0.07-0.257-0.246-0.192-0.524
			c1.663-3.636,2.496-7.344,2.496-11.12c0-3.777-0.833-7.483-2.496-11.121c-0.064-0.279,0-0.454,0.192-0.524
			c0.191-0.069,0.351,0,0.479,0.21c2.175,3.847,3.264,7.658,3.264,11.435C199.329,17.548,198.24,21.36,196.065,25.206z"/>
	</g>
</g>
<g id="レイヤー_2">
	<g>
		<path fill="#FFFFFF" d="M145.516,4.436c-0.208,0.208-0.455,0.312-0.741,0.312l-0.039,0.43c-0.234,1.795-0.95,3.292-2.146,4.488
			c-1.146,1.146-2.732,1.834-4.763,2.069c-0.233,0-0.364-0.091-0.39-0.273c0-0.208,0.091-0.325,0.273-0.351
			c1.847-0.26,3.291-0.911,4.332-1.952c0.988-0.988,1.613-2.29,1.874-3.903c0-0.416-0.17-0.625-0.508-0.625h-6.401
			c-0.208,0-0.313-0.117-0.313-0.351s0.104-0.351,0.313-0.351h6.675c-0.026-0.104-0.039-0.195-0.039-0.273
			c0-0.312,0.104-0.572,0.313-0.781c0.207-0.208,0.468-0.312,0.78-0.312s0.572,0.104,0.78,0.312
			c0.208,0.208,0.313,0.469,0.313,0.781C145.828,3.968,145.724,4.228,145.516,4.436z M145.32,3.07
			c-0.155-0.156-0.351-0.234-0.585-0.234s-0.43,0.078-0.586,0.234s-0.233,0.351-0.233,0.585s0.077,0.429,0.233,0.585
			s0.352,0.234,0.586,0.234s0.43-0.078,0.585-0.234c0.156-0.156,0.234-0.351,0.234-0.585S145.477,3.226,145.32,3.07z"/>
		<path fill="#FFFFFF" d="M154.571,6.036c0.182,0.156,0.273,0.377,0.273,0.664c-0.131,1.432-0.612,2.563-1.444,3.396
			c-1.093,1.093-2.668,1.665-4.723,1.717c-0.209-0.026-0.313-0.13-0.313-0.313s0.104-0.287,0.313-0.312
			c1.847-0.104,3.2-0.585,4.059-1.444c0.755-0.754,1.197-1.691,1.327-2.81c0-0.286-0.194-0.43-0.585-0.43h-6.401
			c-0.234,0-0.352-0.117-0.352-0.351s0.117-0.351,0.352-0.351h6.714C154.129,5.802,154.389,5.88,154.571,6.036z M154.259,3.851
			c0,0.234-0.104,0.351-0.312,0.351h-6.129c-0.208,0-0.312-0.117-0.312-0.351c0-0.234,0.117-0.352,0.351-0.352h6.09
			C154.154,3.499,154.259,3.616,154.259,3.851z"/>
		<path fill="#FFFFFF" d="M163.861,3.968c0.155,0.104,0.221,0.26,0.194,0.468c-0.052,0.495-0.312,1.145-0.78,1.952
			c-0.391,0.677-0.858,1.34-1.405,1.99c0.807,0.443,1.509,0.898,2.107,1.366c0.494,0.391,0.859,0.716,1.094,0.976
			c0.13,0.208,0.13,0.404,0,0.585c-0.209,0.182-0.43,0.169-0.664-0.039c-0.494-0.521-1.002-1.001-1.522-1.444
			c-0.39-0.312-0.858-0.65-1.405-1.015c-0.729,0.677-1.443,1.236-2.146,1.678c-0.807,0.521-1.509,0.898-2.107,1.132
			c-0.209,0.052-0.352,0-0.43-0.156c-0.052-0.182,0-0.312,0.156-0.39c1.743-0.858,3.097-1.782,4.06-2.771
			c0.546-0.572,1.015-1.197,1.405-1.874c0.39-0.703,0.624-1.236,0.702-1.601c0-0.182-0.092-0.273-0.273-0.273h-5.347
			c-0.209,0-0.313-0.117-0.313-0.352c0-0.234,0.104-0.351,0.313-0.351h5.854C163.562,3.851,163.73,3.89,163.861,3.968z"/>
		<path fill="#FFFFFF" d="M173.893,3.499c0.26-0.052,0.429,0.026,0.507,0.234c0.052,0.234-0.039,0.404-0.273,0.507
			c-0.364,0.13-1.041,0.287-2.029,0.468v2.069h2.889c0.208,0,0.312,0.117,0.312,0.351c0,0.234-0.104,0.352-0.312,0.352h-2.928
			c-0.026,0.755-0.131,1.405-0.313,1.952c-0.182,0.573-0.429,1.002-0.741,1.288c-0.339,0.312-0.716,0.559-1.132,0.741
			c-0.443,0.182-0.95,0.325-1.522,0.43c-0.209,0-0.325-0.092-0.352-0.273c0-0.182,0.091-0.299,0.273-0.351
			c0.442-0.078,0.846-0.195,1.21-0.352c0.338-0.156,0.65-0.351,0.937-0.585c0.338-0.338,0.56-0.703,0.664-1.093
			c0.156-0.494,0.247-1.08,0.273-1.756h-4.528c-0.208,0-0.313-0.117-0.313-0.352c0-0.234,0.104-0.351,0.313-0.351h4.567V4.826
			c-1.302,0.208-2.537,0.338-3.708,0.391c-0.209,0-0.326-0.104-0.352-0.313c0-0.208,0.104-0.325,0.313-0.351
			c0.728-0.026,1.6-0.104,2.614-0.234C171.641,4.137,172.851,3.864,173.893,3.499z"/>
		<path fill="#FFFFFF" d="M177.873,6.153c0.182-0.052,0.325,0,0.43,0.156c0.313,0.521,0.572,1.132,0.78,1.834
			c0.052,0.234-0.013,0.39-0.194,0.468c-0.234,0.052-0.378-0.025-0.43-0.234c-0.156-0.52-0.391-1.118-0.703-1.795
			C177.679,6.401,177.717,6.258,177.873,6.153z M183.729,5.841c0.208,0.026,0.299,0.156,0.272,0.39
			c-0.233,1.926-0.755,3.292-1.561,4.098c-0.859,0.859-2.147,1.379-3.864,1.562c-0.209,0-0.326-0.078-0.352-0.234
			c-0.026-0.182,0.039-0.299,0.195-0.351c1.613-0.208,2.784-0.676,3.513-1.405c0.729-0.728,1.196-1.977,1.405-3.747
			C183.363,5.919,183.494,5.815,183.729,5.841z M180.099,5.763c0.155-0.052,0.285-0.013,0.39,0.117
			c0.469,0.625,0.794,1.263,0.976,1.913c0.053,0.234-0.013,0.391-0.194,0.469c-0.209,0.026-0.352-0.039-0.43-0.195
			c-0.234-0.703-0.521-1.34-0.858-1.913C179.903,5.972,179.942,5.841,180.099,5.763z"/>
		<path fill="#FFFFFF" d="M189.583,3.265c0.234,0.026,0.352,0.156,0.352,0.39l-0.078,0.39h3.864c0.78,0,1.145,0.352,1.093,1.054
			c-0.053,0.78-0.326,1.653-0.82,2.615c-0.416,0.833-0.885,1.509-1.404,2.029c-1.171,1.171-2.746,1.874-4.724,2.108
			c-0.208,0-0.325-0.104-0.351-0.313c0-0.182,0.091-0.287,0.272-0.312c1.848-0.286,3.266-0.923,4.255-1.913
			c0.962-0.962,1.613-2.211,1.951-3.747c0.026-0.182,0.039-0.325,0.039-0.429c0-0.26-0.155-0.391-0.468-0.391h-3.903
			c-0.442,1.354-1.236,2.368-2.381,3.044c-0.209,0.104-0.365,0.078-0.469-0.078c-0.078-0.13-0.052-0.26,0.078-0.391
			c1.249-0.858,1.991-2.094,2.225-3.708C189.166,3.356,189.322,3.239,189.583,3.265z"/>
	</g>
</g>
<g id="レイヤー_3">
	<g>
		<path fill="#FFFFFF" d="M138.906,14.643c0-0.207,0.091-0.311,0.272-0.311c0.181,0,0.271,0.104,0.271,0.311v0.35h1.749
			c0.181,0,0.272,0.078,0.272,0.233s-0.092,0.233-0.272,0.233h-1.749v0.583h2.332c0.181,0,0.272,0.077,0.272,0.232
			c0,0.156-0.092,0.233-0.272,0.233h-2.332v0.661h1.594c0.155,0,0.298,0.064,0.428,0.194c0.129,0.13,0.194,0.271,0.194,0.427v0.7
			c0,0.389-0.156,0.608-0.467,0.66v0.661h3.848c0.207,0,0.311,0.091,0.311,0.271c0,0.182-0.104,0.272-0.311,0.272h-3.653
			c0.285,0.44,0.635,0.842,1.05,1.205c0.414-0.259,0.79-0.544,1.127-0.855c0.207-0.207,0.401-0.233,0.583-0.077
			c0.103,0.182,0.051,0.35-0.156,0.505c-0.362,0.285-0.726,0.531-1.088,0.738c0.622,0.389,1.334,0.635,2.138,0.738
			c0.285,0.052,0.414,0.168,0.389,0.35c0,0.182-0.143,0.272-0.428,0.272c-1.865-0.233-3.277-1.191-4.236-2.876
			c-0.57,0.44-1.153,0.804-1.749,1.088v1.166c0.647-0.13,1.296-0.298,1.943-0.505c0.207-0.078,0.337-0.052,0.389,0.077
			c0.052,0.156-0.013,0.272-0.194,0.351c-1.398,0.466-2.694,0.751-3.886,0.854c-0.208-0.026-0.312-0.116-0.312-0.271
			c0-0.156,0.091-0.247,0.272-0.272c0.336-0.026,0.751-0.078,1.243-0.155v-1.089c-0.647,0.233-1.243,0.376-1.787,0.428
			c-0.13,0.026-0.221-0.039-0.272-0.194c-0.026-0.155,0.039-0.246,0.194-0.271c1.27-0.233,2.357-0.635,3.265-1.205h-3.109
			c-0.207,0-0.311-0.091-0.311-0.272c0-0.181,0.104-0.271,0.311-0.271h3.887V19.15c-0.182,0-0.363-0.025-0.544-0.077
			c-0.155-0.052-0.221-0.143-0.194-0.272c0-0.129,0.077-0.194,0.233-0.194c0.181,0.026,0.414,0.039,0.699,0.039
			c0.181,0,0.271-0.104,0.271-0.311v-0.389c0-0.207-0.104-0.312-0.311-0.312h-1.36v1.244c0,0.207-0.091,0.311-0.271,0.311
			c-0.182,0-0.272-0.104-0.272-0.311v-1.244h-1.127c-0.208,0-0.311,0.104-0.311,0.312v0.894c0,0.208-0.092,0.311-0.272,0.311
			c-0.182,0-0.272-0.103-0.272-0.311v-1.05c0-0.155,0.064-0.297,0.194-0.427s0.272-0.194,0.428-0.194h1.36v-0.661h-2.293
			c-0.182,0-0.271-0.077-0.271-0.233c0-0.155,0.09-0.232,0.271-0.232h0.389c0.233-0.492,0.414-0.946,0.544-1.36
			c0.052-0.182,0.168-0.259,0.35-0.233c0.182,0.052,0.246,0.169,0.194,0.35l-0.038,0.194h0.854V14.643z M137.624,16.042h1.282
			v-0.583h-0.972L137.624,16.042z M142.909,14.837c0.181,0,0.272,0.104,0.272,0.311v2.293c0,0.208-0.092,0.312-0.272,0.312
			c-0.182,0-0.271-0.104-0.271-0.312v-2.293C142.638,14.94,142.728,14.837,142.909,14.837z M144.542,14.798
			c0-0.207,0.09-0.311,0.271-0.311c0.181,0,0.272,0.104,0.272,0.311v3.343c0,0.647-0.324,0.972-0.972,0.972
			c-0.441,0-0.855-0.052-1.244-0.156c-0.13-0.052-0.194-0.142-0.194-0.271c0.025-0.13,0.104-0.194,0.233-0.194
			c0.44,0.077,0.777,0.104,1.011,0.077c0.414-0.051,0.622-0.311,0.622-0.777V14.798z"/>
		<path fill="#FFFFFF" d="M154.297,16.469c0.646,0.726,0.971,1.633,0.971,2.721s-0.311,1.957-0.933,2.604
			c-0.699,0.674-1.658,1.036-2.876,1.089c-0.207,0-0.311-0.104-0.311-0.312s0.104-0.311,0.311-0.311c0.959,0,1.762-0.311,2.41-0.933
			c0.44-0.544,0.66-1.244,0.66-2.099c0-0.984-0.271-1.774-0.815-2.371c-0.648-0.621-1.465-0.919-2.449-0.894
			c-0.181,1.296-0.389,2.371-0.621,3.226c-0.286,1.114-0.636,1.957-1.05,2.526c-0.337,0.466-0.752,0.699-1.243,0.699
			c-0.441,0-0.843-0.194-1.205-0.583c-0.44-0.544-0.66-1.179-0.66-1.904c0-1.321,0.505-2.448,1.516-3.381
			c0.958-0.803,2.06-1.205,3.303-1.205C152.548,15.342,153.545,15.718,154.297,16.469z M148.195,17.208
			c-0.7,0.803-1.05,1.723-1.05,2.759c0,0.492,0.116,0.933,0.35,1.321c0.233,0.337,0.519,0.505,0.855,0.505
			c0.284,0,0.544-0.142,0.777-0.427c0.284-0.389,0.544-0.997,0.777-1.827c0.336-1.243,0.569-2.435,0.699-3.575
			C149.646,16.119,148.842,16.534,148.195,17.208z"/>
		<path fill="#FFFFFF" d="M164.945,19.462c0.233,0.104,0.323,0.246,0.271,0.427c-0.077,0.233-0.259,0.299-0.544,0.194
			c-1.398-0.466-2.617-1.217-3.653-2.254c-0.104-0.077-0.22-0.077-0.35,0c-1.14,1.141-2.448,1.931-3.925,2.371
			c-0.233,0.052-0.376-0.025-0.428-0.233c0-0.181,0.091-0.298,0.272-0.35c1.373-0.389,2.643-1.205,3.809-2.448
			c0.207-0.207,0.453-0.207,0.738,0C162.043,18.153,163.313,18.918,164.945,19.462z M160.398,14.721c0-0.259,0.116-0.389,0.35-0.389
			s0.35,0.13,0.35,0.389v0.505h3.343c0.155,0,0.297,0.064,0.427,0.194s0.194,0.271,0.194,0.428v1.01
			c0,0.208-0.091,0.312-0.271,0.312c-0.182,0-0.272-0.104-0.272-0.312V16.08c0-0.207-0.104-0.311-0.311-0.311h-6.918
			c-0.208,0-0.311,0.104-0.311,0.311v0.855c0,0.208-0.092,0.311-0.272,0.311c-0.182,0-0.271-0.103-0.271-0.311v-1.088
			c0-0.156,0.063-0.298,0.194-0.428c0.129-0.13,0.271-0.194,0.427-0.194h3.343V14.721z M159.154,16.313
			c0.207,0.104,0.233,0.285,0.078,0.544c-0.415,0.57-1.102,1.076-2.06,1.516c-0.233,0.078-0.389,0.039-0.467-0.116
			c-0.052-0.181,0.025-0.323,0.233-0.428c0.881-0.389,1.477-0.854,1.788-1.398C158.856,16.274,158.999,16.236,159.154,16.313z
			 M163.585,20.161c0.155,0,0.298,0.065,0.428,0.194c0.129,0.13,0.194,0.272,0.194,0.428v1.787c0,0.156-0.065,0.298-0.194,0.428
			c-0.13,0.13-0.272,0.194-0.428,0.194h-5.713c-0.155,0-0.298-0.064-0.428-0.194s-0.194-0.271-0.194-0.428v-1.787
			c0-0.155,0.064-0.298,0.194-0.428c0.13-0.129,0.272-0.194,0.428-0.194H163.585z M157.95,21.094v1.166
			c0,0.259,0.129,0.389,0.389,0.389h4.779c0.259,0,0.389-0.13,0.389-0.389v-1.166c0-0.259-0.13-0.389-0.389-0.389h-4.779
			C158.079,20.705,157.95,20.835,157.95,21.094z M162.225,16.469c0.078-0.155,0.22-0.194,0.428-0.116
			c0.751,0.337,1.386,0.738,1.904,1.205c0.181,0.182,0.22,0.363,0.116,0.544c-0.155,0.182-0.337,0.182-0.544,0
			c-0.647-0.544-1.243-0.972-1.787-1.282C162.211,16.716,162.173,16.599,162.225,16.469z"/>
		<path fill="#FFFFFF" d="M170.736,17.052c0.181,0,0.271,0.092,0.271,0.272c0,0.13-0.039,0.324-0.116,0.583h4.042
			c0.181,0,0.271,0.077,0.271,0.233c0,0.155-0.091,0.232-0.271,0.232h-3.653c0.984,0.597,2.188,0.946,3.614,1.05
			c0.233,0.026,0.35,0.143,0.35,0.35c-0.026,0.182-0.169,0.272-0.428,0.272c-1.606-0.104-3.006-0.622-4.197-1.555
			c-0.829,0.933-2.215,1.438-4.158,1.516c-0.208,0-0.311-0.078-0.311-0.233c0-0.181,0.103-0.272,0.311-0.272
			c1.633-0.103,2.772-0.479,3.42-1.127h-3.42c-0.182,0-0.271-0.077-0.271-0.232c0-0.156,0.09-0.233,0.271-0.233h3.731
			c0.051-0.104,0.116-0.272,0.194-0.505C170.438,17.169,170.555,17.052,170.736,17.052z M169.57,14.682
			c0.336,0,0.505,0.169,0.505,0.505v1.438c0,0.337-0.169,0.505-0.505,0.505h-2.371c-0.337,0-0.505-0.168-0.505-0.505v-1.438
			c0-0.336,0.168-0.505,0.505-0.505H169.57z M169.687,20.277c0.337,0,0.506,0.169,0.506,0.506v1.904
			c0,0.336-0.169,0.505-0.506,0.505h-2.332c-0.337,0-0.505-0.169-0.505-0.505v-1.904c0-0.337,0.168-0.506,0.505-0.506H169.687z
			 M167.238,15.342v1.127c0,0.13,0.064,0.194,0.194,0.194h1.904c0.129,0,0.194-0.064,0.194-0.194v-1.127
			c0-0.129-0.065-0.194-0.194-0.194h-1.904C167.303,15.147,167.238,15.213,167.238,15.342z M167.394,20.938v1.594
			c0,0.129,0.064,0.194,0.194,0.194h1.865c0.13,0,0.194-0.065,0.194-0.194v-1.594c0-0.129-0.064-0.194-0.194-0.194h-1.865
			C167.458,20.744,167.394,20.81,167.394,20.938z M174.039,20.277c0.337,0,0.506,0.169,0.506,0.506v1.904
			c0,0.336-0.169,0.505-0.506,0.505h-2.331c-0.338,0-0.506-0.169-0.506-0.505v-1.904c0-0.337,0.168-0.506,0.506-0.506H174.039z
			 M174.156,14.682c0.336,0,0.505,0.169,0.505,0.505v1.438c0,0.337-0.169,0.505-0.505,0.505h-2.332
			c-0.337,0-0.505-0.168-0.505-0.505v-1.438c0-0.336,0.168-0.505,0.505-0.505H174.156z M171.746,20.938v1.594
			c0,0.129,0.064,0.194,0.194,0.194h1.866c0.129,0,0.194-0.065,0.194-0.194v-1.594c0-0.129-0.065-0.194-0.194-0.194h-1.866
			C171.811,20.744,171.746,20.81,171.746,20.938z M171.863,15.342v1.127c0,0.13,0.064,0.194,0.194,0.194h1.865
			c0.129,0,0.194-0.064,0.194-0.194v-1.127c0-0.129-0.065-0.194-0.194-0.194h-1.865C171.928,15.147,171.863,15.213,171.863,15.342z"
			/>
		<path fill="#FFFFFF" d="M178.393,14.409c0.284,0.078,0.311,0.363,0.077,0.855h5.48c0.155,0,0.297,0.064,0.427,0.194
			s0.194,0.271,0.194,0.427v3.109c0,1.451-0.726,2.177-2.176,2.177c-0.597,0-1.153-0.039-1.672-0.117
			c-0.259-0.052-0.388-0.155-0.388-0.311c0-0.233,0.103-0.337,0.311-0.311c0.751,0.077,1.269,0.116,1.555,0.116
			c1.113,0,1.671-0.557,1.671-1.671v-2.643c0-0.285-0.143-0.428-0.428-0.428h-5.169c-0.466,0.881-0.984,1.516-1.555,1.904
			c-0.207,0.13-0.362,0.143-0.466,0.039c-0.104-0.13-0.065-0.272,0.116-0.428c0.829-0.777,1.348-1.619,1.555-2.526
			C178.029,14.514,178.185,14.384,178.393,14.409z M181.618,17.052c0.155,0,0.297,0.065,0.428,0.194
			c0.129,0.13,0.194,0.272,0.194,0.428v1.438c0,0.155-0.065,0.298-0.194,0.427c-0.131,0.13-0.272,0.194-0.428,0.194h-3.459
			c-0.285,0-0.428,0.143-0.428,0.428v1.788c0,0.466,0.233,0.699,0.7,0.699h5.091c0.596,0,0.894-0.298,0.894-0.894v-0.544
			c0-0.208,0.091-0.312,0.272-0.312c0.181,0,0.271,0.104,0.271,0.312v0.894c0,0.285-0.104,0.53-0.311,0.738
			c-0.233,0.233-0.583,0.35-1.05,0.35h-5.44c-0.752,0-1.127-0.376-1.127-1.127v-2.254c0-0.155,0.064-0.298,0.194-0.428
			c0.129-0.129,0.271-0.194,0.428-0.194h3.73c0.207,0,0.311-0.104,0.311-0.311v-0.972c0-0.207-0.104-0.312-0.311-0.312h-3.73
			c-0.208,0-0.312-0.09-0.312-0.271c0-0.181,0.104-0.272,0.312-0.272H181.618z"/>
		<path fill="#FFFFFF" d="M190.323,18.918c0-0.207,0.091-0.312,0.272-0.312c0.181,0,0.271,0.104,0.271,0.312v0.505h3.887
			c0.207,0,0.311,0.091,0.311,0.271c0,0.182-0.104,0.272-0.311,0.272h-3.536c0.284,0.544,0.621,0.985,1.01,1.321
			c0.492-0.285,0.907-0.569,1.244-0.854c0.181-0.13,0.336-0.143,0.466-0.039c0.182,0.182,0.169,0.363-0.038,0.544
			c-0.389,0.259-0.816,0.492-1.283,0.699c0.7,0.519,1.425,0.868,2.177,1.05c0.207,0.052,0.298,0.168,0.271,0.35
			c-0.025,0.207-0.207,0.285-0.544,0.233c-1.735-0.441-3.031-1.541-3.886-3.304h-0.312c-0.389,0.415-0.854,0.791-1.398,1.127v1.438
			c0.647-0.104,1.321-0.298,2.021-0.583c0.155-0.052,0.272-0.013,0.35,0.116c0.052,0.155,0,0.272-0.155,0.35
			c-1.011,0.519-2.254,0.855-3.73,1.011c-0.286,0.025-0.428-0.078-0.428-0.311c0-0.182,0.116-0.286,0.35-0.312l1.05-0.155v-1.243
			c-0.7,0.311-1.309,0.531-1.827,0.66c-0.259,0.053-0.402-0.013-0.428-0.194c0-0.155,0.091-0.259,0.272-0.311
			c1.243-0.337,2.279-0.868,3.109-1.594h-3.07c-0.208,0-0.312-0.091-0.312-0.272c0-0.181,0.104-0.271,0.312-0.271h3.886V18.918z
			 M188.264,14.721c0-0.207,0.091-0.312,0.272-0.312c0.181,0,0.271,0.104,0.271,0.312v3.614c0,0.207-0.091,0.311-0.271,0.311
			c-0.182,0-0.272-0.104-0.272-0.311V17.13c-0.337,0.311-0.804,0.66-1.399,1.049c-0.285,0.182-0.492,0.169-0.621-0.038
			c-0.053-0.182,0.025-0.324,0.233-0.428c0.673-0.389,1.269-0.79,1.787-1.205V14.721z M186.554,14.798
			c0.13-0.077,0.259-0.052,0.389,0.078c0.285,0.363,0.518,0.738,0.699,1.127c0.078,0.233,0.039,0.389-0.116,0.466
			c-0.208,0.078-0.363,0-0.467-0.232c-0.155-0.363-0.35-0.726-0.582-1.089C186.398,14.992,186.424,14.876,186.554,14.798z
			 M191.917,14.721c0-0.207,0.091-0.312,0.272-0.312c0.181,0,0.271,0.104,0.271,0.312v0.776h2.293c0.207,0,0.311,0.092,0.311,0.272
			c0,0.182-0.104,0.272-0.311,0.272h-2.293v1.593h2.06c0.207,0,0.312,0.092,0.312,0.272c0,0.182-0.104,0.271-0.312,0.271h-4.702
			c-0.208,0-0.311-0.09-0.311-0.271c0-0.181,0.103-0.272,0.311-0.272h2.099v-1.593h-2.332c-0.207,0-0.311-0.091-0.311-0.272
			c0-0.181,0.104-0.272,0.311-0.272h2.332V14.721z"/>
	</g>
</g>
</svg>
