<?xml version="1.0" encoding="utf-8"?>
<!-- Generator: Adobe Illustrator 15.1.0, SVG Export Plug-In . SVG Version: 6.00 Build 0)  -->
<!DOCTYPE svg PUBLIC "-//W3C//DTD SVG 1.1//EN" "http://www.w3.org/Graphics/SVG/1.1/DTD/svg11.dtd">
<svg version="1.1" id="レイヤー_1" xmlns="http://www.w3.org/2000/svg" xmlns:xlink="http://www.w3.org/1999/xlink" x="0px"
	 y="0px" width="200px" height="27px" viewBox="0 0 200 27" enable-background="new 0 0 200 27" xml:space="preserve">
<g>
	<path fill="#FFFFFF" d="M20.858,2.181c1.041-0.213,1.821,0.037,2.342,0.744c0.372,0.851,0.185,1.701-0.558,2.552
		c-0.596,0.638-2.194,1.702-4.796,3.19c-2.529,1.348-4.834,2.411-6.915,3.19c3.865-0.425,6.581-0.708,8.142-0.851
		c2.304-0.212,4.61-0.46,6.916-0.744c0.817-0.07,1.227,0.212,1.227,0.851c0,0.568-0.373,0.887-1.115,0.957
		c-3.421,0.143-6.62,0.887-9.593,2.232c-2.975,1.348-4.461,2.978-4.461,4.892c0,1.206,0.631,2.232,1.896,3.083
		c1.412,0.851,3.085,1.276,5.02,1.276c2.156,0,3.531-0.035,4.127-0.106c0.742,0,1.115,0.319,1.115,0.957
		c0,0.566-0.298,0.886-0.892,0.957c-0.819,0.069-2.008,0.106-3.569,0.106c-3.496,0-6.098-0.744-7.808-2.233
		c-1.265-1.204-1.896-2.515-1.896-3.934c0-1.276,0.631-2.516,1.896-3.722c1.412-1.204,3.346-2.233,5.8-3.083
		c-3.942,0.284-8.404,0.781-13.385,1.488l-1.673,0.212c-0.596,0.072-0.967-0.176-1.115-0.744c0-0.567,0.26-0.886,0.781-0.957
		c2.231-0.213,4.127-0.567,5.688-1.063c1.785-0.638,3.531-1.382,5.243-2.233c3.94-2.126,6.394-3.722,7.361-4.785
		c0.223-0.354,0.148-0.602-0.223-0.744C15.8,4.237,11.19,4.626,6.581,4.839c-0.596,0-0.893-0.283-0.893-0.851
		c0-0.566,0.296-0.851,0.893-0.851c4.908-0.142,8.662-0.354,11.265-0.638C18.664,2.43,19.667,2.323,20.858,2.181z"/>
	<path fill="#FFFFFF" d="M62.351,7.178c1.858,1.985,2.789,4.466,2.789,7.443c0,2.978-0.893,5.353-2.677,7.124
		c-2.008,1.843-4.76,2.834-8.254,2.978c-0.596,0-0.893-0.284-0.893-0.851s0.296-0.851,0.893-0.851c2.75,0,5.056-0.851,6.916-2.553
		c1.264-1.488,1.896-3.402,1.896-5.741c0-2.693-0.781-4.854-2.342-6.486c-1.859-1.701-4.202-2.515-7.027-2.445
		c-0.521,3.545-1.116,6.486-1.785,8.825c-0.819,3.049-1.823,5.353-3.012,6.911c-0.967,1.276-2.158,1.914-3.569,1.914
		c-1.265,0-2.417-0.531-3.458-1.595c-1.266-1.488-1.896-3.225-1.896-5.21c0-3.615,1.45-6.699,4.35-9.251
		c2.75-2.196,5.912-3.296,9.481-3.296S60.193,5.123,62.351,7.178z M44.839,9.198c-2.007,2.198-3.011,4.715-3.011,7.55
		c0,1.347,0.334,2.552,1.004,3.615c0.669,0.922,1.486,1.382,2.454,1.382c0.817,0,1.562-0.389,2.231-1.17
		c0.817-1.063,1.562-2.728,2.231-4.997c0.965-3.403,1.635-6.662,2.007-9.782C49.003,6.221,46.697,7.356,44.839,9.198z"/>
	<path fill="#FFFFFF" d="M82.54,1.33c0.669,0.071,0.966,0.462,0.893,1.169c-0.373,2.057-0.967,4.041-1.785,5.955v16.693
		c0,0.566-0.262,0.851-0.781,0.851c-0.521,0-0.781-0.284-0.781-0.851V11.75c-0.223,0.425-0.521,0.887-0.893,1.382
		c-0.446,0.568-0.931,0.745-1.45,0.532c-0.373-0.282-0.41-0.708-0.112-1.276c2.008-3.047,3.308-6.415,3.904-10.101
		C81.609,1.649,81.943,1.33,82.54,1.33z M93.248,2.287c0-0.567,0.26-0.851,0.781-0.851c0.52,0,0.781,0.284,0.781,0.851v5.21
		l5.019-1.595c1.188-0.213,1.785,0.355,1.785,1.701v9.356c0,1.489-0.745,2.233-2.231,2.233c-1.637,0-3.162-0.319-4.573-0.957V19.3
		c0,0.568-0.261,0.851-0.781,0.851c-0.521,0-0.781-0.282-0.781-0.851V9.73l-5.354,1.808v10.314c0,1.419,0.743,2.127,2.231,2.127
		h7.584c1.412,0,2.379-0.213,2.9-0.639c0.52-0.425,0.892-1.595,1.115-3.509c0.073-0.495,0.335-0.708,0.78-0.638
		c0.52,0,0.781,0.249,0.781,0.744c-0.223,2.552-0.633,4.11-1.227,4.679c-0.597,0.566-1.785,0.851-3.57,0.851h-8.923
		c-2.158,0-3.235-1.028-3.235-3.084V12.069l-2.231,0.744c-0.596,0.213-0.967,0.037-1.115-0.532c-0.15-0.638,0.037-1.027,0.558-1.169
		l2.789-0.851V4.52c0-0.567,0.26-0.851,0.781-0.851c0.52,0,0.781,0.284,0.781,0.851v5.21l5.354-1.701V2.287z M94.809,9.198v7.443
		c1.188,0.496,2.49,0.744,3.904,0.744c0.893,0,1.338-0.46,1.338-1.383V8.561c0-0.638-0.261-0.886-0.781-0.745L94.809,9.198z"/>
	<path fill="#FFFFFF" d="M160.73,5.264c-0.597,0.568-1.303,0.851-2.12,0.851l-0.111,1.169c-0.669,4.891-2.715,8.969-6.135,12.229
		c-3.272,3.119-7.808,4.997-13.607,5.635c-0.669,0-1.042-0.249-1.115-0.744c0-0.568,0.26-0.886,0.78-0.957
		c5.279-0.708,9.406-2.48,12.381-5.316c2.825-2.693,4.61-6.237,5.354-10.633c0-1.133-0.484-1.701-1.45-1.701h-18.293
		c-0.596,0-0.892-0.319-0.892-0.957c0-0.638,0.296-0.957,0.892-0.957h19.073c-0.074-0.282-0.111-0.532-0.111-0.744
		c0-0.851,0.297-1.559,0.893-2.127c0.595-0.566,1.339-0.851,2.23-0.851c0.893,0,1.635,0.284,2.231,0.851
		c0.594,0.568,0.892,1.276,0.892,2.127S161.324,4.698,160.73,5.264z M160.173,1.542c-0.446-0.425-1.004-0.638-1.674-0.638
		c-0.669,0-1.227,0.212-1.673,0.638s-0.669,0.957-0.669,1.595c0,0.638,0.223,1.169,0.669,1.595s1.004,0.638,1.673,0.638
		c0.67,0,1.228-0.213,1.674-0.638c0.445-0.425,0.669-0.957,0.669-1.595C160.842,2.5,160.618,1.968,160.173,1.542z"/>
	<path fill="#FFFFFF" d="M196.088,9.624c0.52,0.425,0.781,1.028,0.781,1.808c-0.373,3.899-1.748,6.983-4.127,9.25
		c-3.123,2.978-7.623,4.536-13.496,4.679c-0.597-0.071-0.893-0.355-0.893-0.851c0-0.497,0.296-0.781,0.893-0.851
		c5.278-0.282,9.146-1.595,11.6-3.935c2.156-2.055,3.42-4.606,3.793-7.655c0-0.779-0.558-1.17-1.674-1.17h-18.292
		c-0.67,0-1.004-0.319-1.004-0.957c0-0.638,0.334-0.957,1.004-0.957h19.185C194.823,8.986,195.567,9.198,196.088,9.624z
		 M195.196,3.669c0,0.638-0.298,0.957-0.893,0.957h-17.512c-0.596,0-0.893-0.319-0.893-0.957c0-0.638,0.335-0.957,1.004-0.957h17.4
		C194.898,2.712,195.196,3.031,195.196,3.669z"/>
</g>
</svg>
