<?xml version="1.0" encoding="utf-8"?>
<!-- Generator: Adobe Illustrator 15.1.0, SVG Export Plug-In . SVG Version: 6.00 Build 0)  -->
<!DOCTYPE svg PUBLIC "-//W3C//DTD SVG 1.1//EN" "http://www.w3.org/Graphics/SVG/1.1/DTD/svg11.dtd">
<svg version="1.1" id="レイヤー_3" xmlns="http://www.w3.org/2000/svg" xmlns:xlink="http://www.w3.org/1999/xlink" x="0px"
	 y="0px" width="200px" height="20px" viewBox="0 0 200 20" enable-background="new 0 0 200 20" xml:space="preserve">
<g>
	<path fill="#FFFFFF" d="M21.867,3.672c-0.247,0.012-0.458-0.006-0.635-0.053c-0.176-0.059-0.265-0.2-0.265-0.424
		c-0.012-0.223,0.041-0.376,0.159-0.458c0.117-0.082,0.341-0.118,0.67-0.106c3.07-0.153,5.716-0.358,7.939-0.618
		c0.588-0.094,1.012-0.046,1.271,0.142c0.271,0.223,0.406,0.518,0.406,0.882C31.4,3.508,30.806,4.12,29.63,4.872
		c-2.117,1.376-4.716,2.593-7.798,3.652c-0.071,0.024-0.112,0.042-0.124,0.053c1.07-0.106,2.435-0.271,4.093-0.494
		c2.94-0.412,5.434-0.659,7.48-0.741c0.035-0.012,0.059-0.018,0.07-0.018c0.212-0.023,0.376,0.006,0.494,0.088
		c0.118,0.094,0.176,0.235,0.176,0.423c0,0.177-0.059,0.306-0.176,0.388c-0.141,0.094-0.306,0.147-0.494,0.159
		c-2.399,0.259-4.258,0.67-5.575,1.235c-1.129,0.471-2.017,1.006-2.664,1.606c-0.553,0.494-0.829,1.059-0.829,1.694
		c0,0.8,0.459,1.435,1.376,1.905c1.035,0.541,2.911,0.812,5.628,0.812c0.2,0,0.341,0.053,0.423,0.159
		c0.094,0.105,0.141,0.229,0.141,0.37c-0.012,0.141-0.059,0.265-0.141,0.37c-0.094,0.106-0.235,0.159-0.423,0.159
		c-3.129,0-5.24-0.342-6.334-1.023c-1.153-0.729-1.729-1.646-1.729-2.752c0-0.8,0.265-1.5,0.794-2.1
		c0.741-0.835,2.247-1.576,4.517-2.223c-1,0.083-2.088,0.2-3.264,0.353c-2.8,0.365-4.781,0.617-5.946,0.759
		c-0.294,0.059-0.482,0.047-0.564-0.035c-0.083-0.083-0.13-0.2-0.141-0.354c0-0.188,0.041-0.323,0.124-0.406
		c0.105-0.105,0.3-0.194,0.582-0.265c2.917-1.035,5.122-1.94,6.616-2.717c1.2-0.624,2.37-1.341,3.511-2.152
		c0.447-0.318,0.67-0.518,0.67-0.6c-0.023-0.047-0.042-0.076-0.053-0.088c-0.047-0.023-0.094-0.029-0.141-0.018
		C27.319,3.332,24.631,3.531,21.867,3.672z"/>
	<path fill="#FFFFFF" d="M59.977,15.018c-0.742,0.812-1.553,1.217-2.435,1.217c-0.871,0-1.588-0.405-2.152-1.217
		c-0.612-0.895-0.917-2.064-0.917-3.512c0.011-2.6,0.747-4.746,2.205-6.44c1.435-1.646,3.264-2.47,5.487-2.47
		c2.258,0,4.093,0.706,5.504,2.117c1.4,1.411,2.1,3.129,2.1,5.151c0,1.977-0.518,3.606-1.553,4.888
		c-0.917,1.117-2.088,1.853-3.511,2.205c-0.271,0.059-0.447,0.053-0.529-0.018c-0.105-0.07-0.165-0.2-0.176-0.389
		c-0.013-0.188,0.041-0.341,0.158-0.458c0.117-0.095,0.3-0.159,0.547-0.194c1.082-0.271,2-0.918,2.753-1.94
		c0.835-1.13,1.252-2.494,1.252-4.094c0-1.67-0.588-3.105-1.764-4.305c-1-1.023-2.188-1.629-3.564-1.817
		c-0.211,2.847-0.623,5.205-1.234,7.075C61.511,12.724,60.788,14.123,59.977,15.018z M61.264,10.042
		c0.518-1.694,0.871-3.817,1.059-6.369c-0.059-0.012-0.111-0.018-0.158-0.018c-1.823,0.012-3.358,0.676-4.605,1.994
		c-1.353,1.435-2.029,3.387-2.029,5.857c0,1.165,0.211,2.082,0.635,2.753c0.388,0.611,0.847,0.917,1.376,0.917
		c0.67,0,1.293-0.37,1.87-1.111C60.082,13.229,60.699,11.889,61.264,10.042z"/>
	<path fill="#FFFFFF" d="M92.88,1.326c0.106-0.082,0.235-0.117,0.389-0.105c0.152,0.047,0.271,0.112,0.353,0.194
		c0.071,0.129,0.1,0.282,0.089,0.458c-0.259,1.529-0.583,2.858-0.971,3.987v11.186c0,0.165-0.053,0.3-0.159,0.406
		c-0.094,0.094-0.218,0.146-0.37,0.158c-0.142-0.012-0.265-0.059-0.37-0.141c-0.095-0.106-0.142-0.247-0.142-0.424V8.313
		c-0.271,0.529-0.547,0.994-0.829,1.394c-0.106,0.164-0.229,0.253-0.37,0.265c-0.142,0.023-0.271-0.006-0.389-0.089
		c-0.13-0.105-0.2-0.217-0.212-0.335c-0.012-0.141,0.023-0.282,0.106-0.423c0.752-1.141,1.329-2.247,1.729-3.317
		c0.471-1.247,0.782-2.611,0.936-4.093C92.692,1.538,92.763,1.408,92.88,1.326z M100.926,12.953c0,0.165-0.054,0.3-0.159,0.405
		c-0.094,0.095-0.218,0.147-0.37,0.159c-0.142-0.012-0.265-0.059-0.371-0.142c-0.094-0.105-0.141-0.246-0.141-0.423V5.931
		l-3.405,1.094v7.058c0.047,0.694,0.194,1.206,0.441,1.535c0.199,0.247,0.499,0.394,0.899,0.441c0.765,0.094,1.8,0.135,3.105,0.123
		c1.329-0.023,2.246-0.123,2.752-0.3c0.623-0.247,0.977-0.624,1.059-1.129c0.012-0.083,0.023-0.165,0.035-0.247
		c0.012-0.106,0.023-0.377,0.035-0.812c0.012-0.177,0.071-0.318,0.177-0.424c0.094-0.082,0.218-0.117,0.37-0.105
		c0.153,0,0.271,0.053,0.354,0.158c0.105,0.106,0.152,0.247,0.141,0.424c-0.023,0.471-0.041,0.776-0.053,0.917
		c-0.023,0.13-0.041,0.253-0.053,0.371c-0.165,0.964-0.653,1.575-1.465,1.835c-0.729,0.246-1.806,0.376-3.229,0.388
		c-1.553,0.012-2.787-0.041-3.705-0.159c-0.423-0.07-0.782-0.235-1.076-0.493c-0.247-0.224-0.44-0.519-0.582-0.883
		c-0.153-0.399-0.235-0.888-0.247-1.464V7.36l-1.182,0.37c-0.177,0.047-0.324,0.036-0.441-0.035c-0.118-0.059-0.2-0.159-0.247-0.3
		c-0.047-0.153-0.035-0.282,0.035-0.388c0.059-0.141,0.177-0.235,0.353-0.282l1.482-0.459V2.508
		c0.012-0.176,0.059-0.317,0.142-0.423c0.094-0.094,0.217-0.141,0.37-0.141c0.142,0.012,0.265,0.059,0.37,0.141
		c0.106,0.094,0.159,0.235,0.159,0.423v3.423l3.405-1.076V1.731c0-0.176,0.041-0.306,0.123-0.388
		c0.106-0.094,0.235-0.141,0.389-0.141c0.141,0.012,0.265,0.059,0.37,0.141c0.105,0.106,0.159,0.236,0.159,0.388v2.788l2.575-0.829
		c0.4-0.129,0.759-0.088,1.076,0.124c0.342,0.235,0.512,0.535,0.512,0.9v5.451c-0.012,0.564-0.129,1.006-0.353,1.324
		c-0.306,0.318-0.741,0.482-1.306,0.494c-0.553,0-1.029-0.041-1.429-0.123c-0.188-0.059-0.317-0.13-0.389-0.212
		c-0.082-0.117-0.117-0.247-0.105-0.389c0.023-0.176,0.088-0.306,0.194-0.388c0.117-0.094,0.271-0.123,0.458-0.088
		c0.247,0.082,0.535,0.146,0.865,0.193c0.353,0.048,0.588,0.031,0.705-0.053c0.212-0.188,0.317-0.57,0.317-1.146V5.154
		c0-0.176-0.053-0.288-0.158-0.335c-0.106-0.071-0.235-0.083-0.389-0.036l-2.575,0.83V12.953z"/>
	<path fill="#FFFFFF" d="M138.894,3.161c0.553,0,0.917,0.077,1.094,0.229c0.199,0.188,0.3,0.535,0.3,1.041
		c0,1.435-0.324,3.07-0.971,4.904c-0.87,2.33-2.176,4.094-3.917,5.293c-1.834,1.271-4.063,2.141-6.687,2.611
		c-0.211,0.035-0.376,0.029-0.494-0.018c-0.129-0.047-0.211-0.165-0.246-0.353c-0.013-0.188,0.023-0.336,0.105-0.441
		c0.105-0.118,0.253-0.194,0.441-0.229c2.505-0.518,4.575-1.323,6.21-2.417c1.505-1.012,2.629-2.47,3.37-4.375
		c0.752-1.977,1.129-3.635,1.129-4.976c0-0.141-0.112-0.212-0.335-0.212h-11.751c-0.247,0-0.429-0.041-0.547-0.124
		c-0.105-0.082-0.158-0.211-0.158-0.388c0-0.211,0.053-0.358,0.158-0.441c0.118-0.071,0.3-0.106,0.547-0.106H138.894z
		 M140.499,1.043c0.306-0.282,0.688-0.423,1.146-0.423c-0.012-0.012,0.006-0.012,0.053,0c0-0.012,0.006-0.018,0.018-0.018V0.62
		c0.424,0,0.817,0.141,1.183,0.423c0.364,0.318,0.547,0.724,0.547,1.217c0,0.506-0.2,0.917-0.601,1.235
		c-0.329,0.271-0.729,0.412-1.199,0.423c-0.436-0.023-0.8-0.165-1.094-0.423c-0.377-0.318-0.564-0.729-0.564-1.235
		C139.999,1.767,140.169,1.361,140.499,1.043z M141.011,2.931c0.164,0.153,0.376,0.236,0.635,0.247
		c0.306-0.023,0.553-0.106,0.741-0.247c0.211-0.165,0.317-0.388,0.317-0.67c-0.012-0.293-0.112-0.517-0.3-0.67
		c-0.235-0.165-0.482-0.241-0.741-0.229c-0.259,0-0.482,0.077-0.671,0.229c-0.176,0.165-0.265,0.388-0.265,0.67
		C140.728,2.555,140.822,2.779,141.011,2.931z"/>
	<path fill="#FFFFFF" d="M176.349,6.831c0.436,0,0.741,0.07,0.918,0.211s0.265,0.447,0.265,0.917c0,1.153-0.529,2.541-1.588,4.165
		c-0.977,1.481-2.265,2.67-3.864,3.563c-1.423,0.753-3.27,1.259-5.539,1.518c-0.236,0.023-0.424,0.012-0.565-0.035
		c-0.129-0.048-0.199-0.183-0.211-0.406c-0.012-0.188,0.035-0.335,0.141-0.44c0.13-0.106,0.3-0.165,0.512-0.177
		c2.294-0.235,4.081-0.741,5.363-1.518c1.353-0.812,2.494-1.94,3.423-3.388c0.847-1.365,1.271-2.458,1.271-3.282
		c0-0.047-0.041-0.07-0.124-0.07h-12.773c-0.224-0.012-0.388-0.053-0.493-0.124c-0.106-0.094-0.159-0.235-0.159-0.423
		c0-0.188,0.053-0.318,0.159-0.388c0.105-0.083,0.27-0.124,0.493-0.124H176.349z M175.731,2.349c0.2-0.012,0.358,0.024,0.477,0.106
		c0.141,0.094,0.212,0.235,0.212,0.423c0.012,0.2-0.054,0.335-0.194,0.406c-0.142,0.083-0.306,0.124-0.494,0.124h-10.639
		c-0.235-0.012-0.405-0.053-0.512-0.124c-0.105-0.082-0.158-0.217-0.158-0.406c0-0.188,0.053-0.323,0.158-0.406
		c0.117-0.082,0.288-0.124,0.512-0.124H175.731z"/>
</g>
<g>
</g>
</svg>
